{
copyright = "Copyright \U00A9 2019 IBM Corp. with Reserved Font Name \"Plex\"\012This Font Software is licensed under the SIL Open Font License, Version 1.1.\012This license is copied below, and is also available with a FAQ at: http://scripts.sil.org/OFL.";
customParameters = (
{
name = licenseURL;
value = "http://scripts.sil.org/OFL";
},
{
name = vendorID;
value = "";
},
{
name = glyphOrder;
value = (
    ".notdef",
    uni0000,
    uni000D,
    space,
    a,
    b,
    c,
    d,
    e,
    f,
    g,
    "g.alt02",
    h,
    i,
    j,
    k,
    l,
    m,
    n,
    o,
    p,
    q,
    r,
    s,
    t,
    u,
    v,
    w,
    x,
    y,
    z,
    A,
    B,
    C,
    D,
    E,
    F,
    G,
    H,
    I,
    J,
    K,
    L,
    M,
    N,
    O,
    P,
    Q,
    R,
    S,
    T,
    U,
    V,
    W,
    X,
    Y,
    Z,
    zero,
    one,
    two,
    three,
    four,
    five,
    six,
    seven,
    eight,
    nine,
    ampersand,
    at,
    hyphen,
    uni00AD,
    endash,
    emdash,
    underscore,
    period,
    ellipsis,
    colon,
    comma,
    semicolon,
    quotesingle,
    quotedbl,
    quoteleft,
    quoteright,
    quotedblleft,
    quotedblright,
    quotesinglbase,
    quotedblbase,
    guilsinglleft,
    guilsinglright,
    guillemotleft,
    guillemotright,
    exclamdown,
    exclam,
    questiondown,
    question,
    parenleft,
    parenright,
    bracketleft,
    bracketright,
    braceleft,
    braceright,
    slash,
    backslash,
    fraction,
    percent,
    perthousand,
    bar,
    brokenbar,
    section,
    paragraph,
    copyright,
    registered,
    trademark,
    ordfeminine,
    ordmasculine,
    degree,
    asterisk,
    dagger,
    daggerdbl,
    numbersign,
    asciicircum,
    asciitilde,
    plus,
    minus,
    plusminus,
    multiply,
    divide,
    equal,
    approxequal,
    notequal,
    less,
    greater,
    lessequal,
    greaterequal,
    periodcentered,
    bullet,
    lozenge,
    logicalnot,

glyphs = (
{
glyphname = .notdef;
layers = (
{
layerId = "91171461-3A9C-47E5-8F32-6F9DD13F0C63";
name = "Bold Italic";
paths = (
{
closed = 1;
nodes = (
"32 0 LINE",
"32 780 LINE",
"440 780 LINE",
"440 0 LINE"
);
},
{
closed = 1;
nodes = (
"120 88 LINE",
"352 88 LINE",
"352 692 LINE",
"120 692 LINE"
);
}
);
width = 472;
}
);
},
{
glyphname = a;
layers = (
{
layerId = "91171461-3A9C-47E5-8F32-6F9DD13F0C63";
name = "Bold Italic";
paths = (
{
closed = 1;
nodes = (
"432 0 LINE SMOOTH",
"384 0 OFFCURVE",
"350 27 OFFCURVE",
"350 72 CURVE SMOOTH",
"350 83 OFFCURVE",
"352 95 OFFCURVE",
"353 102 CURVE",
"357 119 LINE",
"352 119 LINE",
"309 34 OFFCURVE",
"262 -12 OFFCURVE",
"182 -12 CURVE SMOOTH",
"134 -12 OFFCURVE",
"97 7 OFFCURVE",
"73 40 CURVE SMOOTH",
"49 73 OFFCURVE",
"37 119 OFFCURVE",
"37 175 CURVE SMOOTH",
"37 276 OFFCURVE",
"62 366 OFFCURVE",
"106 431 CURVE SMOOTH",
"149 495 OFFCURVE",
"211 534 OFFCURVE",
"283 534 CURVE SMOOTH",
"354 534 OFFCURVE",
"406 493 OFFCURVE",
"415 433 CURVE",
"420 433 LINE",
"438 522 LINE",
"559 522 LINE",
"474 99 LINE",
"537 99 LINE",
"518 0 LINE"
);
},
{
closed = 1;
nodes = (
"275 90 OFFCURVE",
"306 111 OFFCURVE",
"330 139 CURVE SMOOTH",
"356 168 OFFCURVE",
"374 205 OFFCURVE",
"383 249 CURVE SMOOTH",
"401 342 LINE SMOOTH",
"406 366 OFFCURVE",
"399 388 OFFCURVE",
"383 405 CURVE SMOOTH",
"367 422 OFFCURVE",
"342 433 OFFCURVE",
"310 433 CURVE SMOOTH",
"241 433 OFFCURVE",
"198 390 OFFCURVE",
"181 304 CURVE SMOOTH",
"167 232 LINE SMOOTH",
"164 217 OFFCURVE",
"161 193 OFFCURVE",
"161 177 CURVE SMOOTH",
"161 124 OFFCURVE",
"188 90 OFFCURVE",
"236 90 CURVE SMOOTH"
);
}
);
width = 588;
}
);
leftKerningGroup = a;
rightKerningGroup = a;
unicode = 0061;
},
{
glyphname = b;
layers = (
{
layerId = "91171461-3A9C-47E5-8F32-6F9DD13F0C63";
name = "Bold Italic";
paths = (
{
closed = 1;
nodes = (
"169 740 LINE",
"290 740 LINE",
"223 404 LINE",
"228 404 LINE",
"271 489 OFFCURVE",
"318 534 OFFCURVE",
"398 534 CURVE SMOOTH",
"446 534 OFFCURVE",
"483 515 OFFCURVE",
"507 483 CURVE SMOOTH",
"531 450 OFFCURVE",
"543 403 OFFCURVE",
"543 348 CURVE SMOOTH",
"543 247 OFFCURVE",
"518 157 OFFCURVE",
"474 93 CURVE SMOOTH",
"430 28 OFFCURVE",
"369 -12 OFFCURVE",
"297 -12 CURVE SMOOTH",
"226 -12 OFFCURVE",
"174 29 OFFCURVE",
"165 89 CURVE",
"160 89 LINE",
"142 0 LINE",
"21 0 LINE"
);
},
{
closed = 1;
nodes = (
"339 90 OFFCURVE",
"382 133 OFFCURVE",
"399 218 CURVE SMOOTH",
"413 290 LINE SMOOTH",
"416 305 OFFCURVE",
"419 329 OFFCURVE",
"419 345 CURVE SMOOTH",
"419 398 OFFCURVE",
"392 433 OFFCURVE",
"343 433 CURVE SMOOTH",
"304 433 OFFCURVE",
"273 411 OFFCURVE",
"250 384 CURVE SMOOTH",
"225 355 OFFCURVE",
"206 317 OFFCURVE",
"197 274 CURVE SMOOTH",
"180 186 LINE SMOOTH",
"168 130 OFFCURVE",
"202 90 OFFCURVE",
"270 90 CURVE SMOOTH"
);
}
);
width = 580;
}
);
leftKerningGroup = b;
rightKerningGroup = b;
unicode = 0062;
},
{
glyphname = c;
layers = (
{
layerId = "91171461-3A9C-47E5-8F32-6F9DD13F0C63";
name = "Bold Italic";
paths = (
{
closed = 1;
nodes = (
"180 -12 OFFCURVE",
"130 6 OFFCURVE",
"94 42 CURVE SMOOTH",
"58 78 OFFCURVE",
"37 134 OFFCURVE",
"37 210 CURVE SMOOTH",
"37 302 OFFCURVE",
"65 384 OFFCURVE",
"113 442 CURVE SMOOTH",
"161 500 OFFCURVE",
"229 534 OFFCURVE",
"308 534 CURVE SMOOTH",
"405 534 OFFCURVE",
"476 482 OFFCURVE",
"491 403 CURVE",
"389 363 LINE",
"374 407 OFFCURVE",
"356 434 OFFCURVE",
"301 434 CURVE SMOOTH",
"236 434 OFFCURVE",
"195 394 OFFCURVE",
"180 313 CURVE SMOOTH",
"162 226 LINE SMOOTH",
"159 211 OFFCURVE",
"157 196 OFFCURVE",
"157 183 CURVE SMOOTH",
"157 127 OFFCURVE",
"185 88 OFFCURVE",
"248 88 CURVE SMOOTH",
"300 88 OFFCURVE",
"328 119 OFFCURVE",
"360 176 CURVE",
"453 132 LINE",
"408 37 OFFCURVE",
"334 -12 OFFCURVE",
"237 -12 CURVE SMOOTH"
);
}
);
width = 492;
}
);
leftKerningGroup = c;
rightKerningGroup = c;
unicode = 0063;
},
{
glyphname = d;
layers = (
{
layerId = "91171461-3A9C-47E5-8F32-6F9DD13F0C63";
name = "Bold Italic";
paths = (
{
closed = 1;
nodes = (
"432 0 LINE SMOOTH",
"384 0 OFFCURVE",
"350 27 OFFCURVE",
"350 72 CURVE SMOOTH",
"350 83 OFFCURVE",
"352 95 OFFCURVE",
"353 102 CURVE",
"357 119 LINE",
"352 119 LINE",
"309 34 OFFCURVE",
"262 -12 OFFCURVE",
"182 -12 CURVE SMOOTH",
"134 -12 OFFCURVE",
"97 7 OFFCURVE",
"73 40 CURVE SMOOTH",
"49 73 OFFCURVE",
"37 119 OFFCURVE",
"37 175 CURVE SMOOTH",
"37 276 OFFCURVE",
"62 366 OFFCURVE",
"106 431 CURVE SMOOTH",
"149 495 OFFCURVE",
"211 534 OFFCURVE",
"283 534 CURVE SMOOTH",
"354 534 OFFCURVE",
"406 493 OFFCURVE",
"415 433 CURVE",
"420 433 LINE",
"481 740 LINE",
"603 740 LINE",
"474 99 LINE",
"537 99 LINE",
"518 0 LINE"
);
},
{
closed = 1;
nodes = (
"276 90 OFFCURVE",
"307 112 OFFCURVE",
"330 139 CURVE SMOOTH",
"356 168 OFFCURVE",
"374 205 OFFCURVE",
"383 248 CURVE SMOOTH",
"400 336 LINE SMOOTH",
"412 392 OFFCURVE",
"377 433 OFFCURVE",
"309 433 CURVE SMOOTH",
"241 433 OFFCURVE",
"198 390 OFFCURVE",
"181 304 CURVE SMOOTH",
"167 232 LINE SMOOTH",
"164 217 OFFCURVE",
"161 193 OFFCURVE",
"161 177 CURVE SMOOTH",
"161 124 OFFCURVE",
"188 90 OFFCURVE",
"237 90 CURVE SMOOTH"
);
}
);
width = 588;
}
);
leftKerningGroup = a;
rightKerningGroup = d;
unicode = 0064;
},
{
glyphname = e;
layers = (
{
layerId = "91171461-3A9C-47E5-8F32-6F9DD13F0C63";
name = "Bold Italic";
paths = (
{
closed = 1;
nodes = (
"109 -12 OFFCURVE",
"37 71 OFFCURVE",
"37 211 CURVE SMOOTH",
"37 295 OFFCURVE",
"65 376 OFFCURVE",
"114 436 CURVE SMOOTH",
"162 496 OFFCURVE",
"232 534 OFFCURVE",
"317 534 CURVE SMOOTH",
"358 534 OFFCURVE",
"403 525 OFFCURVE",
"438 503 CURVE SMOOTH",
"473 481 OFFCURVE",
"498 443 OFFCURVE",
"498 390 CURVE SMOOTH",
"498 335 OFFCURVE",
"471 293 OFFCURVE",
"418 262 CURVE SMOOTH",
"364 231 OFFCURVE",
"278 215 OFFCURVE",
"160 212 CURVE",
"158 199 OFFCURVE",
"157 189 OFFCURVE",
"157 183 CURVE SMOOTH",
"157 126 OFFCURVE",
"187 88 OFFCURVE",
"259 88 CURVE SMOOTH",
"311 88 OFFCURVE",
"351 108 OFFCURVE",
"396 164 CURVE",
"471 102 LINE",
"406 18 OFFCURVE",
"337 -12 OFFCURVE",
"250 -12 CURVE SMOOTH"
);
},
{
closed = 1;
nodes = (
"242 440 OFFCURVE",
"193 393 OFFCURVE",
"178 317 CURVE SMOOTH",
"173 292 LINE",
"258 296 OFFCURVE",
"311 306 OFFCURVE",
"341 321 CURVE SMOOTH",
"371 336 OFFCURVE",
"379 356 OFFCURVE",
"379 381 CURVE SMOOTH",
"379 405 OFFCURVE",
"369 420 OFFCURVE",
"356 429 CURVE",
"343 437 OFFCURVE",
"325 440 OFFCURVE",
"309 440 CURVE SMOOTH"
);
}
);
width = 513;
}
);
leftKerningGroup = c;
rightKerningGroup = e;
unicode = 0065;
},
{
glyphname = f;
layers = (
{
layerId = "91171461-3A9C-47E5-8F32-6F9DD13F0C63";
name = "Bold Italic";
paths = (
{
closed = 1;
nodes = (
"162 -61 LINE SMOOTH",
"143 -152 OFFCURVE",
"90 -200 OFFCURVE",
"-10 -200 CURVE SMOOTH",
"-83 -200 LINE",
"-63 -101 LINE",
"32 -101 LINE",
"137 423 LINE",
"63 423 LINE",
"83 522 LINE",
"157 522 LINE",
"173 601 LINE SMOOTH",
"192 692 OFFCURVE",
"244 740 OFFCURVE",
"345 740 CURVE SMOOTH",
"422 740 LINE",
"401 641 LINE",
"302 641 LINE",
"279 522 LINE",
"381 522 LINE",
"361 423 LINE",
"259 423 LINE"
);
}
);
width = 339;
}
);
leftKerningGroup = f;
rightKerningGroup = f;
unicode = 0066;
},
{
glyphname = g;
lastChange = "2018-11-07 04:59:24 +0000";
layers = (
{
layerId = "91171461-3A9C-47E5-8F32-6F9DD13F0C63";
name = "Bold Italic";
paths = (
{
closed = 1;
nodes = (
"264 -2 OFFCURVE",
"312 44 OFFCURVE",
"353 129 CURVE",
"358 129 LINE",
"336 19 LINE SMOOTH",
"319 -68 OFFCURVE",
"275 -113 OFFCURVE",
"202 -113 CURVE SMOOTH",
"147 -113 OFFCURVE",
"105 -88 OFFCURVE",
"79 -48 CURVE",
"0 -120 LINE",
"46 -183 OFFCURVE",
"115 -212 OFFCURVE",
"204 -212 CURVE SMOOTH",
"357 -212 OFFCURVE",
"428 -131 OFFCURVE",
"457 11 CURVE SMOOTH",
"559 522 LINE",
"437 522 LINE",
"420 433 LINE",
"415 433 LINE",
"406 493 OFFCURVE",
"353 534 OFFCURVE",
"283 534 CURVE SMOOTH",
"138 534 OFFCURVE",
"39 386 OFFCURVE",
"39 185 CURVE SMOOTH",
"39 74 OFFCURVE",
"87 -2 OFFCURVE",
"183 -2 CURVE SMOOTH"
);
},
{
closed = 1;
nodes = (
"190 100 OFFCURVE",
"163 134 OFFCURVE",
"163 187 CURVE SMOOTH",
"163 203 OFFCURVE",
"166 227 OFFCURVE",
"169 242 CURVE SMOOTH",
"181 304 LINE SMOOTH",
"199 389 OFFCURVE",
"241 433 OFFCURVE",
"309 433 CURVE SMOOTH",
"381 433 OFFCURVE",
"408 384 OFFCURVE",
"399 336 CURVE SMOOTH",
"384 258 LINE SMOOTH",
"376 216 OFFCURVE",
"357 177 OFFCURVE",
"332 149 CURVE SMOOTH",
"308 122 OFFCURVE",
"277 100 OFFCURVE",
"238 100 CURVE SMOOTH"
);
}
);
width = 569;
}
);
leftKerningGroup = g;
rightKerningGroup = g;
unicode = 0067;
},
{
glyphname = h;
layers = (
{
layerId = "91171461-3A9C-47E5-8F32-6F9DD13F0C63";
name = "Bold Italic";
paths = (
{
closed = 1;
nodes = (
"169 740 LINE",
"290 740 LINE",
"224 406 LINE",
"229 406 LINE",
"268 489 OFFCURVE",
"319 534 OFFCURVE",
"399 534 CURVE SMOOTH",
"483 534 OFFCURVE",
"527 484 OFFCURVE",
"527 396 CURVE SMOOTH",
"527 373 OFFCURVE",
"523 351 OFFCURVE",
"518 324 CURVE SMOOTH",
"473 99 LINE",
"531 99 LINE",
"512 0 LINE",
"427 0 LINE SMOOTH",
"379 0 OFFCURVE",
"349 26 OFFCURVE",
"349 71 CURVE SMOOTH",
"349 82 OFFCURVE",
"351 90 OFFCURVE",
"352 97 CURVE",
"395 314 LINE SMOOTH",
"399 333 OFFCURVE",
"401 351 OFFCURVE",
"401 369 CURVE SMOOTH",
"401 408 OFFCURVE",
"384 431 OFFCURVE",
"340 431 CURVE SMOOTH",
"305 431 OFFCURVE",
"276 413 OFFCURVE",
"252 385 CURVE SMOOTH",
"225 354 OFFCURVE",
"205 316 OFFCURVE",
"197 275 CURVE SMOOTH",
"142 0 LINE",
"21 0 LINE"
);
}
);
width = 580;
}
);
leftKerningGroup = b;
rightKerningGroup = h;
unicode = 0068;
},
{
glyphname = i;
layers = (
{
layerId = "91171461-3A9C-47E5-8F32-6F9DD13F0C63";
name = "Bold Italic";
paths = (
{
closed = 1;
nodes = (
"160 598 OFFCURVE",
"141 617 OFFCURVE",
"141 645 CURVE SMOOTH",
"141 665 OFFCURVE",
"146 702 OFFCURVE",
"170 727 CURVE SMOOTH",
"181 739 OFFCURVE",
"201 745 OFFCURVE",
"230 745 CURVE SMOOTH",
"274 745 OFFCURVE",
"293 726 OFFCURVE",
"293 699 CURVE SMOOTH",
"293 679 OFFCURVE",
"288 642 OFFCURVE",
"265 617 CURVE SMOOTH",
"253 604 OFFCURVE",
"233 598 OFFCURVE",
"204 598 CURVE SMOOTH"
);
},
{
closed = 1;
nodes = (
"122 0 LINE SMOOTH",
"71 0 OFFCURVE",
"39 30 OFFCURVE",
"39 75 CURVE SMOOTH",
"39 82 OFFCURVE",
"40 90 OFFCURVE",
"42 100 CURVE SMOOTH",
"126 522 LINE",
"248 522 LINE",
"163 99 LINE",
"226 99 LINE",
"206 0 LINE"
);
}
);
width = 277;
}
);
leftKerningGroup = i;
rightKerningGroup = i;
unicode = 0069;
},
{
glyphname = j;
layers = (
{
layerId = "91171461-3A9C-47E5-8F32-6F9DD13F0C63";
name = "Bold Italic";
paths = (
{
closed = 1;
nodes = (
"128 522 LINE",
"250 522 LINE",
"130 -72 LINE SMOOTH",
"113 -157 OFFCURVE",
"72 -200 OFFCURVE",
"-19 -200 CURVE SMOOTH",
"-94 -200 LINE",
"-74 -101 LINE",
"3 -101 LINE"
);
},
{
closed = 1;
nodes = (
"162 598 OFFCURVE",
"143 617 OFFCURVE",
"143 645 CURVE SMOOTH",
"143 665 OFFCURVE",
"147 702 OFFCURVE",
"171 727 CURVE SMOOTH",
"183 739 OFFCURVE",
"203 745 OFFCURVE",
"232 745 CURVE SMOOTH",
"276 745 OFFCURVE",
"295 726 OFFCURVE",
"295 699 CURVE SMOOTH",
"295 679 OFFCURVE",
"291 642 OFFCURVE",
"267 617 CURVE SMOOTH",
"255 604 OFFCURVE",
"235 598 OFFCURVE",
"206 598 CURVE SMOOTH"
);
}
);
width = 270;
}
);
leftKerningGroup = j;
rightKerningGroup = j;
unicode = 006A;
},
{
glyphname = k;
layers = (
{
layerId = "91171461-3A9C-47E5-8F32-6F9DD13F0C63";
name = "Bold Italic";
paths = (
{
closed = 1;
nodes = (
"169 740 LINE",
"290 740 LINE",
"202 297 LINE",
"208 297 LINE",
"286 386 LINE",
"426 522 LINE",
"568 522 LINE",
"350 311 LINE",
"432 99 LINE",
"494 99 LINE",
"473 0 LINE",
"408 0 LINE SMOOTH",
"361 0 OFFCURVE",
"330 24 OFFCURVE",
"313 72 CURVE SMOOTH",
"255 230 LINE",
"172 152 LINE",
"142 0 LINE",
"21 0 LINE"
);
}
);
width = 541;
}
);
leftKerningGroup = b;
rightKerningGroup = k;
unicode = 006B;
},
{
glyphname = l;
layers = (
{
layerId = "91171461-3A9C-47E5-8F32-6F9DD13F0C63";
name = "Bold Italic";
paths = (
{
closed = 1;
nodes = (
"122 0 LINE SMOOTH",
"70 0 OFFCURVE",
"38 30 OFFCURVE",
"38 75 CURVE SMOOTH",
"38 82 OFFCURVE",
"39 90 OFFCURVE",
"41 100 CURVE SMOOTH",
"169 740 LINE",
"291 740 LINE",
"162 99 LINE",
"229 99 LINE",
"210 0 LINE"
);
}
);
width = 276;
}
);
leftKerningGroup = l;
rightKerningGroup = d;
unicode = 006C;
},
{
glyphname = m;
layers = (
{
layerId = "91171461-3A9C-47E5-8F32-6F9DD13F0C63";
name = "Bold Italic";
paths = (
{
closed = 1;
nodes = (
"22 0 LINE",
"126 522 LINE",
"248 522 LINE",
"225 406 LINE",
"230 406 LINE",
"269 487 OFFCURVE",
"316 534 OFFCURVE",
"396 534 CURVE SMOOTH",
"472 534 OFFCURVE",
"514 486 OFFCURVE",
"517 406 CURVE",
"522 406 LINE",
"561 485 OFFCURVE",
"610 534 OFFCURVE",
"693 534 CURVE SMOOTH",
"773 534 OFFCURVE",
"815 483 OFFCURVE",
"815 399 CURVE SMOOTH",
"815 371 OFFCURVE",
"812 344 OFFCURVE",
"805 315 CURVE",
"762 99 LINE",
"820 99 LINE",
"800 0 LINE",
"715 0 LINE SMOOTH",
"667 0 OFFCURVE",
"637 26 OFFCURVE",
"637 70 CURVE SMOOTH",
"637 81 OFFCURVE",
"639 90 OFFCURVE",
"640 97 CURVE",
"683 314 LINE SMOOTH",
"687 334 OFFCURVE",
"691 353 OFFCURVE",
"691 369 CURVE SMOOTH",
"691 408 OFFCURVE",
"675 431 OFFCURVE",
"636 431 CURVE SMOOTH",
"605 431 OFFCURVE",
"576 413 OFFCURVE",
"553 386 CURVE SMOOTH",
"526 355 OFFCURVE",
"507 314 OFFCURVE",
"500 275 CURVE SMOOTH",
"445 0 LINE",
"323 0 LINE",
"386 314 LINE SMOOTH",
"390 333 OFFCURVE",
"393 353 OFFCURVE",
"393 369 CURVE SMOOTH",
"393 408 OFFCURVE",
"377 431 OFFCURVE",
"338 431 CURVE SMOOTH",
"303 431 OFFCURVE",
"276 412 OFFCURVE",
"253 385 CURVE SMOOTH",
"226 354 OFFCURVE",
"206 315 OFFCURVE",
"198 275 CURVE SMOOTH",
"143 0 LINE"
);
}
);
width = 869;
}
);
leftKerningGroup = m;
rightKerningGroup = h;
unicode = 006D;
},
{
glyphname = n;
layers = (
{
layerId = "91171461-3A9C-47E5-8F32-6F9DD13F0C63";
name = "Bold Italic";
paths = (
{
closed = 1;
nodes = (
"22 0 LINE",
"126 522 LINE",
"248 522 LINE",
"225 406 LINE",
"230 406 LINE",
"269 489 OFFCURVE",
"320 534 OFFCURVE",
"400 534 CURVE SMOOTH",
"484 534 OFFCURVE",
"528 484 OFFCURVE",
"528 396 CURVE SMOOTH",
"528 373 OFFCURVE",
"524 351 OFFCURVE",
"519 324 CURVE SMOOTH",
"474 99 LINE",
"532 99 LINE",
"513 0 LINE",
"428 0 LINE SMOOTH",
"380 0 OFFCURVE",
"350 26 OFFCURVE",
"350 71 CURVE SMOOTH",
"350 82 OFFCURVE",
"350 88 OFFCURVE",
"353 97 CURVE",
"396 314 LINE SMOOTH",
"400 333 OFFCURVE",
"402 351 OFFCURVE",
"402 369 CURVE SMOOTH",
"402 408 OFFCURVE",
"385 431 OFFCURVE",
"341 431 CURVE SMOOTH",
"306 431 OFFCURVE",
"277 413 OFFCURVE",
"253 385 CURVE SMOOTH",
"226 354 OFFCURVE",
"206 316 OFFCURVE",
"198 275 CURVE SMOOTH",
"143 0 LINE"
);
}
);
width = 581;
}
);
leftKerningGroup = m;
rightKerningGroup = h;
unicode = 006E;
},
{
glyphname = o;
layers = (
{
layerId = "91171461-3A9C-47E5-8F32-6F9DD13F0C63";
name = "Bold Italic";
paths = (
{
closed = 1;
nodes = (
"116 -12 OFFCURVE",
"37 65 OFFCURVE",
"37 205 CURVE SMOOTH",
"37 297 OFFCURVE",
"65 380 OFFCURVE",
"113 439 CURVE SMOOTH",
"161 498 OFFCURVE",
"227 534 OFFCURVE",
"306 534 CURVE SMOOTH",
"429 534 OFFCURVE",
"508 457 OFFCURVE",
"508 317 CURVE SMOOTH",
"508 225 OFFCURVE",
"480 143 OFFCURVE",
"432 84 CURVE SMOOTH",
"384 24 OFFCURVE",
"316 -12 OFFCURVE",
"239 -12 CURVE SMOOTH"
);
},
{
closed = 1;
nodes = (
"306 88 OFFCURVE",
"350 133 OFFCURVE",
"366 217 CURVE SMOOTH",
"384 305 LINE",
"387 313 OFFCURVE",
"388 325 OFFCURVE",
"388 340 CURVE SMOOTH",
"388 397 OFFCURVE",
"357 434 OFFCURVE",
"300 434 CURVE SMOOTH",
"240 434 OFFCURVE",
"195 390 OFFCURVE",
"179 306 CURVE SMOOTH",
"161 218 LINE",
"158 207 OFFCURVE",
"157 197 OFFCURVE",
"157 182 CURVE SMOOTH",
"157 126 OFFCURVE",
"187 88 OFFCURVE",
"246 88 CURVE SMOOTH"
);
}
);
width = 545;
}
);
leftKerningGroup = c;
rightKerningGroup = o;
unicode = 006F;
},
{
glyphname = p;
layers = (
{
layerId = "91171461-3A9C-47E5-8F32-6F9DD13F0C63";
name = "Bold Italic";
paths = (
{
closed = 1;
nodes = (
"126 522 LINE",
"248 522 LINE",
"224 404 LINE",
"229 404 LINE",
"272 489 OFFCURVE",
"319 534 OFFCURVE",
"399 534 CURVE SMOOTH",
"447 534 OFFCURVE",
"484 515 OFFCURVE",
"508 483 CURVE SMOOTH",
"532 450 OFFCURVE",
"544 403 OFFCURVE",
"544 348 CURVE SMOOTH",
"544 247 OFFCURVE",
"519 157 OFFCURVE",
"475 93 CURVE SMOOTH",
"431 28 OFFCURVE",
"370 -12 OFFCURVE",
"298 -12 CURVE SMOOTH",
"227 -12 OFFCURVE",
"175 29 OFFCURVE",
"166 89 CURVE",
"161 89 LINE",
"103 -200 LINE",
"-18 -200 LINE"
);
},
{
closed = 1;
nodes = (
"340 90 OFFCURVE",
"383 133 OFFCURVE",
"400 218 CURVE SMOOTH",
"414 290 LINE SMOOTH",
"417 305 OFFCURVE",
"420 329 OFFCURVE",
"420 345 CURVE SMOOTH",
"420 398 OFFCURVE",
"393 433 OFFCURVE",
"344 433 CURVE SMOOTH",
"305 433 OFFCURVE",
"274 411 OFFCURVE",
"251 384 CURVE SMOOTH",
"226 353 OFFCURVE",
"207 317 OFFCURVE",
"198 274 CURVE SMOOTH",
"181 186 LINE SMOOTH",
"169 130 OFFCURVE",
"203 90 OFFCURVE",
"271 90 CURVE SMOOTH"
);
}
);
width = 581;
}
);
leftKerningGroup = p;
rightKerningGroup = b;
unicode = 0070;
},
{
glyphname = q;
layers = (
{
layerId = "91171461-3A9C-47E5-8F32-6F9DD13F0C63";
name = "Bold Italic";
paths = (
{
closed = 1;
nodes = (
"357 119 LINE",
"352 119 LINE",
"309 34 OFFCURVE",
"262 -12 OFFCURVE",
"182 -12 CURVE SMOOTH",
"134 -12 OFFCURVE",
"97 7 OFFCURVE",
"73 40 CURVE SMOOTH",
"49 73 OFFCURVE",
"37 119 OFFCURVE",
"37 175 CURVE SMOOTH",
"37 276 OFFCURVE",
"62 366 OFFCURVE",
"106 431 CURVE SMOOTH",
"149 495 OFFCURVE",
"211 534 OFFCURVE",
"283 534 CURVE SMOOTH",
"354 534 OFFCURVE",
"406 493 OFFCURVE",
"415 433 CURVE",
"420 433 LINE",
"438 522 LINE",
"559 522 LINE",
"415 -200 LINE",
"293 -200 LINE"
);
},
{
closed = 1;
nodes = (
"276 90 OFFCURVE",
"307 111 OFFCURVE",
"330 139 CURVE SMOOTH",
"355 168 OFFCURVE",
"374 205 OFFCURVE",
"383 248 CURVE SMOOTH",
"400 336 LINE SMOOTH",
"412 392 OFFCURVE",
"377 433 OFFCURVE",
"309 433 CURVE SMOOTH",
"241 433 OFFCURVE",
"198 390 OFFCURVE",
"181 304 CURVE SMOOTH",
"167 232 LINE SMOOTH",
"164 217 OFFCURVE",
"161 193 OFFCURVE",
"161 177 CURVE SMOOTH",
"161 124 OFFCURVE",
"188 90 OFFCURVE",
"237 90 CURVE SMOOTH"
);
}
);
width = 579;
}
);
leftKerningGroup = c;
rightKerningGroup = j;
unicode = 0071;
},
{
glyphname = r;
layers = (
{
layerId = "91171461-3A9C-47E5-8F32-6F9DD13F0C63";
name = "Bold Italic";
paths = (
{
closed = 1;
nodes = (
"21 0 LINE",
"125 522 LINE",
"247 522 LINE",
"223 402 LINE",
"229 402 LINE",
"241 430 OFFCURVE",
"260 459 OFFCURVE",
"286 483 CURVE SMOOTH",
"312 506 OFFCURVE",
"344 522 OFFCURVE",
"385 522 CURVE SMOOTH",
"412 522 LINE",
"387 403 LINE",
"352 403 LINE SMOOTH",
"261 403 OFFCURVE",
"215 366 OFFCURVE",
"199 285 CURVE SMOOTH",
"142 0 LINE"
);
}
);
width = 385;
}
);
leftKerningGroup = m;
rightKerningGroup = r;
unicode = 0072;
},
{
glyphname = s;
layers = (
{
layerId = "91171461-3A9C-47E5-8F32-6F9DD13F0C63";
name = "Bold Italic";
paths = (
{
closed = 1;
nodes = (
"127 -12 OFFCURVE",
"50 20 OFFCURVE",
"6 81 CURVE",
"83 152 LINE",
"114 111 OFFCURVE",
"154 87 OFFCURVE",
"214 87 CURVE SMOOTH",
"279 87 OFFCURVE",
"312 117 OFFCURVE",
"312 156 CURVE SMOOTH",
"312 181 OFFCURVE",
"299 201 OFFCURVE",
"255 208 CURVE SMOOTH",
"206 215 LINE SMOOTH",
"119 228 OFFCURVE",
"67 270 OFFCURVE",
"67 354 CURVE SMOOTH",
"67 402 OFFCURVE",
"83 447 OFFCURVE",
"118 480 CURVE SMOOTH",
"153 512 OFFCURVE",
"205 534 OFFCURVE",
"276 534 CURVE SMOOTH",
"357 534 OFFCURVE",
"420 507 OFFCURVE",
"464 453 CURVE",
"386 382 LINE",
"361 414 OFFCURVE",
"321 436 OFFCURVE",
"270 436 CURVE SMOOTH",
"214 436 OFFCURVE",
"185 410 OFFCURVE",
"185 371 CURVE SMOOTH",
"185 346 OFFCURVE",
"198 326 OFFCURVE",
"241 319 CURVE SMOOTH",
"290 312 LINE SMOOTH",
"378 299 OFFCURVE",
"430 257 OFFCURVE",
"430 173 CURVE SMOOTH",
"430 122 OFFCURVE",
"410 75 OFFCURVE",
"373 42 CURVE SMOOTH",
"336 9 OFFCURVE",
"280 -12 OFFCURVE",
"211 -12 CURVE SMOOTH"
);
}
);
width = 489;
}
);
leftKerningGroup = s;
rightKerningGroup = s;
unicode = 0073;
},
{
glyphname = t;
layers = (
{
layerId = "91171461-3A9C-47E5-8F32-6F9DD13F0C63";
name = "Bold Italic";
paths = (
{
closed = 1;
nodes = (
"170 0 LINE SMOOTH",
"98 0 OFFCURVE",
"62 30 OFFCURVE",
"62 89 CURVE SMOOTH",
"62 100 OFFCURVE",
"63 116 OFFCURVE",
"66 129 CURVE SMOOTH",
"125 423 LINE",
"50 423 LINE",
"69 522 LINE",
"106 522 LINE SMOOTH",
"147 522 OFFCURVE",
"156 538 OFFCURVE",
"163 574 CURVE SMOOTH",
"181 664 LINE",
"294 664 LINE",
"266 522 LINE",
"371 522 LINE",
"351 423 LINE",
"246 423 LINE",
"182 99 LINE",
"280 99 LINE",
"260 0 LINE"
);
}
);
width = 343;
}
);
leftKerningGroup = t;
rightKerningGroup = t;
unicode = 0074;
},
{
glyphname = u;
layers = (
{
layerId = "91171461-3A9C-47E5-8F32-6F9DD13F0C63";
name = "Bold Italic";
paths = (
{
closed = 1;
nodes = (
"241 522 LINE",
"179 208 LINE SMOOTH",
"175 189 OFFCURVE",
"172 170 OFFCURVE",
"172 155 CURVE SMOOTH",
"172 115 OFFCURVE",
"189 91 OFFCURVE",
"229 91 CURVE SMOOTH",
"264 91 OFFCURVE",
"292 109 OFFCURVE",
"316 137 CURVE SMOOTH",
"343 168 OFFCURVE",
"362 208 OFFCURVE",
"370 248 CURVE SMOOTH",
"425 522 LINE",
"547 522 LINE",
"462 99 LINE",
"525 99 LINE",
"505 0 LINE",
"419 0 LINE SMOOTH",
"371 0 OFFCURVE",
"338 26 OFFCURVE",
"338 73 CURVE SMOOTH",
"338 84 OFFCURVE",
"340 95 OFFCURVE",
"341 103 CURVE",
"344 116 LINE",
"338 116 LINE",
"299 35 OFFCURVE",
"250 -12 OFFCURVE",
"173 -12 CURVE SMOOTH",
"90 -12 OFFCURVE",
"47 38 OFFCURVE",
"47 126 CURVE SMOOTH",
"47 150 OFFCURVE",
"50 172 OFFCURVE",
"55 199 CURVE SMOOTH",
"120 522 LINE"
);
}
);
width = 576;
}
);
leftKerningGroup = u;
rightKerningGroup = a;
unicode = 0075;
},
{
glyphname = v;
layers = (
{
layerId = "91171461-3A9C-47E5-8F32-6F9DD13F0C63";
name = "Bold Italic";
paths = (
{
closed = 1;
nodes = (
"121 0 LINE",
"52 522 LINE",
"172 522 LINE",
"195 308 LINE",
"212 110 LINE",
"218 110 LINE",
"308 308 LINE",
"414 522 LINE",
"544 522 LINE",
"268 0 LINE"
);
}
);
width = 504;
}
);
leftKerningGroup = v;
rightKerningGroup = v;
unicode = 0076;
},
{
glyphname = w;
layers = (
{
layerId = "91171461-3A9C-47E5-8F32-6F9DD13F0C63";
name = "Bold Italic";
paths = (
{
closed = 1;
nodes = (
"61 522 LINE",
"181 522 LINE",
"188 314 LINE",
"192 132 LINE",
"198 132 LINE",
"267 290 LINE",
"374 522 LINE",
"488 522 LINE",
"504 312 LINE",
"515 129 LINE",
"521 129 LINE",
"587 292 LINE",
"685 522 LINE",
"805 522 LINE",
"566 0 LINE",
"435 0 LINE",
"417 206 LINE",
"405 367 LINE",
"400 367 LINE",
"335 222 LINE",
"231 0 LINE",
"97 0 LINE"
);
}
);
width = 776;
}
);
leftKerningGroup = w;
rightKerningGroup = w;
unicode = 0077;
},
{
glyphname = x;
layers = (
{
layerId = "91171461-3A9C-47E5-8F32-6F9DD13F0C63";
name = "Bold Italic";
paths = (
{
closed = 1;
nodes = (
"-44 0 LINE",
"186 272 LINE",
"70 522 LINE",
"201 522 LINE",
"272 341 LINE",
"278 341 LINE",
"419 522 LINE",
"553 522 LINE",
"325 255 LINE",
"446 0 LINE",
"315 0 LINE",
"240 183 LINE",
"234 183 LINE",
"90 0 LINE"
);
}
);
width = 511;
}
);
leftKerningGroup = x;
rightKerningGroup = x;
unicode = 0078;
},
{
glyphname = y;
layers = (
{
layerId = "91171461-3A9C-47E5-8F32-6F9DD13F0C63";
name = "Bold Italic";
paths = (
{
closed = 1;
nodes = (
"417 522 LINE",
"546 522 LINE",
"216 -94 LINE SMOOTH",
"197 -130 OFFCURVE",
"177 -157 OFFCURVE",
"152 -174 CURVE SMOOTH",
"127 -191 OFFCURVE",
"95 -200 OFFCURVE",
"52 -200 CURVE SMOOTH",
"-26 -200 LINE",
"-7 -101 LINE",
"89 -101 LINE",
"128 -26 LINE",
"52 522 LINE",
"172 522 LINE",
"197 308 LINE",
"215 114 LINE",
"220 114 LINE",
"310 308 LINE"
);
}
);
width = 502;
}
);
leftKerningGroup = y;
rightKerningGroup = y;
unicode = 0079;
},
{
glyphname = z;
layers = (
{
layerId = "91171461-3A9C-47E5-8F32-6F9DD13F0C63";
name = "Bold Italic";
paths = (
{
closed = 1;
nodes = (
"-9 0 LINE",
"10 99 LINE",
"325 423 LINE",
"78 423 LINE",
"97 522 LINE",
"492 522 LINE",
"472 424 LINE",
"155 99 LINE",
"420 99 LINE",
"400 0 LINE"
);
}
);
width = 479;
}
);
leftKerningGroup = z;
rightKerningGroup = z;
unicode = 007A;
},
{
glyphname = A;
layers = (
{
layerId = "91171461-3A9C-47E5-8F32-6F9DD13F0C63";
name = "Bold Italic";
paths = (
{
closed = 1;
nodes = (
"448 0 LINE",
"429 180 LINE",
"192 180 LINE",
"103 0 LINE",
"-32 0 LINE",
"331 698 LINE",
"493 698 LINE",
"576 0 LINE"
);
},
{
closed = 1;
nodes = (
"392 583 LINE",
"385 583 LINE",
"243 287 LINE",
"420 287 LINE"
);
}
);
width = 648;
}
);
leftKerningGroup = A;
rightKerningGroup = A;
unicode = 0041;
},
{
glyphname = B;
layers = (
{
layerId = "91171461-3A9C-47E5-8F32-6F9DD13F0C63";
name = "Bold Italic";
paths = (
{
closed = 1;
nodes = (
"167 698 LINE",
"453 698 LINE SMOOTH",
"557 698 OFFCURVE",
"625 649 OFFCURVE",
"625 553 CURVE SMOOTH",
"625 464 OFFCURVE",
"579 388 OFFCURVE",
"487 364 CURVE",
"486 359 LINE",
"557 340 OFFCURVE",
"589 295 OFFCURVE",
"589 227 CURVE SMOOTH",
"589 160 OFFCURVE",
"567 104 OFFCURVE",
"527 64 CURVE SMOOTH",
"487 24 OFFCURVE",
"428 0 OFFCURVE",
"352 0 CURVE SMOOTH",
"27 0 LINE"
);
},
{
closed = 1;
nodes = (
"352 109 LINE SMOOTH",
"404 109 OFFCURVE",
"439 134 OFFCURVE",
"450 187 CURVE SMOOTH",
"453 204 OFFCURVE",
"456 217 OFFCURVE",
"457 226 CURVE SMOOTH",
"458 234 OFFCURVE",
"459 240 OFFCURVE",
"459 245 CURVE SMOOTH",
"459 280 OFFCURVE",
"437 301 OFFCURVE",
"390 301 CURVE SMOOTH",
"214 301 LINE",
"176 109 LINE"
);
},
{
closed = 1;
nodes = (
"384 405 LINE SMOOTH",
"439 405 OFFCURVE",
"473 426 OFFCURVE",
"484 479 CURVE SMOOTH",
"487 495 OFFCURVE",
"490 507 OFFCURVE",
"491 515 CURVE SMOOTH",
"492 523 OFFCURVE",
"492 529 OFFCURVE",
"492 534 CURVE SMOOTH",
"492 567 OFFCURVE",
"471 589 OFFCURVE",
"428 589 CURVE SMOOTH",
"272 589 LINE",
"235 405 LINE"
);
}
);
width = 644;
}
);
unicode = 0042;
},
{
glyphname = C;
layers = (
{
layerId = "91171461-3A9C-47E5-8F32-6F9DD13F0C63";
name = "Bold Italic";
paths = (
{
closed = 1;
nodes = (
"229 -12 OFFCURVE",
"168 12 OFFCURVE",
"125 60 CURVE SMOOTH",
"81 107 OFFCURVE",
"56 178 OFFCURVE",
"56 270 CURVE SMOOTH",
"56 393 OFFCURVE",
"93 502 OFFCURVE",
"156 582 CURVE SMOOTH",
"219 661 OFFCURVE",
"307 710 OFFCURVE",
"408 710 CURVE SMOOTH",
"529 710 OFFCURVE",
"607 651 OFFCURVE",
"640 543 CURVE",
"528 495 LINE",
"509 556 OFFCURVE",
"475 597 OFFCURVE",
"398 597 CURVE SMOOTH",
"301 597 OFFCURVE",
"235 525 OFFCURVE",
"212 412 CURVE SMOOTH",
"189 301 LINE SMOOTH",
"184 278 OFFCURVE",
"183 261 OFFCURVE",
"183 246 CURVE SMOOTH",
"183 154 OFFCURVE",
"228 101 OFFCURVE",
"312 101 CURVE SMOOTH",
"395 101 OFFCURVE",
"441 145 OFFCURVE",
"477 212 CURVE",
"582 163 LINE",
"519 43 OFFCURVE",
"424 -12 OFFCURVE",
"301 -12 CURVE SMOOTH"
);
}
);
width = 625;
}
);
leftKerningGroup = C;
rightKerningGroup = C;
unicode = 0043;
},
{
glyphname = D;
layers = (
{
layerId = "91171461-3A9C-47E5-8F32-6F9DD13F0C63";
name = "Bold Italic";
paths = (
{
closed = 1;
nodes = (
"167 698 LINE",
"385 698 LINE SMOOTH",
"546 698 OFFCURVE",
"645 609 OFFCURVE",
"645 434 CURVE SMOOTH",
"645 315 OFFCURVE",
"612 207 OFFCURVE",
"552 128 CURVE SMOOTH",
"491 49 OFFCURVE",
"400 0 OFFCURVE",
"284 0 CURVE SMOOTH",
"27 0 LINE"
);
},
{
closed = 1;
nodes = (
"293 112 LINE SMOOTH",
"393 112 OFFCURVE",
"466 173 OFFCURVE",
"490 294 CURVE SMOOTH",
"510 391 LINE SMOOTH",
"514 414 OFFCURVE",
"516 438 OFFCURVE",
"516 453 CURVE SMOOTH",
"516 545 OFFCURVE",
"467 586 OFFCURVE",
"391 586 CURVE SMOOTH",
"271 586 LINE",
"176 112 LINE"
);
}
);
width = 673;
}
);
rightKerningGroup = D;
unicode = 0044;
},
{
glyphname = E;
layers = (
{
layerId = "91171461-3A9C-47E5-8F32-6F9DD13F0C63";
name = "Bold Italic";
paths = (
{
closed = 1;
nodes = (
"27 0 LINE",
"167 698 LINE",
"605 698 LINE",
"582 586 LINE",
"271 586 LINE",
"235 407 LINE",
"511 407 LINE",
"489 295 LINE",
"213 295 LINE",
"176 112 LINE",
"499 112 LINE",
"477 0 LINE"
);
}
);
width = 574;
}
);
rightKerningGroup = E;
unicode = 0045;
},
{
glyphname = F;
layers = (
{
layerId = "91171461-3A9C-47E5-8F32-6F9DD13F0C63";
name = "Bold Italic";
paths = (
{
closed = 1;
nodes = (
"27 0 LINE",
"167 698 LINE",
"593 698 LINE",
"570 586 LINE",
"271 586 LINE",
"235 407 LINE",
"502 407 LINE",
"479 295 LINE",
"213 295 LINE",
"153 0 LINE"
);
}
);
width = 552;
}
);
rightKerningGroup = F;
unicode = 0046;
},
{
glyphname = G;
layers = (
{
layerId = "91171461-3A9C-47E5-8F32-6F9DD13F0C63";
name = "Bold Italic";
paths = (
{
closed = 1;
nodes = (
"483 108 LINE",
"476 108 LINE",
"459 75 OFFCURVE",
"435 46 OFFCURVE",
"403 24 CURVE SMOOTH",
"371 2 OFFCURVE",
"330 -12 OFFCURVE",
"282 -12 CURVE SMOOTH",
"215 -12 OFFCURVE",
"159 11 OFFCURVE",
"119 59 CURVE SMOOTH",
"79 106 OFFCURVE",
"56 175 OFFCURVE",
"56 267 CURVE SMOOTH",
"56 391 OFFCURVE",
"91 501 OFFCURVE",
"155 581 CURVE SMOOTH",
"218 661 OFFCURVE",
"308 710 OFFCURVE",
"419 710 CURVE SMOOTH",
"542 710 OFFCURVE",
"635 651 OFFCURVE",
"666 547 CURVE",
"559 492 LINE",
"540 560 OFFCURVE",
"487 597 OFFCURVE",
"410 597 CURVE SMOOTH",
"299 597 OFFCURVE",
"234 526 OFFCURVE",
"211 410 CURVE SMOOTH",
"190 302 LINE SMOOTH",
"186 282 OFFCURVE",
"184 263 OFFCURVE",
"184 245 CURVE SMOOTH",
"184 148 OFFCURVE",
"238 101 OFFCURVE",
"314 101 CURVE SMOOTH",
"358 101 OFFCURVE",
"399 114 OFFCURVE",
"431 137 CURVE SMOOTH",
"462 160 OFFCURVE",
"485 192 OFFCURVE",
"493 231 CURVE SMOOTH",
"501 271 LINE",
"368 271 LINE",
"389 378 LINE",
"643 378 LINE",
"567 0 LINE",
"461 0 LINE"
);
}
);
width = 689;
}
);
leftKerningGroup = C;
rightKerningGroup = G;
unicode = 0047;
},
{
glyphname = H;
layers = (
{
layerId = "91171461-3A9C-47E5-8F32-6F9DD13F0C63";
name = "Bold Italic";
paths = (
{
closed = 1;
nodes = (
"496 295 LINE",
"213 295 LINE",
"153 0 LINE",
"27 0 LINE",
"167 698 LINE",
"293 698 LINE",
"235 407 LINE",
"519 407 LINE",
"577 698 LINE",
"703 698 LINE",
"563 0 LINE",
"437 0 LINE"
);
}
);
width = 695;
}
);
unicode = 0048;
},
{
glyphname = I;
lastChange = "2018-11-04 04:52:46 +0000";
layers = (
{
layerId = "91171461-3A9C-47E5-8F32-6F9DD13F0C63";
name = "Bold Italic";
paths = (
{
closed = 1;
nodes = (
"167 698 LINE",
"293 698 LINE",
"153 0 LINE",
"27 0 LINE"
);
}
);
width = 285;
}
);
leftKerningGroup = I;
rightKerningGroup = I;
unicode = 0049;
},
{
glyphname = J;
lastChange = "2018-11-03 21:56:36 +0000";
layers = (
{
layerId = "91171461-3A9C-47E5-8F32-6F9DD13F0C63";
name = "Bold Italic";
paths = (
{
closed = 1;
nodes = (
"307 202 LINE SMOOTH",
"292 130 OFFCURVE",
"254 100 OFFCURVE",
"203 100 CURVE SMOOTH",
"148 100 OFFCURVE",
"128 139 OFFCURVE",
"124 196 CURVE",
"4 172 LINE",
"8 119 OFFCURVE",
"27 73 OFFCURVE",
"60 41 CURVE SMOOTH",
"92 8 OFFCURVE",
"139 -12 OFFCURVE",
"202 -12 CURVE SMOOTH",
"330 -12 OFFCURVE",
"406 64 OFFCURVE",
"431 188 CURVE SMOOTH",
"533 698 LINE",
"406 698 LINE"
);
}
);
width = 524;
}
);
leftKerningGroup = J;
rightKerningGroup = J;
unicode = 004A;
},
{
glyphname = K;
layers = (
{
layerId = "91171461-3A9C-47E5-8F32-6F9DD13F0C63";
name = "Bold Italic";
paths = (
{
closed = 1;
nodes = (
"311 312 LINE",
"192 194 LINE",
"153 0 LINE",
"27 0 LINE",
"167 698 LINE",
"294 698 LINE",
"225 357 LINE",
"232 357 LINE",
"344 484 LINE",
"550 698 LINE",
"705 698 LINE",
"409 397 LINE",
"582 0 LINE",
"443 0 LINE"
);
}
);
width = 645;
}
);
rightKerningGroup = K;
unicode = 004B;
},
{
glyphname = L;
lastChange = "2018-11-04 04:52:17 +0000";
layers = (
{
layerId = "91171461-3A9C-47E5-8F32-6F9DD13F0C63";
name = "Bold Italic";
paths = (
{
closed = 1;
nodes = (
"27 0 LINE",
"167 698 LINE",
"294 698 LINE",
"176 112 LINE",
"441 112 LINE",
"419 0 LINE"
);
}
);
width = 504;
}
);
rightKerningGroup = L;
unicode = 004C;
},
{
glyphname = M;
layers = (
{
layerId = "91171461-3A9C-47E5-8F32-6F9DD13F0C63";
name = "Bold Italic";
paths = (
{
closed = 1;
nodes = (
"643 498 LINE",
"637 498 LINE",
"546 369 LINE",
"373 130 LINE",
"291 379 LINE",
"253 499 LINE",
"248 499 LINE",
"148 0 LINE",
"27 0 LINE",
"167 698 LINE",
"305 698 LINE",
"411 352 LINE",
"415 352 LINE",
"657 698 LINE",
"804 698 LINE",
"664 0 LINE",
"543 0 LINE"
);
}
);
width = 796;
}
);
unicode = 004D;
},
{
glyphname = N;
layers = (
{
layerId = "91171461-3A9C-47E5-8F32-6F9DD13F0C63";
name = "Bold Italic";
paths = (
{
closed = 1;
nodes = (
"300 361 LINE",
"254 508 LINE",
"248 508 LINE",
"147 0 LINE",
"27 0 LINE",
"167 698 LINE",
"305 698 LINE",
"430 337 LINE",
"476 190 LINE",
"482 190 LINE",
"583 698 LINE",
"703 698 LINE",
"563 0 LINE",
"425 0 LINE"
);
}
);
width = 695;
}
);
unicode = 004E;
},
{
glyphname = O;
layers = (
{
layerId = "91171461-3A9C-47E5-8F32-6F9DD13F0C63";
name = "Bold Italic";
paths = (
{
closed = 1;
nodes = (
"237 -12 OFFCURVE",
"175 10 OFFCURVE",
"130 56 CURVE SMOOTH",
"85 102 OFFCURVE",
"56 172 OFFCURVE",
"56 268 CURVE SMOOTH",
"56 387 OFFCURVE",
"92 498 OFFCURVE",
"155 579 CURVE SMOOTH",
"218 659 OFFCURVE",
"307 710 OFFCURVE",
"414 710 CURVE SMOOTH",
"482 710 OFFCURVE",
"545 688 OFFCURVE",
"590 642 CURVE SMOOTH",
"635 596 OFFCURVE",
"664 526 OFFCURVE",
"664 430 CURVE SMOOTH",
"664 311 OFFCURVE",
"628 200 OFFCURVE",
"565 120 CURVE SMOOTH",
"501 39 OFFCURVE",
"412 -12 OFFCURVE",
"305 -12 CURVE SMOOTH"
);
},
{
closed = 1;
nodes = (
"419 101 OFFCURVE",
"484 170 OFFCURVE",
"509 293 CURVE SMOOTH",
"531 398 LINE SMOOTH",
"535 421 OFFCURVE",
"536 440 OFFCURVE",
"536 456 CURVE SMOOTH",
"536 547 OFFCURVE",
"492 597 OFFCURVE",
"405 597 CURVE SMOOTH",
"304 597 OFFCURVE",
"235 527 OFFCURVE",
"211 404 CURVE SMOOTH",
"190 300 LINE SMOOTH",
"185 277 OFFCURVE",
"184 258 OFFCURVE",
"184 242 CURVE SMOOTH",
"184 151 OFFCURVE",
"230 101 OFFCURVE",
"315 101 CURVE SMOOTH"
);
}
);
width = 691;
}
);
leftKerningGroup = C;
rightKerningGroup = O;
unicode = 004F;
},
{
glyphname = P;
layers = (
{
layerId = "91171461-3A9C-47E5-8F32-6F9DD13F0C63";
name = "Bold Italic";
paths = (
{
closed = 1;
nodes = (
"27 0 LINE",
"167 698 LINE",
"426 698 LINE SMOOTH",
"561 698 OFFCURVE",
"632 629 OFFCURVE",
"632 517 CURVE SMOOTH",
"632 444 OFFCURVE",
"606 381 OFFCURVE",
"560 337 CURVE SMOOTH",
"514 293 OFFCURVE",
"449 267 OFFCURVE",
"372 267 CURVE SMOOTH",
"207 267 LINE",
"153 0 LINE"
);
},
{
closed = 1;
nodes = (
"230 379 LINE",
"389 379 LINE SMOOTH",
"440 379 OFFCURVE",
"478 405 OFFCURVE",
"490 461 CURVE",
"493 478 OFFCURVE",
"496 491 OFFCURVE",
"499 501 CURVE",
"501 511 OFFCURVE",
"502 519 OFFCURVE",
"502 525 CURVE SMOOTH",
"502 560 OFFCURVE",
"480 586 OFFCURVE",
"428 586 CURVE SMOOTH",
"271 586 LINE"
);
}
);
width = 623;
}
);
rightKerningGroup = P;
unicode = 0050;
},
{
glyphname = Q;
layers = (
{
layerId = "91171461-3A9C-47E5-8F32-6F9DD13F0C63";
name = "Bold Italic";
paths = (
{
closed = 1;
nodes = (
"426 -178 LINE",
"322 -178 LINE SMOOTH",
"250 -178 OFFCURVE",
"224 -147 OFFCURVE",
"224 -96 CURVE SMOOTH",
"224 -89 OFFCURVE",
"225 -81 OFFCURVE",
"226 -74 CURVE SMOOTH",
"227 -67 OFFCURVE",
"229 -59 OFFCURVE",
"230 -51 CURVE",
"240 -4 LINE",
"188 8 OFFCURVE",
"142 36 OFFCURVE",
"109 81 CURVE SMOOTH",
"76 126 OFFCURVE",
"56 188 OFFCURVE",
"56 268 CURVE SMOOTH",
"56 387 OFFCURVE",
"92 498 OFFCURVE",
"155 579 CURVE SMOOTH",
"218 659 OFFCURVE",
"307 710 OFFCURVE",
"414 710 CURVE SMOOTH",
"482 710 OFFCURVE",
"545 688 OFFCURVE",
"590 642 CURVE SMOOTH",
"635 596 OFFCURVE",
"664 526 OFFCURVE",
"664 430 CURVE SMOOTH",
"664 319 OFFCURVE",
"633 217 OFFCURVE",
"578 138 CURVE SMOOTH",
"522 59 OFFCURVE",
"443 4 OFFCURVE",
"350 -9 CURVE",
"338 -73 LINE",
"446 -73 LINE"
);
},
{
closed = 1;
nodes = (
"419 101 OFFCURVE",
"484 170 OFFCURVE",
"509 293 CURVE SMOOTH",
"531 398 LINE SMOOTH",
"535 421 OFFCURVE",
"536 440 OFFCURVE",
"536 456 CURVE SMOOTH",
"536 547 OFFCURVE",
"492 597 OFFCURVE",
"405 597 CURVE SMOOTH",
"304 597 OFFCURVE",
"235 527 OFFCURVE",
"211 404 CURVE SMOOTH",
"190 300 LINE SMOOTH",
"185 277 OFFCURVE",
"184 258 OFFCURVE",
"184 242 CURVE SMOOTH",
"184 151 OFFCURVE",
"230 101 OFFCURVE",
"315 101 CURVE SMOOTH"
);
}
);
width = 691;
}
);
leftKerningGroup = C;
rightKerningGroup = O;
unicode = 0051;
},
{
glyphname = R;
layers = (
{
layerId = "91171461-3A9C-47E5-8F32-6F9DD13F0C63";
name = "Bold Italic";
paths = (
{
closed = 1;
nodes = (
"153 0 LINE",
"27 0 LINE",
"167 698 LINE",
"432 698 LINE SMOOTH",
"563 698 OFFCURVE",
"632 630 OFFCURVE",
"632 522 CURVE SMOOTH",
"632 469 OFFCURVE",
"617 419 OFFCURVE",
"587 377 CURVE SMOOTH",
"557 335 OFFCURVE",
"514 302 OFFCURVE",
"458 286 CURVE",
"547 0 LINE",
"412 0 LINE",
"335 271 LINE",
"208 271 LINE"
);
},
{
closed = 1;
nodes = (
"389 379 LINE SMOOTH",
"440 379 OFFCURVE",
"478 405 OFFCURVE",
"490 461 CURVE",
"493 478 OFFCURVE",
"496 491 OFFCURVE",
"499 501 CURVE",
"501 511 OFFCURVE",
"502 519 OFFCURVE",
"502 525 CURVE SMOOTH",
"502 560 OFFCURVE",
"480 586 OFFCURVE",
"428 586 CURVE SMOOTH",
"271 586 LINE",
"230 379 LINE"
);
}
);
width = 646;
}
);
rightKerningGroup = R;
unicode = 0052;
},
{
glyphname = S;
layers = (
{
layerId = "91171461-3A9C-47E5-8F32-6F9DD13F0C63";
name = "Bold Italic";
paths = (
{
closed = 1;
nodes = (
"140 -12 OFFCURVE",
"49 22 OFFCURVE",
"0 113 CURVE",
"96 187 LINE",
"132 127 OFFCURVE",
"181 101 OFFCURVE",
"253 101 CURVE SMOOTH",
"349 101 OFFCURVE",
"400 150 OFFCURVE",
"400 215 CURVE SMOOTH",
"400 262 OFFCURVE",
"366 287 OFFCURVE",
"313 298 CURVE SMOOTH",
"260 309 LINE SMOOTH",
"160 330 OFFCURVE",
"98 384 OFFCURVE",
"98 491 CURVE SMOOTH",
"98 552 OFFCURVE",
"124 607 OFFCURVE",
"169 647 CURVE SMOOTH",
"213 686 OFFCURVE",
"278 710 OFFCURVE",
"358 710 CURVE SMOOTH",
"463 710 OFFCURVE",
"546 674 OFFCURVE",
"593 610 CURVE",
"502 529 LINE",
"467 576 OFFCURVE",
"426 597 OFFCURVE",
"353 597 CURVE SMOOTH",
"273 597 OFFCURVE",
"225 561 OFFCURVE",
"225 502 CURVE SMOOTH",
"225 455 OFFCURVE",
"253 433 OFFCURVE",
"309 421 CURVE SMOOTH",
"359 411 LINE SMOOTH",
"464 388 OFFCURVE",
"530 332 OFFCURVE",
"530 227 CURVE SMOOTH",
"530 167 OFFCURVE",
"505 107 OFFCURVE",
"458 63 CURVE SMOOTH",
"410 18 OFFCURVE",
"341 -12 OFFCURVE",
"253 -12 CURVE SMOOTH"
);
}
);
width = 583;
}
);
leftKerningGroup = S;
rightKerningGroup = S;
unicode = 0053;
},
{
glyphname = T;
layers = (
{
layerId = "91171461-3A9C-47E5-8F32-6F9DD13F0C63";
name = "Bold Italic";
paths = (
{
closed = 1;
nodes = (
"410 586 LINE",
"293 0 LINE",
"167 0 LINE",
"284 586 LINE",
"92 586 LINE",
"114 698 LINE",
"624 698 LINE",
"602 586 LINE"
);
}
);
width = 565;
}
);
leftKerningGroup = T;
rightKerningGroup = T;
unicode = 0054;
},
{
glyphname = U;
layers = (
{
layerId = "91171461-3A9C-47E5-8F32-6F9DD13F0C63";
name = "Bold Italic";
paths = (
{
closed = 1;
nodes = (
"289 698 LINE",
"206 279 LINE SMOOTH",
"201 256 OFFCURVE",
"198 234 OFFCURVE",
"198 213 CURVE SMOOTH",
"198 141 OFFCURVE",
"236 104 OFFCURVE",
"307 104 CURVE SMOOTH",
"396 104 OFFCURVE",
"446 154 OFFCURVE",
"470 274 CURVE SMOOTH",
"555 698 LINE",
"680 698 LINE",
"596 276 LINE SMOOTH",
"576 175 OFFCURVE",
"544 103 OFFCURVE",
"497 56 CURVE SMOOTH",
"449 9 OFFCURVE",
"385 -12 OFFCURVE",
"300 -12 CURVE SMOOTH",
"155 -12 OFFCURVE",
"75 63 OFFCURVE",
"75 207 CURVE SMOOTH",
"75 234 OFFCURVE",
"77 264 OFFCURVE",
"85 300 CURVE SMOOTH",
"164 698 LINE"
);
}
);
width = 671;
}
);
leftKerningGroup = U;
rightKerningGroup = U;
unicode = 0055;
},
{
glyphname = V;
layers = (
{
layerId = "91171461-3A9C-47E5-8F32-6F9DD13F0C63";
name = "Bold Italic";
paths = (
{
closed = 1;
nodes = (
"185 0 LINE",
"103 698 LINE",
"230 698 LINE",
"258 405 LINE",
"279 133 LINE",
"285 133 LINE",
"403 388 LINE",
"558 698 LINE",
"692 698 LINE",
"330 0 LINE"
);
}
);
width = 620;
}
);
leftKerningGroup = V;
rightKerningGroup = V;
unicode = 0056;
},
{
glyphname = W;
layers = (
{
layerId = "91171461-3A9C-47E5-8F32-6F9DD13F0C63";
name = "Bold Italic";
paths = (
{
closed = 1;
nodes = (
"131 0 LINE",
"112 698 LINE",
"237 698 LINE",
"237 397 LINE",
"231 131 LINE",
"239 131 LINE",
"348 406 LINE",
"474 698 LINE",
"614 698 LINE",
"624 412 LINE",
"623 125 LINE",
"631 125 LINE",
"724 374 LINE",
"851 698 LINE",
"979 698 LINE",
"681 0 LINE",
"535 0 LINE",
"524 314 LINE",
"521 557 LINE",
"514 557 LINE",
"419 327 LINE",
"279 0 LINE"
);
}
);
width = 918;
}
);
leftKerningGroup = W;
rightKerningGroup = W;
unicode = 0057;
},
{
glyphname = X;
layers = (
{
layerId = "91171461-3A9C-47E5-8F32-6F9DD13F0C63";
name = "Bold Italic";
paths = (
{
closed = 1;
nodes = (
"553 0 LINE",
"417 0 LINE",
"312 256 LINE",
"305 256 LINE",
"111 0 LINE",
"-35 0 LINE",
"254 366 LINE",
"109 698 LINE",
"244 698 LINE",
"346 451 LINE",
"353 451 LINE",
"545 698 LINE",
"691 698 LINE",
"402 346 LINE"
);
}
);
width = 628;
}
);
leftKerningGroup = X;
rightKerningGroup = X;
unicode = 0058;
},
{
glyphname = Y;
layers = (
{
layerId = "91171461-3A9C-47E5-8F32-6F9DD13F0C63";
name = "Bold Italic";
paths = (
{
closed = 1;
nodes = (
"188 0 LINE",
"243 272 LINE",
"95 698 LINE",
"224 698 LINE",
"324 390 LINE",
"330 390 LINE",
"546 698 LINE",
"686 698 LINE",
"367 263 LINE",
"314 0 LINE"
);
}
);
width = 610;
}
);
leftKerningGroup = Y;
rightKerningGroup = Y;
unicode = 0059;
},
{
glyphname = Z;
layers = (
{
layerId = "91171461-3A9C-47E5-8F32-6F9DD13F0C63";
name = "Bold Italic";
paths = (
{
closed = 1;
nodes = (
"482 0 LINE",
"-12 0 LINE",
"11 113 LINE",
"444 586 LINE",
"119 586 LINE",
"141 698 LINE",
"617 698 LINE",
"594 585 LINE",
"160 112 LINE",
"504 112 LINE"
);
}
);
width = 569;
}
);
leftKerningGroup = Z;
rightKerningGroup = Z;
unicode = 005A;
},
{
glyphname = zero;
layers = (
{
layerId = "91171461-3A9C-47E5-8F32-6F9DD13F0C63";
name = "Bold Italic";
paths = (
{
closed = 1;
nodes = (
"180 -12 OFFCURVE",
"128 20 OFFCURVE",
"96 67 CURVE SMOOTH",
"64 114 OFFCURVE",
"53 176 OFFCURVE",
"53 239 CURVE SMOOTH",
"53 355 OFFCURVE",
"80 472 OFFCURVE",
"133 561 CURVE SMOOTH",
"185 650 OFFCURVE",
"264 710 OFFCURVE",
"367 710 CURVE SMOOTH",
"447 710 OFFCURVE",
"499 678 OFFCURVE",
"531 631 CURVE SMOOTH",
"563 584 OFFCURVE",
"574 520 OFFCURVE",
"574 459 CURVE SMOOTH",
"574 343 OFFCURVE",
"547 226 OFFCURVE",
"494 137 CURVE SMOOTH",
"441 48 OFFCURVE",
"363 -12 OFFCURVE",
"260 -12 CURVE SMOOTH"
);
},
{
closed = 1;
nodes = (
"313 93 OFFCURVE",
"345 112 OFFCURVE",
"368 147 CURVE SMOOTH",
"391 182 OFFCURVE",
"406 229 OFFCURVE",
"418 288 CURVE SMOOTH",
"442 406 LINE",
"449 434 OFFCURVE",
"450 459 OFFCURVE",
"450 484 CURVE SMOOTH",
"450 560 OFFCURVE",
"423 605 OFFCURVE",
"355 605 CURVE SMOOTH",
"312 605 OFFCURVE",
"282 586 OFFCURVE",
"259 551 CURVE SMOOTH",
"236 516 OFFCURVE",
"221 467 OFFCURVE",
"209 410 CURVE SMOOTH",
"185 292 LINE",
"178 264 OFFCURVE",
"177 239 OFFCURVE",
"177 214 CURVE SMOOTH",
"177 138 OFFCURVE",
"204 93 OFFCURVE",
"272 93 CURVE SMOOTH"
);
}
);
width = 600;
}
);
unicode = 0030;
},
{
glyphname = one;
lastChange = "2018-11-05 12:59:22 +0000";
layers = (
{
layerId = "91171461-3A9C-47E5-8F32-6F9DD13F0C63";
name = "Bold Italic";
paths = (
{
closed = 1;
nodes = (
"125 613 LINE",
"100 487 LINE",
"268 576 LINE",
"152 0 LINE",
"276 0 LINE",
"416 698 LINE",
"281 698 LINE"
);
}
);
width = 450;
}
);
unicode = 0031;
},
{
glyphname = two;
layers = (
{
layerId = "91171461-3A9C-47E5-8F32-6F9DD13F0C63";
name = "Bold Italic";
paths = (
{
closed = 1;
nodes = (
"483 0 LINE",
"19 0 LINE",
"43 121 LINE",
"296 313 LINE SMOOTH",
"383 377 OFFCURVE",
"417 430 OFFCURVE",
"428 481 CURVE SMOOTH",
"430 491 OFFCURVE",
"431 502 OFFCURVE",
"431 514 CURVE SMOOTH",
"431 561 OFFCURVE",
"402 600 OFFCURVE",
"343 600 CURVE SMOOTH",
"278 600 OFFCURVE",
"237 554 OFFCURVE",
"212 494 CURVE",
"105 538 LINE",
"128 587 OFFCURVE",
"158 632 OFFCURVE",
"199 662 CURVE SMOOTH",
"239 692 OFFCURVE",
"290 710 OFFCURVE",
"354 710 CURVE SMOOTH",
"419 710 OFFCURVE",
"472 690 OFFCURVE",
"509 658 CURVE SMOOTH",
"545 625 OFFCURVE",
"565 578 OFFCURVE",
"565 523 CURVE SMOOTH",
"565 463 OFFCURVE",
"545 415 OFFCURVE",
"509 369 CURVE SMOOTH",
"473 323 OFFCURVE",
"420 281 OFFCURVE",
"356 233 CURVE SMOOTH",
"185 107 LINE",
"504 107 LINE"
);
}
);
width = 600;
}
);
unicode = 0032;
},
{
glyphname = three;
layers = (
{
layerId = "91171461-3A9C-47E5-8F32-6F9DD13F0C63";
name = "Bold Italic";
paths = (
{
closed = 1;
nodes = (
"298 415 LINE SMOOTH",
"373 415 OFFCURVE",
"414 446 OFFCURVE",
"425 501 CURVE SMOOTH",
"427 511 OFFCURVE",
"428 520 OFFCURVE",
"428 528 CURVE SMOOTH",
"428 576 OFFCURVE",
"394 604 OFFCURVE",
"338 604 CURVE SMOOTH",
"281 604 OFFCURVE",
"235 581 OFFCURVE",
"194 521 CURVE",
"121 599 LINE",
"149 631 OFFCURVE",
"181 659 OFFCURVE",
"219 679 CURVE SMOOTH",
"257 699 OFFCURVE",
"302 710 OFFCURVE",
"358 710 CURVE SMOOTH",
"419 710 OFFCURVE",
"471 694 OFFCURVE",
"507 666 CURVE SMOOTH",
"543 637 OFFCURVE",
"563 597 OFFCURVE",
"563 549 CURVE SMOOTH",
"563 453 OFFCURVE",
"498 389 OFFCURVE",
"402 368 CURVE",
"401 363 LINE",
"470 350 OFFCURVE",
"513 297 OFFCURVE",
"513 217 CURVE SMOOTH",
"513 150 OFFCURVE",
"489 94 OFFCURVE",
"443 53 CURVE SMOOTH",
"397 12 OFFCURVE",
"330 -12 OFFCURVE",
"245 -12 CURVE SMOOTH",
"181 -12 OFFCURVE",
"132 3 OFFCURVE",
"96 27 CURVE SMOOTH",
"60 51 OFFCURVE",
"36 83 OFFCURVE",
"23 118 CURVE",
"116 184 LINE",
"137 129 OFFCURVE",
"174 93 OFFCURVE",
"253 93 CURVE SMOOTH",
"329 93 OFFCURVE",
"369 130 OFFCURVE",
"381 194 CURVE SMOOTH",
"383 204 OFFCURVE",
"384 214 OFFCURVE",
"384 223 CURVE SMOOTH",
"384 275 OFFCURVE",
"349 308 OFFCURVE",
"282 308 CURVE SMOOTH",
"210 308 LINE",
"231 415 LINE"
);
}
);
width = 600;
}
);
unicode = 0033;
},
{
glyphname = four;
layers = (
{
layerId = "91171461-3A9C-47E5-8F32-6F9DD13F0C63";
name = "Bold Italic";
paths = (
{
closed = 1;
nodes = (
"298 0 LINE",
"325 135 LINE",
"17 135 LINE",
"40 248 LINE",
"401 698 LINE",
"556 698 LINE",
"463 235 LINE",
"552 235 LINE",
"532 135 LINE",
"443 135 LINE",
"416 0 LINE"
);
},
{
closed = 1;
nodes = (
"144 235 LINE",
"345 235 LINE",
"410 557 LINE",
"401 557 LINE"
);
}
);
width = 600;
}
);
unicode = 0034;
},
{
glyphname = five;
layers = (
{
layerId = "91171461-3A9C-47E5-8F32-6F9DD13F0C63";
name = "Bold Italic";
paths = (
{
closed = 1;
nodes = (
"562 587 LINE",
"259 587 LINE",
"198 348 LINE",
"207 348 LINE",
"244 415 OFFCURVE",
"284 449 OFFCURVE",
"364 449 CURVE SMOOTH",
"468 449 OFFCURVE",
"538 381 OFFCURVE",
"538 260 CURVE SMOOTH",
"538 189 OFFCURVE",
"513 122 OFFCURVE",
"465 71 CURVE SMOOTH",
"417 20 OFFCURVE",
"347 -12 OFFCURVE",
"258 -12 CURVE SMOOTH",
"190 -12 OFFCURVE",
"140 4 OFFCURVE",
"104 28 CURVE SMOOTH",
"68 52 OFFCURVE",
"45 84 OFFCURVE",
"32 119 CURVE",
"133 185 LINE",
"152 132 OFFCURVE",
"190 94 OFFCURVE",
"265 94 CURVE SMOOTH",
"341 94 OFFCURVE",
"384 139 OFFCURVE",
"399 211 CURVE SMOOTH",
"402 226 OFFCURVE",
"404 239 OFFCURVE",
"404 254 CURVE SMOOTH",
"404 311 OFFCURVE",
"371 345 OFFCURVE",
"307 345 CURVE SMOOTH",
"252 345 OFFCURVE",
"216 319 OFFCURVE",
"188 290 CURVE",
"89 304 LINE",
"189 698 LINE",
"584 698 LINE"
);
}
);
width = 600;
}
);
unicode = 0035;
},
{
glyphname = six;
layers = (
{
layerId = "91171461-3A9C-47E5-8F32-6F9DD13F0C63";
name = "Bold Italic";
paths = (
{
closed = 1;
nodes = (
"128 -12 OFFCURVE",
"52 74 OFFCURVE",
"52 217 CURVE SMOOTH",
"52 318 OFFCURVE",
"92 415 OFFCURVE",
"153 499 CURVE SMOOTH",
"214 582 OFFCURVE",
"295 651 OFFCURVE",
"378 698 CURVE",
"558 698 LINE",
"469 642 OFFCURVE",
"392 590 OFFCURVE",
"332 533 CURVE SMOOTH",
"271 476 OFFCURVE",
"227 416 OFFCURVE",
"203 344 CURVE",
"210 341 LINE",
"229 370 OFFCURVE",
"249 398 OFFCURVE",
"274 416 CURVE SMOOTH",
"299 434 OFFCURVE",
"330 445 OFFCURVE",
"370 445 CURVE SMOOTH",
"422 445 OFFCURVE",
"465 426 OFFCURVE",
"494 393 CURVE SMOOTH",
"523 360 OFFCURVE",
"540 311 OFFCURVE",
"540 254 CURVE SMOOTH",
"540 182 OFFCURVE",
"514 115 OFFCURVE",
"466 67 CURVE SMOOTH",
"418 19 OFFCURVE",
"349 -12 OFFCURVE",
"265 -12 CURVE SMOOTH"
);
},
{
closed = 1;
nodes = (
"347 90 OFFCURVE",
"391 133 OFFCURVE",
"406 205 CURVE SMOOTH",
"409 220 OFFCURVE",
"411 233 OFFCURVE",
"411 246 CURVE SMOOTH",
"411 309 OFFCURVE",
"377 345 OFFCURVE",
"312 345 CURVE SMOOTH",
"239 345 OFFCURVE",
"196 302 OFFCURVE",
"181 230 CURVE SMOOTH",
"178 215 OFFCURVE",
"176 201 OFFCURVE",
"176 189 CURVE SMOOTH",
"176 126 OFFCURVE",
"210 90 OFFCURVE",
"275 90 CURVE SMOOTH"
);
}
);
width = 600;
}
);
unicode = 0036;
},
{
glyphname = seven;
lastChange = "2018-11-03 21:53:21 +0000";
layers = (
{
layerId = "91171461-3A9C-47E5-8F32-6F9DD13F0C63";
name = "Bold Italic";
paths = (
{
closed = 1;
nodes = (
"128 593 LINE",
"472 593 LINE",
"117 0 LINE",
"251 0 LINE",
"597 586 LINE",
"619 698 LINE",
"149 698 LINE"
);
}
);
width = 600;
}
);
unicode = 0037;
},
{
glyphname = eight;
layers = (
{
layerId = "91171461-3A9C-47E5-8F32-6F9DD13F0C63";
name = "Bold Italic";
paths = (
{
closed = 1;
nodes = (
"186 -12 OFFCURVE",
"130 6 OFFCURVE",
"94 38 CURVE SMOOTH",
"57 70 OFFCURVE",
"38 115 OFFCURVE",
"38 167 CURVE SMOOTH",
"38 264 OFFCURVE",
"102 342 OFFCURVE",
"207 363 CURVE",
"209 370 LINE",
"152 393 OFFCURVE",
"123 438 OFFCURVE",
"123 505 CURVE SMOOTH",
"123 558 OFFCURVE",
"144 610 OFFCURVE",
"187 648 CURVE SMOOTH",
"230 686 OFFCURVE",
"291 710 OFFCURVE",
"374 710 CURVE SMOOTH",
"507 710 OFFCURVE",
"575 646 OFFCURVE",
"575 551 CURVE SMOOTH",
"575 467 OFFCURVE",
"518 397 OFFCURVE",
"429 368 CURVE",
"428 360 LINE",
"493 341 OFFCURVE",
"531 293 OFFCURVE",
"531 214 CURVE SMOOTH",
"531 154 OFFCURVE",
"506 97 OFFCURVE",
"460 56 CURVE SMOOTH",
"414 15 OFFCURVE",
"344 -12 OFFCURVE",
"259 -12 CURVE SMOOTH"
);
},
{
closed = 1;
nodes = (
"340 88 OFFCURVE",
"385 124 OFFCURVE",
"398 188 CURVE SMOOTH",
"401 203 OFFCURVE",
"402 211 OFFCURVE",
"402 226 CURVE SMOOTH",
"402 279 OFFCURVE",
"366 312 OFFCURVE",
"301 312 CURVE SMOOTH",
"229 312 OFFCURVE",
"183 275 OFFCURVE",
"170 211 CURVE SMOOTH",
"167 196 OFFCURVE",
"166 188 OFFCURVE",
"166 173 CURVE SMOOTH",
"166 120 OFFCURVE",
"201 88 OFFCURVE",
"268 88 CURVE SMOOTH"
);
},
{
closed = 1;
nodes = (
"398 407 OFFCURVE",
"435 443 OFFCURVE",
"447 498 CURVE SMOOTH",
"450 513 OFFCURVE",
"452 525 OFFCURVE",
"452 534 CURVE SMOOTH",
"452 581 OFFCURVE",
"420 610 OFFCURVE",
"359 610 CURVE SMOOTH",
"291 610 OFFCURVE",
"252 575 OFFCURVE",
"241 520 CURVE SMOOTH",
"238 505 OFFCURVE",
"236 493 OFFCURVE",
"236 484 CURVE SMOOTH",
"236 437 OFFCURVE",
"267 407 OFFCURVE",
"330 407 CURVE SMOOTH"
);
}
);
width = 600;
}
);
unicode = 0038;
},
{
glyphname = nine;
layers = (
{
layerId = "91171461-3A9C-47E5-8F32-6F9DD13F0C63";
name = "Bold Italic";
paths = (
{
closed = 1;
nodes = (
"578 380 OFFCURVE",
"538 283 OFFCURVE",
"477 200 CURVE SMOOTH",
"416 116 OFFCURVE",
"335 47 OFFCURVE",
"252 0 CURVE",
"73 0 LINE",
"162 56 OFFCURVE",
"239 108 OFFCURVE",
"299 165 CURVE SMOOTH",
"359 222 OFFCURVE",
"404 282 OFFCURVE",
"428 354 CURVE",
"421 357 LINE",
"402 326 OFFCURVE",
"382 301 OFFCURVE",
"357 283 CURVE SMOOTH",
"332 265 OFFCURVE",
"301 253 OFFCURVE",
"261 253 CURVE SMOOTH",
"209 253 OFFCURVE",
"165 272 OFFCURVE",
"136 305 CURVE SMOOTH",
"107 338 OFFCURVE",
"90 387 OFFCURVE",
"90 444 CURVE SMOOTH",
"90 516 OFFCURVE",
"117 583 OFFCURVE",
"165 631 CURVE SMOOTH",
"213 679 OFFCURVE",
"282 710 OFFCURVE",
"366 710 CURVE SMOOTH",
"503 710 OFFCURVE",
"578 624 OFFCURVE",
"578 481 CURVE SMOOTH"
);
},
{
closed = 1;
nodes = (
"392 353 OFFCURVE",
"435 396 OFFCURVE",
"450 468 CURVE SMOOTH",
"453 481 OFFCURVE",
"454 494 OFFCURVE",
"454 509 CURVE SMOOTH",
"454 572 OFFCURVE",
"421 608 OFFCURVE",
"356 608 CURVE SMOOTH",
"283 608 OFFCURVE",
"239 565 OFFCURVE",
"224 493 CURVE SMOOTH",
"221 480 OFFCURVE",
"220 467 OFFCURVE",
"220 452 CURVE SMOOTH",
"220 389 OFFCURVE",
"252 353 OFFCURVE",
"319 353 CURVE SMOOTH"
);
}
);
width = 600;
}
);
unicode = 0039;
},
{
glyphname = ampersand;
layers = (
{
layerId = "91171461-3A9C-47E5-8F32-6F9DD13F0C63";
name = "Bold Italic";
paths = (
{
closed = 1;
nodes = (
"434 65 LINE",
"383 21 OFFCURVE",
"317 -12 OFFCURVE",
"229 -12 CURVE SMOOTH",
"164 -12 OFFCURVE",
"115 6 OFFCURVE",
"83 36 CURVE SMOOTH",
"50 66 OFFCURVE",
"33 107 OFFCURVE",
"33 156 CURVE SMOOTH",
"33 213 OFFCURVE",
"53 257 OFFCURVE",
"85 292 CURVE SMOOTH",
"117 327 OFFCURVE",
"162 354 OFFCURVE",
"211 379 CURVE",
"186 416 OFFCURVE",
"160 462 OFFCURVE",
"160 515 CURVE SMOOTH",
"160 571 OFFCURVE",
"183 619 OFFCURVE",
"221 655 CURVE SMOOTH",
"259 690 OFFCURVE",
"314 710 OFFCURVE",
"378 710 CURVE SMOOTH",
"426 710 OFFCURVE",
"469 698 OFFCURVE",
"500 674 CURVE SMOOTH",
"531 650 OFFCURVE",
"549 614 OFFCURVE",
"549 566 CURVE SMOOTH",
"549 517 OFFCURVE",
"527 477 OFFCURVE",
"494 445 CURVE SMOOTH",
"461 412 OFFCURVE",
"415 386 OFFCURVE",
"368 362 CURVE",
"460 231 LINE",
"484 275 OFFCURVE",
"501 327 OFFCURVE",
"512 380 CURVE",
"674 380 LINE",
"653 275 LINE",
"577 275 LINE",
"562 229 OFFCURVE",
"543 187 OFFCURVE",
"519 148 CURVE",
"625 0 LINE",
"481 0 LINE"
);
},
{
closed = 1;
nodes = (
"322 614 OFFCURVE",
"292 588 OFFCURVE",
"283 549 CURVE SMOOTH",
"281 541 OFFCURVE",
"280 531 OFFCURVE",
"280 520 CURVE SMOOTH",
"280 493 OFFCURVE",
"290 471 OFFCURVE",
"317 432 CURVE",
"385 467 OFFCURVE",
"427 497 OFFCURVE",
"427 553 CURVE SMOOTH",
"427 592 OFFCURVE",
"401 614 OFFCURVE",
"362 614 CURVE SMOOTH"
);
},
{
closed = 1;
nodes = (
"308 92 OFFCURVE",
"349 109 OFFCURVE",
"384 137 CURVE",
"260 310 LINE",
"209 283 OFFCURVE",
"172 256 OFFCURVE",
"161 204 CURVE",
"159 196 OFFCURVE",
"158 187 OFFCURVE",
"158 176 CURVE SMOOTH",
"158 121 OFFCURVE",
"192 92 OFFCURVE",
"259 92 CURVE SMOOTH"
);
}
);
width = 694;
}
);
leftKerningGroup = ampersand;
rightKerningGroup = ampersand;
unicode = 0026;
},
{
glyphname = at;
layers = (
{
layerId = "91171461-3A9C-47E5-8F32-6F9DD13F0C63";
name = "Bold Italic";
paths = (
{
closed = 1;
nodes = (
"377 -121 LINE SMOOTH",
"278 -121 OFFCURVE",
"199 -88 OFFCURVE",
"145 -31 CURVE SMOOTH",
"91 25 OFFCURVE",
"61 107 OFFCURVE",
"61 206 CURVE SMOOTH",
"61 238 OFFCURVE",
"64 274 OFFCURVE",
"72 315 CURVE SMOOTH",
"95 431 OFFCURVE",
"150 529 OFFCURVE",
"227 598 CURVE SMOOTH",
"304 667 OFFCURVE",
"404 708 OFFCURVE",
"520 708 CURVE SMOOTH",
"612 708 OFFCURVE",
"692 678 OFFCURVE",
"749 625 CURVE SMOOTH",
"806 572 OFFCURVE",
"841 494 OFFCURVE",
"841 398 CURVE SMOOTH",
"841 373 OFFCURVE",
"840 347 OFFCURVE",
"833 316 CURVE SMOOTH",
"820 249 OFFCURVE",
"793 190 OFFCURVE",
"755 147 CURVE SMOOTH",
"717 104 OFFCURVE",
"668 78 OFFCURVE",
"613 78 CURVE SMOOTH",
"545 78 OFFCURVE",
"508 110 OFFCURVE",
"508 162 CURVE SMOOTH",
"508 174 LINE",
"504 174 LINE",
"485 123 OFFCURVE",
"440 79 OFFCURVE",
"380 79 CURVE SMOOTH",
"301 79 OFFCURVE",
"249 131 OFFCURVE",
"249 231 CURVE SMOOTH",
"249 251 OFFCURVE",
"250 272 OFFCURVE",
"257 300 CURVE",
"285 432 OFFCURVE",
"357 501 OFFCURVE",
"444 501 CURVE SMOOTH",
"504 501 OFFCURVE",
"534 472 OFFCURVE",
"545 428 CURVE",
"549 428 LINE",
"562 492 LINE",
"660 492 LINE",
"605 219 LINE SMOOTH",
"603 208 OFFCURVE",
"602 198 OFFCURVE",
"602 189 CURVE SMOOTH",
"602 167 OFFCURVE",
"613 156 OFFCURVE",
"634 156 CURVE SMOOTH",
"682 156 OFFCURVE",
"722 206 OFFCURVE",
"745 313 CURVE SMOOTH",
"752 350 LINE",
"756 367 OFFCURVE",
"757 383 OFFCURVE",
"757 410 CURVE SMOOTH",
"757 478 OFFCURVE",
"732 534 OFFCURVE",
"689 572 CURVE SMOOTH",
"645 610 OFFCURVE",
"583 631 OFFCURVE",
"510 631 CURVE SMOOTH",
"423 631 OFFCURVE",
"345 601 OFFCURVE",
"285 548 CURVE SMOOTH",
"225 495 OFFCURVE",
"181 420 OFFCURVE",
"164 329 CURVE SMOOTH",
"155 283 LINE SMOOTH",
"150 255 OFFCURVE",
"146 228 OFFCURVE",
"146 205 CURVE SMOOTH",
"146 129 OFFCURVE",
"169 67 OFFCURVE",
"211 24 CURVE SMOOTH",
"253 -20 OFFCURVE",
"314 -43 OFFCURVE",
"390 -43 CURVE SMOOTH",
"591 -43 LINE",
"575 -121 LINE"
);
},
{
closed = 1;
nodes = (
"440 161 OFFCURVE",
"463 172 OFFCURVE",
"480 188 CURVE SMOOTH",
"496 204 OFFCURVE",
"508 224 OFFCURVE",
"512 244 CURVE SMOOTH",
"533 350 LINE SMOOTH",
"540 386 OFFCURVE",
"510 418 OFFCURVE",
"461 418 CURVE SMOOTH",
"410 418 OFFCURVE",
"379 382 OFFCURVE",
"368 329 CURVE SMOOTH",
"352 251 LINE SMOOTH",
"351 246 OFFCURVE",
"350 241 OFFCURVE",
"350 238 CURVE SMOOTH",
"350 235 OFFCURVE",
"350 231 OFFCURVE",
"350 228 CURVE SMOOTH",
"350 185 OFFCURVE",
"372 161 OFFCURVE",
"416 161 CURVE SMOOTH"
);
}
);
width = 883;
}
);
leftKerningGroup = at;
rightKerningGroup = at;
unicode = 0040;
},
{
glyphname = hyphen;
layers = (
{
layerId = "91171461-3A9C-47E5-8F32-6F9DD13F0C63";
name = "Bold Italic";
paths = (
{
closed = 1;
nodes = (
"52 245 LINE",
"76 364 LINE",
"358 364 LINE",
"334 245 LINE"
);
}
);
width = 393;
}
);
leftKerningGroup = hyphen;
rightKerningGroup = hyphen;
unicode = 002D;
},
{
glyphname = uni00AD;
layers = (
{
layerId = "91171461-3A9C-47E5-8F32-6F9DD13F0C63";
name = "Bold Italic";
paths = (
{
closed = 1;
nodes = (
"52 245 LINE",
"76 364 LINE",
"358 364 LINE",
"334 245 LINE"
);
}
);
width = 393;
}
);
leftKerningGroup = hyphen;
rightKerningGroup = hyphen;
unicode = 00AD;
},
{
glyphname = endash;
layers = (
{
layerId = "91171461-3A9C-47E5-8F32-6F9DD13F0C63";
name = "Bold Italic";
paths = (
{
closed = 1;
nodes = (
"34 253 LINE",
"54 355 LINE",
"560 355 LINE",
"540 253 LINE"
);
}
);
width = 578;
}
);
leftKerningGroup = hyphen;
rightKerningGroup = hyphen;
unicode = 2013;
},
{
glyphname = emdash;
layers = (
{
layerId = "91171461-3A9C-47E5-8F32-6F9DD13F0C63";
name = "Bold Italic";
paths = (
{
closed = 1;
nodes = (
"34 253 LINE",
"54 355 LINE",
"748 355 LINE",
"728 253 LINE"
);
}
);
width = 766;
}
);
leftKerningGroup = hyphen;
rightKerningGroup = hyphen;
unicode = 2014;
},
{
glyphname = underscore;
layers = (
{
layerId = "91171461-3A9C-47E5-8F32-6F9DD13F0C63";
name = "Bold Italic";
paths = (
{
closed = 1;
nodes = (
"-59 -180 LINE",
"-39 -77 LINE",
"452 -77 LINE",
"432 -180 LINE"
);
}
);
width = 548;
}
);
leftKerningGroup = underscore;
rightKerningGroup = underscore;
unicode = 005F;
},
{
glyphname = period;
layers = (
{
layerId = "91171461-3A9C-47E5-8F32-6F9DD13F0C63";
name = "Bold Italic";
paths = (
{
closed = 1;
nodes = (
"49 -12 OFFCURVE",
"29 14 OFFCURVE",
"29 43 CURVE SMOOTH",
"29 54 OFFCURVE",
"32 72 OFFCURVE",
"35 85 CURVE SMOOTH",
"44 124 OFFCURVE",
"70 154 OFFCURVE",
"122 154 CURVE SMOOTH",
"171 154 OFFCURVE",
"191 128 OFFCURVE",
"191 99 CURVE SMOOTH",
"191 88 OFFCURVE",
"188 72 OFFCURVE",
"185 57 CURVE SMOOTH",
"177 18 OFFCURVE",
"150 -12 OFFCURVE",
"97 -12 CURVE SMOOTH"
);
}
);
width = 297;
}
);
leftKerningGroup = period;
rightKerningGroup = period;
unicode = 002E;
},
{
glyphname = ellipsis;
layers = (
{
layerId = "91171461-3A9C-47E5-8F32-6F9DD13F0C63";
name = "Bold Italic";
paths = (
{
closed = 1;
nodes = (
"49 -12 OFFCURVE",
"29 14 OFFCURVE",
"29 43 CURVE SMOOTH",
"29 54 OFFCURVE",
"32 72 OFFCURVE",
"35 85 CURVE SMOOTH",
"44 124 OFFCURVE",
"70 154 OFFCURVE",
"122 154 CURVE SMOOTH",
"171 154 OFFCURVE",
"191 128 OFFCURVE",
"191 99 CURVE SMOOTH",
"191 88 OFFCURVE",
"188 72 OFFCURVE",
"185 57 CURVE SMOOTH",
"177 18 OFFCURVE",
"150 -12 OFFCURVE",
"97 -12 CURVE SMOOTH"
);
},
{
closed = 1;
nodes = (
"331 -12 OFFCURVE",
"311 14 OFFCURVE",
"311 43 CURVE SMOOTH",
"311 54 OFFCURVE",
"314 72 OFFCURVE",
"317 85 CURVE SMOOTH",
"326 124 OFFCURVE",
"352 154 OFFCURVE",
"404 154 CURVE SMOOTH",
"453 154 OFFCURVE",
"473 128 OFFCURVE",
"473 99 CURVE SMOOTH",
"473 88 OFFCURVE",
"470 72 OFFCURVE",
"467 57 CURVE SMOOTH",
"459 18 OFFCURVE",
"432 -12 OFFCURVE",
"379 -12 CURVE SMOOTH"
);
},
{
closed = 1;
nodes = (
"613 -12 OFFCURVE",
"593 14 OFFCURVE",
"593 43 CURVE SMOOTH",
"593 54 OFFCURVE",
"596 72 OFFCURVE",
"599 85 CURVE SMOOTH",
"608 124 OFFCURVE",
"634 154 OFFCURVE",
"686 154 CURVE SMOOTH",
"735 154 OFFCURVE",
"755 128 OFFCURVE",
"755 99 CURVE SMOOTH",
"755 88 OFFCURVE",
"752 72 OFFCURVE",
"749 57 CURVE SMOOTH",
"741 18 OFFCURVE",
"714 -12 OFFCURVE",
"661 -12 CURVE SMOOTH"
);
}
);
width = 862;
}
);
leftKerningGroup = period;
rightKerningGroup = period;
unicode = 2026;
},
{
glyphname = colon;
layers = (
{
layerId = "91171461-3A9C-47E5-8F32-6F9DD13F0C63";
name = "Bold Italic";
paths = (
{
closed = 1;
nodes = (
"59 -12 OFFCURVE",
"39 14 OFFCURVE",
"39 43 CURVE SMOOTH",
"39 54 OFFCURVE",
"42 72 OFFCURVE",
"45 85 CURVE SMOOTH",
"54 124 OFFCURVE",
"80 154 OFFCURVE",
"132 154 CURVE SMOOTH",
"181 154 OFFCURVE",
"201 128 OFFCURVE",
"201 99 CURVE SMOOTH",
"201 88 OFFCURVE",
"198 72 OFFCURVE",
"195 57 CURVE SMOOTH",
"187 18 OFFCURVE",
"160 -12 OFFCURVE",
"107 -12 CURVE SMOOTH"
);
},
{
closed = 1;
nodes = (
"134 367 OFFCURVE",
"114 393 OFFCURVE",
"114 422 CURVE SMOOTH",
"114 433 OFFCURVE",
"117 451 OFFCURVE",
"120 464 CURVE SMOOTH",
"129 503 OFFCURVE",
"155 533 OFFCURVE",
"207 533 CURVE SMOOTH",
"256 533 OFFCURVE",
"276 507 OFFCURVE",
"276 478 CURVE SMOOTH",
"276 467 OFFCURVE",
"273 451 OFFCURVE",
"270 436 CURVE SMOOTH",
"262 397 OFFCURVE",
"235 367 OFFCURVE",
"182 367 CURVE SMOOTH"
);
}
);
width = 317;
}
);
leftKerningGroup = colon;
unicode = 003A;
},
{
glyphname = comma;
layers = (
{
layerId = "91171461-3A9C-47E5-8F32-6F9DD13F0C63";
name = "Bold Italic";
paths = (
{
closed = 1;
nodes = (
"175 154 OFFCURVE",
"193 127 OFFCURVE",
"193 95 CURVE SMOOTH",
"193 72 OFFCURVE",
"187 40 OFFCURVE",
"172 4 CURVE SMOOTH",
"156 -32 OFFCURVE",
"134 -67 OFFCURVE",
"104 -99 CURVE SMOOTH",
"89 -115 OFFCURVE",
"72 -129 OFFCURVE",
"54 -142 CURVE",
"-40 -142 LINE",
"15 -99 OFFCURVE",
"52 -58 OFFCURVE",
"77 -7 CURVE",
"45 0 OFFCURVE",
"32 20 OFFCURVE",
"32 44 CURVE SMOOTH",
"32 55 OFFCURVE",
"34 70 OFFCURVE",
"37 85 CURVE SMOOTH",
"46 126 OFFCURVE",
"72 154 OFFCURVE",
"124 154 CURVE SMOOTH"
);
}
);
width = 297;
}
);
leftKerningGroup = period;
rightKerningGroup = period;
unicode = 002C;
},
{
glyphname = semicolon;
layers = (
{
layerId = "91171461-3A9C-47E5-8F32-6F9DD13F0C63";
name = "Bold Italic";
paths = (
{
closed = 1;
nodes = (
"185 154 OFFCURVE",
"203 127 OFFCURVE",
"203 95 CURVE SMOOTH",
"203 72 OFFCURVE",
"197 40 OFFCURVE",
"182 4 CURVE SMOOTH",
"166 -32 OFFCURVE",
"144 -67 OFFCURVE",
"114 -99 CURVE SMOOTH",
"99 -115 OFFCURVE",
"82 -129 OFFCURVE",
"64 -142 CURVE",
"-30 -142 LINE",
"25 -99 OFFCURVE",
"62 -58 OFFCURVE",
"87 -7 CURVE",
"55 0 OFFCURVE",
"42 20 OFFCURVE",
"42 44 CURVE SMOOTH",
"42 55 OFFCURVE",
"44 70 OFFCURVE",
"47 85 CURVE SMOOTH",
"56 126 OFFCURVE",
"82 154 OFFCURVE",
"134 154 CURVE SMOOTH"
);
},
{
closed = 1;
nodes = (
"134 367 OFFCURVE",
"114 393 OFFCURVE",
"114 422 CURVE SMOOTH",
"114 433 OFFCURVE",
"117 451 OFFCURVE",
"120 464 CURVE SMOOTH",
"129 503 OFFCURVE",
"155 533 OFFCURVE",
"207 533 CURVE SMOOTH",
"256 533 OFFCURVE",
"276 507 OFFCURVE",
"276 478 CURVE SMOOTH",
"276 467 OFFCURVE",
"273 451 OFFCURVE",
"270 436 CURVE SMOOTH",
"262 397 OFFCURVE",
"235 367 OFFCURVE",
"182 367 CURVE SMOOTH"
);
}
);
width = 317;
}
);
leftKerningGroup = colon;
unicode = 003B;
},
{
glyphname = quotesingle;
layers = (
{
layerId = "91171461-3A9C-47E5-8F32-6F9DD13F0C63";
name = "Bold Italic";
paths = (
{
closed = 1;
nodes = (
"103 427 LINE",
"166 740 LINE",
"280 740 LINE",
"217 427 LINE"
);
}
);
width = 254;
}
);
leftKerningGroup = quotesingle;
rightKerningGroup = quotesingle;
unicode = 0027;
},
{
glyphname = quotedbl;
layers = (
{
layerId = "91171461-3A9C-47E5-8F32-6F9DD13F0C63";
name = "Bold Italic";
paths = (
{
closed = 1;
nodes = (
"103 427 LINE",
"166 740 LINE",
"280 740 LINE",
"217 427 LINE"
);
},
{
closed = 1;
nodes = (
"313 427 LINE",
"376 740 LINE",
"490 740 LINE",
"427 427 LINE"
);
}
);
width = 465;
}
);
leftKerningGroup = quotesingle;
rightKerningGroup = quotesingle;
unicode = 0022;
},
{
glyphname = quoteleft;
layers = (
{
layerId = "91171461-3A9C-47E5-8F32-6F9DD13F0C63";
name = "Bold Italic";
paths = (
{
closed = 1;
nodes = (
"127 455 OFFCURVE",
"108 482 OFFCURVE",
"108 511 CURVE SMOOTH",
"108 532 OFFCURVE",
"114 564 OFFCURVE",
"130 599 CURVE SMOOTH",
"145 634 OFFCURVE",
"168 668 OFFCURVE",
"198 700 CURVE SMOOTH",
"213 716 OFFCURVE",
"229 730 OFFCURVE",
"247 743 CURVE",
"337 743 LINE",
"284 700 OFFCURVE",
"250 662 OFFCURVE",
"223 613 CURVE",
"255 606 OFFCURVE",
"269 585 OFFCURVE",
"269 562 CURVE SMOOTH",
"269 553 OFFCURVE",
"266 537 OFFCURVE",
"263 522 CURVE SMOOTH",
"255 483 OFFCURVE",
"229 455 OFFCURVE",
"176 455 CURVE SMOOTH"
);
}
);
width = 282;
}
);
leftKerningGroup = quoteleft;
rightKerningGroup = quoteleft;
unicode = 2018;
},
{
glyphname = quoteright;
layers = (
{
layerId = "91171461-3A9C-47E5-8F32-6F9DD13F0C63";
name = "Bold Italic";
paths = (
{
closed = 1;
nodes = (
"285 750 OFFCURVE",
"304 723 OFFCURVE",
"304 694 CURVE SMOOTH",
"304 673 OFFCURVE",
"298 641 OFFCURVE",
"283 606 CURVE SMOOTH",
"267 571 OFFCURVE",
"244 537 OFFCURVE",
"215 505 CURVE SMOOTH",
"200 489 OFFCURVE",
"184 475 OFFCURVE",
"166 462 CURVE",
"75 462 LINE",
"128 505 OFFCURVE",
"162 543 OFFCURVE",
"189 592 CURVE",
"157 599 OFFCURVE",
"143 620 OFFCURVE",
"143 643 CURVE SMOOTH",
"143 652 OFFCURVE",
"146 668 OFFCURVE",
"149 683 CURVE SMOOTH",
"157 722 OFFCURVE",
"184 750 OFFCURVE",
"236 750 CURVE SMOOTH"
);
}
);
width = 282;
}
);
leftKerningGroup = quoteright;
rightKerningGroup = quoteright;
unicode = 2019;
},
{
glyphname = quotedblleft;
layers = (
{
layerId = "91171461-3A9C-47E5-8F32-6F9DD13F0C63";
name = "Bold Italic";
paths = (
{
closed = 1;
nodes = (
"127 455 OFFCURVE",
"108 482 OFFCURVE",
"108 511 CURVE SMOOTH",
"108 532 OFFCURVE",
"114 564 OFFCURVE",
"130 599 CURVE SMOOTH",
"145 634 OFFCURVE",
"168 668 OFFCURVE",
"198 700 CURVE SMOOTH",
"213 716 OFFCURVE",
"229 730 OFFCURVE",
"247 743 CURVE",
"337 743 LINE",
"284 700 OFFCURVE",
"250 662 OFFCURVE",
"223 613 CURVE",
"255 606 OFFCURVE",
"269 585 OFFCURVE",
"269 562 CURVE SMOOTH",
"269 553 OFFCURVE",
"266 537 OFFCURVE",
"263 522 CURVE SMOOTH",
"255 483 OFFCURVE",
"229 455 OFFCURVE",
"176 455 CURVE SMOOTH"
);
},
{
closed = 1;
nodes = (
"350 455 OFFCURVE",
"331 482 OFFCURVE",
"331 511 CURVE SMOOTH",
"331 532 OFFCURVE",
"337 564 OFFCURVE",
"353 599 CURVE SMOOTH",
"368 634 OFFCURVE",
"391 668 OFFCURVE",
"421 700 CURVE SMOOTH",
"436 716 OFFCURVE",
"452 730 OFFCURVE",
"470 743 CURVE",
"560 743 LINE",
"507 700 OFFCURVE",
"473 662 OFFCURVE",
"446 613 CURVE",
"478 606 OFFCURVE",
"492 585 OFFCURVE",
"492 562 CURVE SMOOTH",
"492 553 OFFCURVE",
"489 537 OFFCURVE",
"486 522 CURVE SMOOTH",
"478 483 OFFCURVE",
"452 455 OFFCURVE",
"399 455 CURVE SMOOTH"
);
}
);
width = 506;
}
);
leftKerningGroup = quoteleft;
rightKerningGroup = quoteleft;
unicode = 201C;
},
{
glyphname = quotedblright;
layers = (
{
layerId = "91171461-3A9C-47E5-8F32-6F9DD13F0C63";
name = "Bold Italic";
paths = (
{
closed = 1;
nodes = (
"285 750 OFFCURVE",
"304 723 OFFCURVE",
"304 694 CURVE SMOOTH",
"304 673 OFFCURVE",
"298 641 OFFCURVE",
"283 606 CURVE SMOOTH",
"267 571 OFFCURVE",
"244 537 OFFCURVE",
"215 505 CURVE SMOOTH",
"200 489 OFFCURVE",
"184 475 OFFCURVE",
"166 462 CURVE",
"75 462 LINE",
"128 505 OFFCURVE",
"162 543 OFFCURVE",
"189 592 CURVE",
"157 599 OFFCURVE",
"143 620 OFFCURVE",
"143 643 CURVE SMOOTH",
"143 652 OFFCURVE",
"146 668 OFFCURVE",
"149 683 CURVE SMOOTH",
"157 722 OFFCURVE",
"184 750 OFFCURVE",
"236 750 CURVE SMOOTH"
);
},
{
closed = 1;
nodes = (
"508 750 OFFCURVE",
"527 723 OFFCURVE",
"527 694 CURVE SMOOTH",
"527 673 OFFCURVE",
"521 641 OFFCURVE",
"506 606 CURVE SMOOTH",
"490 571 OFFCURVE",
"467 537 OFFCURVE",
"438 505 CURVE SMOOTH",
"423 489 OFFCURVE",
"407 475 OFFCURVE",
"389 462 CURVE",
"298 462 LINE",
"351 505 OFFCURVE",
"385 543 OFFCURVE",
"412 592 CURVE",
"380 599 OFFCURVE",
"366 620 OFFCURVE",
"366 643 CURVE SMOOTH",
"366 652 OFFCURVE",
"369 668 OFFCURVE",
"372 683 CURVE SMOOTH",
"380 722 OFFCURVE",
"407 750 OFFCURVE",
"459 750 CURVE SMOOTH"
);
}
);
width = 506;
}
);
leftKerningGroup = quoteright;
rightKerningGroup = quoteright;
unicode = 201D;
},
{
glyphname = quotesinglbase;
layers = (
{
layerId = "91171461-3A9C-47E5-8F32-6F9DD13F0C63";
name = "Bold Italic";
paths = (
{
closed = 1;
nodes = (
"168 169 OFFCURVE",
"187 142 OFFCURVE",
"187 113 CURVE SMOOTH",
"187 90 OFFCURVE",
"181 59 OFFCURVE",
"166 24 CURVE SMOOTH",
"150 -11 OFFCURVE",
"128 -45 OFFCURVE",
"98 -77 CURVE SMOOTH",
"83 -93 OFFCURVE",
"66 -107 OFFCURVE",
"48 -120 CURVE",
"-42 -120 LINE",
"11 -77 OFFCURVE",
"45 -38 OFFCURVE",
"72 11 CURVE",
"40 18 OFFCURVE",
"26 38 OFFCURVE",
"26 61 CURVE SMOOTH",
"26 72 OFFCURVE",
"29 87 OFFCURVE",
"32 102 CURVE SMOOTH",
"40 141 OFFCURVE",
"66 169 OFFCURVE",
"119 169 CURVE SMOOTH"
);
}
);
width = 283;
}
);
leftKerningGroup = period;
rightKerningGroup = period;
unicode = 201A;
},
{
glyphname = quotedblbase;
layers = (
{
layerId = "91171461-3A9C-47E5-8F32-6F9DD13F0C63";
name = "Bold Italic";
paths = (
{
closed = 1;
nodes = (
"168 169 OFFCURVE",
"187 142 OFFCURVE",
"187 113 CURVE SMOOTH",
"187 90 OFFCURVE",
"181 59 OFFCURVE",
"166 24 CURVE SMOOTH",
"150 -11 OFFCURVE",
"128 -45 OFFCURVE",
"98 -77 CURVE SMOOTH",
"83 -93 OFFCURVE",
"66 -107 OFFCURVE",
"48 -120 CURVE",
"-42 -120 LINE",
"11 -77 OFFCURVE",
"45 -38 OFFCURVE",
"72 11 CURVE",
"40 18 OFFCURVE",
"26 38 OFFCURVE",
"26 61 CURVE SMOOTH",
"26 72 OFFCURVE",
"29 87 OFFCURVE",
"32 102 CURVE SMOOTH",
"40 141 OFFCURVE",
"66 169 OFFCURVE",
"119 169 CURVE SMOOTH"
);
},
{
closed = 1;
nodes = (
"388 169 OFFCURVE",
"407 142 OFFCURVE",
"407 113 CURVE SMOOTH",
"407 90 OFFCURVE",
"401 59 OFFCURVE",
"386 24 CURVE SMOOTH",
"370 -11 OFFCURVE",
"348 -45 OFFCURVE",
"318 -77 CURVE SMOOTH",
"303 -93 OFFCURVE",
"286 -107 OFFCURVE",
"268 -120 CURVE",
"178 -120 LINE",
"231 -77 OFFCURVE",
"265 -38 OFFCURVE",
"292 11 CURVE",
"260 18 OFFCURVE",
"246 38 OFFCURVE",
"246 61 CURVE SMOOTH",
"246 72 OFFCURVE",
"249 87 OFFCURVE",
"252 102 CURVE SMOOTH",
"260 141 OFFCURVE",
"286 169 OFFCURVE",
"339 169 CURVE SMOOTH"
);
}
);
width = 504;
}
);
leftKerningGroup = period;
rightKerningGroup = period;
unicode = 201E;
},
{
glyphname = guilsinglleft;
layers = (
{
layerId = "91171461-3A9C-47E5-8F32-6F9DD13F0C63";
name = "Bold Italic";
paths = (
{
closed = 1;
nodes = (
"188 58 LINE",
"33 222 LINE",
"56 334 LINE",
"263 493 LINE",
"296 410 LINE",
"141 269 LINE",
"238 132 LINE"
);
}
);
width = 308;
}
);
leftKerningGroup = guilsinglleft;
rightKerningGroup = guilsinglleft;
unicode = 2039;
},
{
glyphname = guilsinglright;
layers = (
{
layerId = "91171461-3A9C-47E5-8F32-6F9DD13F0C63";
name = "Bold Italic";
paths = (
{
closed = 1;
nodes = (
"15 141 LINE",
"170 283 LINE",
"73 419 LINE",
"122 493 LINE",
"278 330 LINE",
"255 218 LINE",
"48 59 LINE"
);
}
);
width = 308;
}
);
leftKerningGroup = guilsinglright;
rightKerningGroup = guilsinglright;
unicode = 203A;
},
{
glyphname = guillemotleft;
layers = (
{
layerId = "91171461-3A9C-47E5-8F32-6F9DD13F0C63";
name = "Bold Italic";
paths = (
{
closed = 1;
nodes = (
"188 58 LINE",
"33 222 LINE",
"56 334 LINE",
"263 493 LINE",
"296 410 LINE",
"141 269 LINE",
"238 132 LINE"
);
},
{
closed = 1;
nodes = (
"423 58 LINE",
"268 222 LINE",
"291 334 LINE",
"498 493 LINE",
"531 410 LINE",
"376 269 LINE",
"473 132 LINE"
);
}
);
width = 544;
}
);
leftKerningGroup = guilsinglleft;
rightKerningGroup = guilsinglleft;
unicode = 00AB;
},
{
glyphname = guillemotright;
layers = (
{
layerId = "91171461-3A9C-47E5-8F32-6F9DD13F0C63";
name = "Bold Italic";
paths = (
{
closed = 1;
nodes = (
"250 141 LINE",
"405 283 LINE",
"308 419 LINE",
"357 493 LINE",
"513 330 LINE",
"490 218 LINE",
"283 59 LINE"
);
},
{
closed = 1;
nodes = (
"15 141 LINE",
"170 283 LINE",
"73 419 LINE",
"122 493 LINE",
"278 330 LINE",
"255 218 LINE",
"48 59 LINE"
);
}
);
width = 544;
}
);
leftKerningGroup = guilsinglright;
rightKerningGroup = guilsinglright;
unicode = 00BB;
},
{
glyphname = exclamdown;
layers = (
{
layerId = "91171461-3A9C-47E5-8F32-6F9DD13F0C63";
name = "Bold Italic";
paths = (
{
closed = 1;
nodes = (
"-4 -176 LINE",
"35 22 LINE",
"132 313 LINE",
"187 313 LINE",
"169 22 LINE",
"129 -176 LINE"
);
},
{
closed = 1;
nodes = (
"123 371 OFFCURVE",
"103 394 OFFCURVE",
"103 425 CURVE SMOOTH",
"103 433 OFFCURVE",
"104 445 OFFCURVE",
"108 465 CURVE SMOOTH",
"116 505 OFFCURVE",
"142 534 OFFCURVE",
"198 534 CURVE SMOOTH",
"247 534 OFFCURVE",
"267 512 OFFCURVE",
"267 481 CURVE SMOOTH",
"267 474 OFFCURVE",
"266 461 OFFCURVE",
"262 441 CURVE SMOOTH",
"254 401 OFFCURVE",
"228 371 OFFCURVE",
"172 371 CURVE SMOOTH"
);
}
);
width = 302;
}
);
leftKerningGroup = exclamdown;
rightKerningGroup = exclamdown;
unicode = 00A1;
},
{
glyphname = exclam;
layers = (
{
layerId = "91171461-3A9C-47E5-8F32-6F9DD13F0C63";
name = "Bold Italic";
paths = (
{
closed = 1;
nodes = (
"114 210 LINE",
"134 501 LINE",
"173 698 LINE",
"304 698 LINE",
"265 501 LINE",
"169 210 LINE"
);
},
{
closed = 1;
nodes = (
"51 -12 OFFCURVE",
"31 10 OFFCURVE",
"31 41 CURVE SMOOTH",
"31 49 OFFCURVE",
"32 62 OFFCURVE",
"36 82 CURVE SMOOTH",
"44 122 OFFCURVE",
"70 151 OFFCURVE",
"126 151 CURVE SMOOTH",
"175 151 OFFCURVE",
"195 129 OFFCURVE",
"195 98 CURVE SMOOTH",
"195 90 OFFCURVE",
"194 78 OFFCURVE",
"190 57 CURVE SMOOTH",
"182 17 OFFCURVE",
"156 -12 OFFCURVE",
"100 -12 CURVE SMOOTH"
);
}
);
width = 302;
}
);
leftKerningGroup = exclam;
unicode = 0021;
},
{
glyphname = questiondown;
layers = (
{
layerId = "91171461-3A9C-47E5-8F32-6F9DD13F0C63";
name = "Bold Italic";
paths = (
{
closed = 1;
nodes = (
"56 -188 OFFCURVE",
"-17 -125 OFFCURVE",
"-17 -22 CURVE SMOOTH",
"-17 34 OFFCURVE",
"5 86 OFFCURVE",
"43 127 CURVE SMOOTH",
"81 168 OFFCURVE",
"132 199 OFFCURVE",
"195 211 CURVE",
"214 297 LINE",
"332 297 LINE",
"300 140 LINE",
"192 132 OFFCURVE",
"132 92 OFFCURVE",
"117 29 CURVE",
"114 20 OFFCURVE",
"113 5 OFFCURVE",
"113 -8 CURVE SMOOTH",
"113 -55 OFFCURVE",
"147 -80 OFFCURVE",
"195 -80 CURVE SMOOTH",
"255 -80 OFFCURVE",
"294 -42 OFFCURVE",
"317 17 CURVE",
"417 -27 LINE",
"374 -123 OFFCURVE",
"300 -188 OFFCURVE",
"179 -188 CURVE SMOOTH"
);
},
{
closed = 1;
nodes = (
"238 371 OFFCURVE",
"218 394 OFFCURVE",
"218 425 CURVE SMOOTH",
"218 433 OFFCURVE",
"219 445 OFFCURVE",
"223 465 CURVE SMOOTH",
"231 505 OFFCURVE",
"258 534 OFFCURVE",
"313 534 CURVE SMOOTH",
"362 534 OFFCURVE",
"382 512 OFFCURVE",
"382 481 CURVE SMOOTH",
"382 474 OFFCURVE",
"381 461 OFFCURVE",
"377 441 CURVE SMOOTH",
"369 401 OFFCURVE",
"343 371 OFFCURVE",
"287 371 CURVE SMOOTH"
);
}
);
width = 485;
}
);
leftKerningGroup = questiondown;
rightKerningGroup = questiondown;
unicode = 00BF;
},
{
glyphname = question;
layers = (
{
layerId = "91171461-3A9C-47E5-8F32-6F9DD13F0C63";
name = "Bold Italic";
paths = (
{
closed = 1;
nodes = (
"155 226 LINE",
"187 382 LINE",
"295 390 OFFCURVE",
"355 430 OFFCURVE",
"370 493 CURVE",
"373 502 OFFCURVE",
"375 518 OFFCURVE",
"375 530 CURVE SMOOTH",
"375 578 OFFCURVE",
"340 603 OFFCURVE",
"292 603 CURVE SMOOTH",
"232 603 OFFCURVE",
"193 564 OFFCURVE",
"170 505 CURVE",
"70 549 LINE",
"91 597 OFFCURVE",
"120 637 OFFCURVE",
"160 666 CURVE SMOOTH",
"199 694 OFFCURVE",
"247 710 OFFCURVE",
"308 710 CURVE SMOOTH",
"431 710 OFFCURVE",
"504 647 OFFCURVE",
"504 544 CURVE SMOOTH",
"504 488 OFFCURVE",
"481 436 OFFCURVE",
"444 395 CURVE SMOOTH",
"407 354 OFFCURVE",
"353 323 OFFCURVE",
"292 311 CURVE",
"274 226 LINE"
);
},
{
closed = 1;
nodes = (
"125 -12 OFFCURVE",
"104 10 OFFCURVE",
"104 41 CURVE SMOOTH",
"104 56 OFFCURVE",
"109 106 OFFCURVE",
"137 132 CURVE SMOOTH",
"151 145 OFFCURVE",
"172 151 OFFCURVE",
"199 151 CURVE SMOOTH",
"248 151 OFFCURVE",
"269 129 OFFCURVE",
"269 98 CURVE SMOOTH",
"269 85 OFFCURVE",
"264 34 OFFCURVE",
"236 8 CURVE SMOOTH",
"222 -5 OFFCURVE",
"201 -12 OFFCURVE",
"173 -12 CURVE SMOOTH"
);
}
);
width = 484;
}
);
leftKerningGroup = question;
rightKerningGroup = question;
unicode = 003F;
},
{
glyphname = parenleft;
layers = (
{
layerId = "91171461-3A9C-47E5-8F32-6F9DD13F0C63";
name = "Bold Italic";
paths = (
{
closed = 1;
nodes = (
"66 334 OFFCURVE",
"100 443 OFFCURVE",
"153 536 CURVE SMOOTH",
"206 629 OFFCURVE",
"278 707 OFFCURVE",
"353 760 CURVE",
"482 760 LINE",
"414 708 OFFCURVE",
"351 648 OFFCURVE",
"301 581 CURVE SMOOTH",
"251 514 OFFCURVE",
"215 443 OFFCURVE",
"200 368 CURVE SMOOTH",
"180 272 LINE SMOOTH",
"176 249 OFFCURVE",
"175 230 OFFCURVE",
"175 213 CURVE SMOOTH",
"175 72 OFFCURVE",
"226 -46 OFFCURVE",
"303 -138 CURVE",
"190 -138 LINE",
"157 -99 OFFCURVE",
"126 -47 OFFCURVE",
"103 13 CURVE SMOOTH",
"80 73 OFFCURVE",
"66 142 OFFCURVE",
"66 215 CURVE SMOOTH"
);
}
);
width = 346;
}
);
rightKerningGroup = parenleft;
unicode = 0028;
},
{
glyphname = parenright;
layers = (
{
layerId = "91171461-3A9C-47E5-8F32-6F9DD13F0C63";
name = "Bold Italic";
paths = (
{
closed = 1;
nodes = (
"304 289 OFFCURVE",
"269 179 OFFCURVE",
"217 86 CURVE SMOOTH",
"164 -7 OFFCURVE",
"92 -85 OFFCURVE",
"16 -138 CURVE",
"-113 -138 LINE",
"-45 -86 OFFCURVE",
"19 -26 OFFCURVE",
"69 41 CURVE SMOOTH",
"119 108 OFFCURVE",
"155 180 OFFCURVE",
"170 255 CURVE SMOOTH",
"189 351 LINE SMOOTH",
"194 374 OFFCURVE",
"195 393 OFFCURVE",
"195 410 CURVE SMOOTH",
"195 551 OFFCURVE",
"145 669 OFFCURVE",
"66 760 CURVE",
"179 760 LINE",
"212 721 OFFCURVE",
"243 670 OFFCURVE",
"267 610 CURVE SMOOTH",
"290 550 OFFCURVE",
"304 481 OFFCURVE",
"304 408 CURVE SMOOTH"
);
}
);
width = 346;
}
);
leftKerningGroup = parenright;
unicode = 0029;
},
{
glyphname = bracketleft;
layers = (
{
layerId = "91171461-3A9C-47E5-8F32-6F9DD13F0C63";
name = "Bold Italic";
paths = (
{
closed = 1;
nodes = (
"0 -138 LINE",
"180 760 LINE",
"380 760 LINE",
"363 673 LINE",
"273 673 LINE",
"127 -51 LINE",
"218 -51 LINE",
"201 -138 LINE"
);
}
);
width = 321;
}
);
rightKerningGroup = bracketleft;
unicode = 005B;
},
{
glyphname = bracketright;
layers = (
{
layerId = "91171461-3A9C-47E5-8F32-6F9DD13F0C63";
name = "Bold Italic";
paths = (
{
closed = 1;
nodes = (
"341 760 LINE",
"161 -138 LINE",
"-39 -138 LINE",
"-21 -51 LINE",
"69 -51 LINE",
"214 673 LINE",
"123 673 LINE",
"141 760 LINE"
);
}
);
width = 321;
}
);
leftKerningGroup = bracketright;
unicode = 005D;
},
{
glyphname = braceleft;
layers = (
{
layerId = "91171461-3A9C-47E5-8F32-6F9DD13F0C63";
name = "Bold Italic";
paths = (
{
closed = 1;
nodes = (
"131 -138 LINE SMOOTH",
"84 -138 OFFCURVE",
"54 -112 OFFCURVE",
"54 -67 CURVE SMOOTH",
"54 -58 OFFCURVE",
"55 -49 OFFCURVE",
"57 -42 CURVE",
"97 160 LINE SMOOTH",
"99 170 OFFCURVE",
"100 180 OFFCURVE",
"100 189 CURVE SMOOTH",
"100 236 OFFCURVE",
"75 260 OFFCURVE",
"24 260 CURVE",
"45 363 LINE",
"106 363 OFFCURVE",
"143 392 OFFCURVE",
"155 451 CURVE SMOOTH",
"198 666 LINE SMOOTH",
"210 729 OFFCURVE",
"249 760 OFFCURVE",
"301 760 CURVE SMOOTH",
"410 760 LINE",
"392 668 LINE",
"311 668 LINE",
"265 439 LINE SMOOTH",
"258 408 OFFCURVE",
"248 380 OFFCURVE",
"228 357 CURVE SMOOTH",
"208 333 OFFCURVE",
"180 318 OFFCURVE",
"140 315 CURVE",
"139 307 LINE",
"186 298 OFFCURVE",
"218 264 OFFCURVE",
"218 213 CURVE SMOOTH",
"218 202 OFFCURVE",
"216 191 OFFCURVE",
"213 180 CURVE",
"168 -46 LINE",
"249 -46 LINE",
"230 -138 LINE"
);
}
);
width = 352;
}
);
rightKerningGroup = bracketleft;
unicode = 007B;
},
{
glyphname = braceright;
layers = (
{
layerId = "91171461-3A9C-47E5-8F32-6F9DD13F0C63";
name = "Bold Italic";
paths = (
{
closed = 1;
nodes = (
"-21 -46 LINE",
"60 -46 LINE",
"105 183 LINE SMOOTH",
"110 212 OFFCURVE",
"122 242 OFFCURVE",
"142 266 CURVE SMOOTH",
"162 289 OFFCURVE",
"191 304 OFFCURVE",
"231 307 CURVE",
"231 315 LINE",
"186 324 OFFCURVE",
"153 359 OFFCURVE",
"153 410 CURVE SMOOTH",
"153 419 OFFCURVE",
"154 431 OFFCURVE",
"157 442 CURVE",
"202 668 LINE",
"121 668 LINE",
"140 760 LINE",
"239 760 LINE SMOOTH",
"286 760 OFFCURVE",
"316 734 OFFCURVE",
"316 689 CURVE SMOOTH",
"316 681 OFFCURVE",
"315 671 OFFCURVE",
"314 664 CURVE",
"273 462 LINE SMOOTH",
"271 452 OFFCURVE",
"270 442 OFFCURVE",
"270 433 CURVE SMOOTH",
"270 386 OFFCURVE",
"296 362 OFFCURVE",
"347 362 CURVE",
"326 259 LINE",
"264 259 OFFCURVE",
"227 230 OFFCURVE",
"215 171 CURVE SMOOTH",
"172 -44 LINE SMOOTH",
"160 -107 OFFCURVE",
"122 -138 OFFCURVE",
"69 -138 CURVE SMOOTH",
"-39 -138 LINE"
);
}
);
width = 352;
}
);
leftKerningGroup = bracketright;
unicode = 007D;
},
{
glyphname = slash;
layers = (
{
layerId = "91171461-3A9C-47E5-8F32-6F9DD13F0C63";
name = "Bold Italic";
paths = (
{
closed = 1;
nodes = (
"-72 -151 LINE",
"389 740 LINE",
"500 740 LINE",
"39 -151 LINE"
);
}
);
width = 449;
}
);
leftKerningGroup = slash;
rightKerningGroup = slash;
unicode = 002F;
},
{
glyphname = backslash;
layers = (
{
layerId = "91171461-3A9C-47E5-8F32-6F9DD13F0C63";
name = "Bold Italic";
paths = (
{
closed = 1;
nodes = (
"250 -151 LINE",
"146 740 LINE",
"247 740 LINE",
"350 -151 LINE"
);
}
);
width = 449;
}
);
unicode = 005C;
},
{
glyphname = fraction;
layers = (
{
layerId = "91171461-3A9C-47E5-8F32-6F9DD13F0C63";
name = "Bold Italic";
paths = (
{
closed = 1;
nodes = (
"-278 0 LINE",
"365 698 LINE",
"467 698 LINE",
"-176 0 LINE"
);
}
);
width = 148;
}
);
unicode = 2044;
},
{
glyphname = percent;
layers = (
{
layerId = "91171461-3A9C-47E5-8F32-6F9DD13F0C63";
name = "Bold Italic";
paths = (
{
closed = 1;
nodes = (
"137 0 LINE",
"713 698 LINE",
"824 698 LINE",
"248 0 LINE"
);
},
{
closed = 1;
nodes = (
"152 314 OFFCURVE",
"95 366 OFFCURVE",
"95 470 CURVE SMOOTH",
"95 541 OFFCURVE",
"118 600 OFFCURVE",
"154 643 CURVE SMOOTH",
"190 686 OFFCURVE",
"239 710 OFFCURVE",
"294 710 CURVE SMOOTH",
"383 710 OFFCURVE",
"440 658 OFFCURVE",
"440 554 CURVE SMOOTH",
"440 483 OFFCURVE",
"417 424 OFFCURVE",
"381 382 CURVE SMOOTH",
"345 340 OFFCURVE",
"294 314 OFFCURVE",
"241 314 CURVE SMOOTH"
);
},
{
closed = 1;
nodes = (
"286 389 OFFCURVE",
"308 420 OFFCURVE",
"321 484 CURVE SMOOTH",
"332 540 LINE SMOOTH",
"335 555 OFFCURVE",
"337 568 OFFCURVE",
"337 579 CURVE SMOOTH",
"337 614 OFFCURVE",
"319 635 OFFCURVE",
"288 635 CURVE SMOOTH",
"249 635 OFFCURVE",
"228 604 OFFCURVE",
"215 540 CURVE SMOOTH",
"203 484 LINE SMOOTH",
"200 471 OFFCURVE",
"199 456 OFFCURVE",
"199 445 CURVE SMOOTH",
"199 410 OFFCURVE",
"216 389 OFFCURVE",
"247 389 CURVE SMOOTH"
);
},
{
closed = 1;
nodes = (
"577 -12 OFFCURVE",
"520 40 OFFCURVE",
"520 144 CURVE SMOOTH",
"520 215 OFFCURVE",
"543 274 OFFCURVE",
"579 317 CURVE SMOOTH",
"615 360 OFFCURVE",
"664 384 OFFCURVE",
"719 384 CURVE SMOOTH",
"808 384 OFFCURVE",
"865 332 OFFCURVE",
"865 228 CURVE SMOOTH",
"865 157 OFFCURVE",
"842 98 OFFCURVE",
"806 56 CURVE SMOOTH",
"770 14 OFFCURVE",
"719 -12 OFFCURVE",
"666 -12 CURVE SMOOTH"
);
},
{
closed = 1;
nodes = (
"711 63 OFFCURVE",
"732 94 OFFCURVE",
"745 158 CURVE SMOOTH",
"757 214 LINE SMOOTH",
"760 227 OFFCURVE",
"761 242 OFFCURVE",
"761 253 CURVE SMOOTH",
"761 288 OFFCURVE",
"744 309 OFFCURVE",
"713 309 CURVE SMOOTH",
"674 309 OFFCURVE",
"654 278 OFFCURVE",
"639 214 CURVE",
"628 158 LINE SMOOTH",
"625 143 OFFCURVE",
"623 130 OFFCURVE",
"623 119 CURVE SMOOTH",
"623 84 OFFCURVE",
"641 63 OFFCURVE",
"672 63 CURVE SMOOTH"
);
}
);
width = 928;
}
);
rightKerningGroup = percent;
unicode = 0025;
},
{
glyphname = perthousand;
layers = (
{
layerId = "91171461-3A9C-47E5-8F32-6F9DD13F0C63";
name = "Bold Italic";
paths = (
{
closed = 1;
nodes = (
"137 0 LINE",
"713 698 LINE",
"824 698 LINE",
"248 0 LINE"
);
},
{
closed = 1;
nodes = (
"152 314 OFFCURVE",
"95 366 OFFCURVE",
"95 470 CURVE SMOOTH",
"95 541 OFFCURVE",
"118 600 OFFCURVE",
"154 643 CURVE SMOOTH",
"190 686 OFFCURVE",
"239 710 OFFCURVE",
"294 710 CURVE SMOOTH",
"383 710 OFFCURVE",
"440 658 OFFCURVE",
"440 554 CURVE SMOOTH",
"440 483 OFFCURVE",
"417 424 OFFCURVE",
"381 382 CURVE SMOOTH",
"345 340 OFFCURVE",
"294 314 OFFCURVE",
"241 314 CURVE SMOOTH"
);
},
{
closed = 1;
nodes = (
"286 389 OFFCURVE",
"308 420 OFFCURVE",
"321 484 CURVE SMOOTH",
"332 540 LINE SMOOTH",
"335 555 OFFCURVE",
"337 568 OFFCURVE",
"337 579 CURVE SMOOTH",
"337 614 OFFCURVE",
"319 635 OFFCURVE",
"288 635 CURVE SMOOTH",
"249 635 OFFCURVE",
"228 604 OFFCURVE",
"215 540 CURVE SMOOTH",
"203 484 LINE SMOOTH",
"200 471 OFFCURVE",
"199 456 OFFCURVE",
"199 445 CURVE SMOOTH",
"199 410 OFFCURVE",
"216 389 OFFCURVE",
"247 389 CURVE SMOOTH"
);
},
{
closed = 1;
nodes = (
"577 -12 OFFCURVE",
"520 40 OFFCURVE",
"520 144 CURVE SMOOTH",
"520 215 OFFCURVE",
"543 274 OFFCURVE",
"579 317 CURVE SMOOTH",
"615 360 OFFCURVE",
"664 384 OFFCURVE",
"719 384 CURVE SMOOTH",
"808 384 OFFCURVE",
"865 332 OFFCURVE",
"865 228 CURVE SMOOTH",
"865 157 OFFCURVE",
"842 98 OFFCURVE",
"806 56 CURVE SMOOTH",
"770 14 OFFCURVE",
"719 -12 OFFCURVE",
"666 -12 CURVE SMOOTH"
);
},
{
closed = 1;
nodes = (
"711 63 OFFCURVE",
"732 94 OFFCURVE",
"745 158 CURVE SMOOTH",
"757 214 LINE SMOOTH",
"760 227 OFFCURVE",
"761 242 OFFCURVE",
"761 253 CURVE SMOOTH",
"761 288 OFFCURVE",
"744 309 OFFCURVE",
"713 309 CURVE SMOOTH",
"674 309 OFFCURVE",
"654 278 OFFCURVE",
"639 214 CURVE",
"628 158 LINE SMOOTH",
"625 143 OFFCURVE",
"623 130 OFFCURVE",
"623 119 CURVE SMOOTH",
"623 84 OFFCURVE",
"641 63 OFFCURVE",
"672 63 CURVE SMOOTH"
);
},
{
closed = 1;
nodes = (
"962 -11 OFFCURVE",
"905 41 OFFCURVE",
"905 145 CURVE SMOOTH",
"905 216 OFFCURVE",
"928 275 OFFCURVE",
"964 318 CURVE SMOOTH",
"1000 361 OFFCURVE",
"1049 385 OFFCURVE",
"1104 385 CURVE SMOOTH",
"1193 385 OFFCURVE",
"1250 333 OFFCURVE",
"1250 229 CURVE SMOOTH",
"1250 158 OFFCURVE",
"1227 99 OFFCURVE",
"1191 57 CURVE SMOOTH",
"1155 15 OFFCURVE",
"1104 -11 OFFCURVE",
"1051 -11 CURVE SMOOTH"
);
},
{
closed = 1;
nodes = (
"1096 64 OFFCURVE",
"1117 95 OFFCURVE",
"1130 159 CURVE SMOOTH",
"1142 215 LINE SMOOTH",
"1145 228 OFFCURVE",
"1146 243 OFFCURVE",
"1146 254 CURVE SMOOTH",
"1146 289 OFFCURVE",
"1129 310 OFFCURVE",
"1098 310 CURVE SMOOTH",
"1058 310 OFFCURVE",
"1037 279 OFFCURVE",
"1024 215 CURVE SMOOTH",
"1013 159 LINE SMOOTH",
"1010 144 OFFCURVE",
"1008 131 OFFCURVE",
"1008 120 CURVE SMOOTH",
"1008 85 OFFCURVE",
"1026 64 OFFCURVE",
"1057 64 CURVE SMOOTH"
);
}
);
width = 1313;
}
);
rightKerningGroup = perthousand;
unicode = 2030;
},
{
glyphname = bar;
layers = (
{
layerId = "91171461-3A9C-47E5-8F32-6F9DD13F0C63";
name = "Bold Italic";
paths = (
{
closed = 1;
nodes = (
"50 -138 LINE",
"230 760 LINE",
"338 760 LINE",
"159 -138 LINE"
);
}
);
width = 369;
}
);
unicode = 007C;
},
{
glyphname = brokenbar;
layers = (
{
layerId = "91171461-3A9C-47E5-8F32-6F9DD13F0C63";
name = "Bold Italic";
paths = (
{
closed = 1;
nodes = (
"158 403 LINE",
"230 760 LINE",
"338 760 LINE",
"267 403 LINE"
);
},
{
closed = 1;
nodes = (
"50 -138 LINE",
"122 219 LINE",
"230 219 LINE",
"159 -138 LINE"
);
}
);
width = 369;
}
);
unicode = 00A6;
},
{
glyphname = section;
layers = (
{
layerId = "91171461-3A9C-47E5-8F32-6F9DD13F0C63";
name = "Bold Italic";
paths = (
{
closed = 1;
nodes = (
"426 -23 OFFCURVE",
"403 -71 OFFCURVE",
"363 -105 CURVE SMOOTH",
"323 -139 OFFCURVE",
"268 -159 OFFCURVE",
"204 -159 CURVE SMOOTH",
"129 -159 OFFCURVE",
"60 -138 OFFCURVE",
"17 -89 CURVE",
"90 -16 LINE",
"117 -49 OFFCURVE",
"157 -68 OFFCURVE",
"216 -68 CURVE SMOOTH",
"271 -68 OFFCURVE",
"314 -33 OFFCURVE",
"314 15 CURVE SMOOTH",
"314 54 OFFCURVE",
"291 73 OFFCURVE",
"242 89 CURVE SMOOTH",
"176 109 LINE SMOOTH",
"91 136 OFFCURVE",
"57 185 OFFCURVE",
"57 241 CURVE SMOOTH",
"57 316 OFFCURVE",
"100 373 OFFCURVE",
"188 398 CURVE",
"190 407 LINE",
"151 438 OFFCURVE",
"136 475 OFFCURVE",
"136 519 CURVE SMOOTH",
"136 576 OFFCURVE",
"159 624 OFFCURVE",
"199 657 CURVE SMOOTH",
"238 690 OFFCURVE",
"293 710 OFFCURVE",
"357 710 CURVE SMOOTH",
"432 710 OFFCURVE",
"501 689 OFFCURVE",
"545 638 CURVE",
"472 567 LINE",
"445 600 OFFCURVE",
"405 618 OFFCURVE",
"346 618 CURVE SMOOTH",
"290 618 OFFCURVE",
"247 587 OFFCURVE",
"247 540 CURVE SMOOTH",
"247 501 OFFCURVE",
"270 482 OFFCURVE",
"319 466 CURVE SMOOTH",
"385 446 LINE SMOOTH",
"472 419 OFFCURVE",
"505 369 OFFCURVE",
"505 313 CURVE SMOOTH",
"505 240 OFFCURVE",
"461 181 OFFCURVE",
"373 157 CURVE",
"372 147 LINE",
"408 118 OFFCURVE",
"426 80 OFFCURVE",
"426 34 CURVE SMOOTH"
);
},
{
closed = 1;
nodes = (
"396 310 OFFCURVE",
"376 337 OFFCURVE",
"323 354 CURVE SMOOTH",
"257 374 LINE SMOOTH",
"245 378 OFFCURVE",
"235 381 OFFCURVE",
"228 386 CURVE",
"184 358 OFFCURVE",
"166 322 OFFCURVE",
"166 283 CURVE SMOOTH",
"166 244 OFFCURVE",
"186 217 OFFCURVE",
"239 200 CURVE SMOOTH",
"304 180 LINE SMOOTH",
"317 176 OFFCURVE",
"326 173 OFFCURVE",
"334 169 CURVE",
"377 196 OFFCURVE",
"396 232 OFFCURVE",
"396 271 CURVE SMOOTH"
);
}
);
width = 556;
}
);
unicode = 00A7;
},
{
glyphname = paragraph;
layers = (
{
layerId = "91171461-3A9C-47E5-8F32-6F9DD13F0C63";
name = "Bold Italic";
paths = (
{
closed = 1;
nodes = (
"231 274 LINE",
"187 274 OFFCURVE",
"147 296 OFFCURVE",
"119 330 CURVE SMOOTH",
"91 364 OFFCURVE",
"73 409 OFFCURVE",
"73 460 CURVE SMOOTH",
"73 525 OFFCURVE",
"99 584 OFFCURVE",
"144 628 CURVE SMOOTH",
"189 671 OFFCURVE",
"251 698 OFFCURVE",
"326 698 CURVE SMOOTH",
"662 698 LINE",
"644 605 LINE",
"583 605 LINE",
"431 -149 LINE",
"338 -149 LINE",
"489 605 LINE",
"391 605 LINE",
"239 -149 LINE",
"146 -149 LINE"
);
}
);
width = 641;
}
);
unicode = 00B6;
},
{
glyphname = copyright;
layers = (
{
layerId = "91171461-3A9C-47E5-8F32-6F9DD13F0C63";
name = "Bold Italic";
paths = (
{
closed = 1;
nodes = (
"264 -12 OFFCURVE",
"192 19 OFFCURVE",
"141 73 CURVE SMOOTH",
"90 127 OFFCURVE",
"61 202 OFFCURVE",
"61 293 CURVE SMOOTH",
"61 412 OFFCURVE",
"104 517 OFFCURVE",
"174 591 CURVE SMOOTH",
"244 665 OFFCURVE",
"343 709 OFFCURVE",
"455 709 CURVE SMOOTH",
"543 709 OFFCURVE",
"615 677 OFFCURVE",
"666 624 CURVE SMOOTH",
"717 571 OFFCURVE",
"746 494 OFFCURVE",
"746 405 CURVE SMOOTH",
"746 285 OFFCURVE",
"704 181 OFFCURVE",
"634 107 CURVE SMOOTH",
"564 33 OFFCURVE",
"464 -12 OFFCURVE",
"352 -12 CURVE SMOOTH"
);
},
{
closed = 1;
nodes = (
"431 49 OFFCURVE",
"501 77 OFFCURVE",
"555 122 CURVE SMOOTH",
"609 166 OFFCURVE",
"646 229 OFFCURVE",
"661 297 CURVE SMOOTH",
"670 341 OFFCURVE",
"676 380 OFFCURVE",
"676 405 CURVE SMOOTH",
"676 478 OFFCURVE",
"653 539 OFFCURVE",
"613 582 CURVE SMOOTH",
"573 625 OFFCURVE",
"516 648 OFFCURVE",
"451 648 CURVE SMOOTH",
"375 648 OFFCURVE",
"307 620 OFFCURVE",
"253 576 CURVE SMOOTH",
"199 531 OFFCURVE",
"159 469 OFFCURVE",
"146 401 CURVE SMOOTH",
"137 357 OFFCURVE",
"131 318 OFFCURVE",
"131 293 CURVE SMOOTH",
"131 218 OFFCURVE",
"154 158 OFFCURVE",
"194 115 CURVE SMOOTH",
"234 72 OFFCURVE",
"289 49 OFFCURVE",
"356 49 CURVE SMOOTH"
);
},
{
closed = 1;
nodes = (
"281 140 OFFCURVE",
"218 205 OFFCURVE",
"218 309 CURVE SMOOTH",
"218 374 OFFCURVE",
"241 438 OFFCURVE",
"279 483 CURVE SMOOTH",
"317 528 OFFCURVE",
"371 558 OFFCURVE",
"432 558 CURVE SMOOTH",
"524 558 OFFCURVE",
"568 510 OFFCURVE",
"587 449 CURVE",
"500 411 LINE",
"492 446 OFFCURVE",
"471 469 OFFCURVE",
"432 469 CURVE SMOOTH",
"383 469 OFFCURVE",
"355 436 OFFCURVE",
"346 389 CURVE SMOOTH",
"332 318 LINE SMOOTH",
"330 308 OFFCURVE",
"329 299 OFFCURVE",
"329 291 CURVE SMOOTH",
"329 254 OFFCURVE",
"352 228 OFFCURVE",
"395 228 CURVE SMOOTH",
"431 228 OFFCURVE",
"458 252 OFFCURVE",
"482 287 CURVE",
"560 243 LINE",
"543 215 OFFCURVE",
"520 190 OFFCURVE",
"491 171 CURVE SMOOTH",
"462 152 OFFCURVE",
"425 140 OFFCURVE",
"381 140 CURVE SMOOTH"
);
}
);
width = 775;
}
);
leftKerningGroup = copyright;
unicode = 00A9;
},
{
glyphname = registered;
layers = (
{
layerId = "91171461-3A9C-47E5-8F32-6F9DD13F0C63";
name = "Bold Italic";
paths = (
{
closed = 1;
nodes = (
"199 297 OFFCURVE",
"154 315 OFFCURVE",
"123 347 CURVE SMOOTH",
"92 378 OFFCURVE",
"74 421 OFFCURVE",
"74 472 CURVE SMOOTH",
"74 541 OFFCURVE",
"99 602 OFFCURVE",
"140 644 CURVE SMOOTH",
"181 686 OFFCURVE",
"238 710 OFFCURVE",
"301 710 CURVE SMOOTH",
"353 710 OFFCURVE",
"397 692 OFFCURVE",
"429 661 CURVE SMOOTH",
"460 629 OFFCURVE",
"478 585 OFFCURVE",
"478 536 CURVE SMOOTH",
"478 467 OFFCURVE",
"452 407 OFFCURVE",
"412 365 CURVE SMOOTH",
"371 323 OFFCURVE",
"314 297 OFFCURVE",
"251 297 CURVE SMOOTH"
);
},
{
closed = 1;
nodes = (
"337 340 OFFCURVE",
"403 394 OFFCURVE",
"422 479 CURVE",
"425 496 OFFCURVE",
"428 509 OFFCURVE",
"429 518 CURVE SMOOTH",
"430 527 OFFCURVE",
"430 534 OFFCURVE",
"430 539 CURVE SMOOTH",
"430 619 OFFCURVE",
"374 668 OFFCURVE",
"295 668 CURVE SMOOTH",
"255 668 OFFCURVE",
"218 654 OFFCURVE",
"189 630 CURVE SMOOTH",
"160 606 OFFCURVE",
"138 572 OFFCURVE",
"130 529 CURVE SMOOTH",
"127 512 OFFCURVE",
"125 499 OFFCURVE",
"124 490 CURVE SMOOTH",
"123 481 OFFCURVE",
"122 474 OFFCURVE",
"122 469 CURVE SMOOTH",
"122 388 OFFCURVE",
"178 340 OFFCURVE",
"257 340 CURVE SMOOTH"
);
},
{
closed = 1;
nodes = (
"231 400 LINE",
"176 400 LINE",
"218 609 LINE",
"305 609 LINE SMOOTH",
"354 609 OFFCURVE",
"375 583 OFFCURVE",
"375 547 CURVE SMOOTH",
"375 516 OFFCURVE",
"356 486 OFFCURVE",
"321 477 CURVE",
"350 400 LINE",
"292 400 LINE",
"268 468 LINE",
"244 468 LINE"
);
},
{
closed = 1;
nodes = (
"283 508 LINE SMOOTH",
"301 508 OFFCURVE",
"312 515 OFFCURVE",
"315 530 CURVE SMOOTH",
"317 539 OFFCURVE",
"318 544 OFFCURVE",
"318 547 CURVE SMOOTH",
"318 560 OFFCURVE",
"310 567 OFFCURVE",
"295 567 CURVE SMOOTH",
"264 567 LINE",
"252 508 LINE"
);
}
);
width = 458;
}
);
leftKerningGroup = registered;
rightKerningGroup = registered;
unicode = 00AE;
},
{
glyphname = trademark;
layers = (
{
layerId = "91171461-3A9C-47E5-8F32-6F9DD13F0C63";
name = "Bold Italic";
paths = (
{
closed = 1;
nodes = (
"122 412 LINE",
"169 643 LINE",
"97 643 LINE",
"108 698 LINE",
"318 698 LINE",
"307 643 LINE",
"238 643 LINE",
"191 412 LINE"
);
},
{
closed = 1;
nodes = (
"294 412 LINE",
"351 698 LINE",
"425 698 LINE",
"461 581 LINE",
"466 581 LINE",
"545 698 LINE",
"627 698 LINE",
"569 412 LINE",
"505 412 LINE",
"526 517 LINE",
"551 608 LINE",
"547 608 LINE",
"442 465 LINE",
"394 608 LINE",
"390 608 LINE",
"379 517 LINE",
"358 412 LINE"
);
}
);
width = 594;
}
);
leftKerningGroup = trademark;
rightKerningGroup = trademark;
unicode = 2122;
},
{
glyphname = ordfeminine;
layers = (
{
layerId = "91171461-3A9C-47E5-8F32-6F9DD13F0C63";
name = "Bold Italic";
paths = (
{
closed = 1;
nodes = (
"404 346 LINE",
"352 346 LINE SMOOTH",
"314 346 OFFCURVE",
"295 362 OFFCURVE",
"295 395 CURVE SMOOTH",
"295 406 LINE",
"291 406 LINE",
"270 365 OFFCURVE",
"230 338 OFFCURVE",
"178 338 CURVE SMOOTH",
"122 338 OFFCURVE",
"79 369 OFFCURVE",
"79 428 CURVE SMOOTH",
"79 505 OFFCURVE",
"136 551 OFFCURVE",
"248 551 CURVE SMOOTH",
"315 551 LINE",
"319 572 LINE",
"322 583 OFFCURVE",
"322 587 OFFCURVE",
"322 594 CURVE SMOOTH",
"322 627 OFFCURVE",
"303 643 OFFCURVE",
"265 643 CURVE SMOOTH",
"224 643 OFFCURVE",
"198 623 OFFCURVE",
"174 596 CURVE",
"123 638 LINE",
"155 679 OFFCURVE",
"203 710 OFFCURVE",
"278 710 CURVE SMOOTH",
"358 710 OFFCURVE",
"414 676 OFFCURVE",
"414 605 CURVE SMOOTH",
"414 594 OFFCURVE",
"413 584 OFFCURVE",
"411 573 CURVE SMOOTH",
"379 413 LINE",
"417 413 LINE"
);
},
{
closed = 1;
nodes = (
"243 500 LINE SMOOTH",
"201 500 OFFCURVE",
"177 485 OFFCURVE",
"171 454 CURVE SMOOTH",
"169 444 OFFCURVE",
"168 437 OFFCURVE",
"168 432 CURVE SMOOTH",
"168 409 OFFCURVE",
"187 399 OFFCURVE",
"215 399 CURVE SMOOTH",
"255 399 OFFCURVE",
"289 420 OFFCURVE",
"296 457 CURVE SMOOTH",
"304 500 LINE"
);
}
);
width = 428;
}
);
unicode = 00AA;
},
{
glyphname = ordmasculine;
layers = (
{
layerId = "91171461-3A9C-47E5-8F32-6F9DD13F0C63";
name = "Bold Italic";
paths = (
{
closed = 1;
nodes = (
"144 337 OFFCURVE",
"88 394 OFFCURVE",
"88 489 CURVE SMOOTH",
"88 546 OFFCURVE",
"107 602 OFFCURVE",
"141 643 CURVE SMOOTH",
"175 684 OFFCURVE",
"225 710 OFFCURVE",
"289 710 CURVE SMOOTH",
"376 710 OFFCURVE",
"433 652 OFFCURVE",
"433 559 CURVE SMOOTH",
"433 500 OFFCURVE",
"415 445 OFFCURVE",
"381 404 CURVE SMOOTH",
"347 363 OFFCURVE",
"296 337 OFFCURVE",
"232 337 CURVE SMOOTH"
);
},
{
closed = 1;
nodes = (
"286 405 OFFCURVE",
"318 440 OFFCURVE",
"329 496 CURVE SMOOTH",
"341 556 LINE SMOOTH",
"343 566 OFFCURVE",
"344 574 OFFCURVE",
"344 579 CURVE SMOOTH",
"344 619 OFFCURVE",
"319 642 OFFCURVE",
"280 642 CURVE SMOOTH",
"235 642 OFFCURVE",
"203 608 OFFCURVE",
"192 552 CURVE SMOOTH",
"180 492 LINE SMOOTH",
"178 482 OFFCURVE",
"177 474 OFFCURVE",
"177 468 CURVE SMOOTH",
"177 429 OFFCURVE",
"202 405 OFFCURVE",
"241 405 CURVE SMOOTH"
);
}
);
width = 416;
}
);
unicode = 00BA;
},
{
glyphname = degree;
layers = (
{
layerId = "91171461-3A9C-47E5-8F32-6F9DD13F0C63";
name = "Bold Italic";
paths = (
{
closed = 1;
nodes = (
"216 343 OFFCURVE",
"176 361 OFFCURVE",
"148 390 CURVE SMOOTH",
"120 419 OFFCURVE",
"103 460 OFFCURVE",
"103 508 CURVE SMOOTH",
"103 565 OFFCURVE",
"125 616 OFFCURVE",
"161 652 CURVE SMOOTH",
"196 688 OFFCURVE",
"246 710 OFFCURVE",
"302 710 CURVE SMOOTH",
"349 710 OFFCURVE",
"389 692 OFFCURVE",
"417 663 CURVE SMOOTH",
"445 634 OFFCURVE",
"462 593 OFFCURVE",
"462 545 CURVE SMOOTH",
"462 486 OFFCURVE",
"440 436 OFFCURVE",
"404 400 CURVE SMOOTH",
"368 364 OFFCURVE",
"319 343 OFFCURVE",
"263 343 CURVE SMOOTH"
);
},
{
closed = 1;
nodes = (
"332 427 OFFCURVE",
"371 479 OFFCURVE",
"371 544 CURVE SMOOTH",
"371 591 OFFCURVE",
"341 626 OFFCURVE",
"292 626 CURVE SMOOTH",
"232 626 OFFCURVE",
"194 574 OFFCURVE",
"194 509 CURVE SMOOTH",
"194 464 OFFCURVE",
"224 427 OFFCURVE",
"272 427 CURVE SMOOTH"
);
}
);
width = 457;
}
);
unicode = 00B0;
},
{
glyphname = asterisk;
layers = (
{
layerId = "91171461-3A9C-47E5-8F32-6F9DD13F0C63";
name = "Bold Italic";
paths = (
{
closed = 1;
nodes = (
"182 281 LINE",
"102 351 LINE",
"240 487 LINE",
"90 535 LINE",
"135 636 LINE",
"284 570 LINE",
"312 747 LINE",
"424 747 LINE",
"383 572 LINE",
"542 634 LINE",
"568 535 LINE",
"394 481 LINE",
"476 340 LINE",
"383 282 LINE",
"312 432 LINE"
);
}
);
width = 552;
}
);
leftKerningGroup = quotesingle;
rightKerningGroup = quotesingle;
unicode = 002A;
},
{
glyphname = dagger;
layers = (
{
layerId = "91171461-3A9C-47E5-8F32-6F9DD13F0C63";
name = "Bold Italic";
paths = (
{
closed = 1;
nodes = (
"112 -200 LINE",
"236 422 LINE",
"60 422 LINE",
"79 516 LINE",
"255 516 LINE",
"300 740 LINE",
"406 740 LINE",
"361 516 LINE",
"534 516 LINE",
"516 422 LINE",
"342 422 LINE",
"218 -200 LINE"
);
}
);
width = 516;
}
);
unicode = 2020;
},
{
glyphname = daggerdbl;
layers = (
{
layerId = "91171461-3A9C-47E5-8F32-6F9DD13F0C63";
name = "Bold Italic";
paths = (
{
closed = 1;
nodes = (
"120 -200 LINE",
"165 24 LINE",
"-9 24 LINE",
"10 118 LINE",
"184 118 LINE",
"245 422 LINE",
"69 422 LINE",
"87 516 LINE",
"264 516 LINE",
"309 740 LINE",
"415 740 LINE",
"370 516 LINE",
"543 516 LINE",
"524 422 LINE",
"351 422 LINE",
"290 118 LINE",
"465 118 LINE",
"446 24 LINE",
"271 24 LINE",
"226 -200 LINE"
);
}
);
width = 532;
}
);
unicode = 2021;
},
{
glyphname = numbersign;
layers = (
{
layerId = "91171461-3A9C-47E5-8F32-6F9DD13F0C63";
name = "Bold Italic";
paths = (
{
closed = 1;
nodes = (
"354 183 LINE",
"205 183 LINE",
"137 0 LINE",
"53 0 LINE",
"121 183 LINE",
"8 183 LINE",
"25 263 LINE",
"151 263 LINE",
"215 435 LINE",
"102 435 LINE",
"118 515 LINE",
"244 515 LINE",
"312 698 LINE",
"396 698 LINE",
"328 515 LINE",
"477 515 LINE",
"545 698 LINE",
"629 698 LINE",
"561 515 LINE",
"673 515 LINE",
"657 435 LINE",
"531 435 LINE",
"467 263 LINE",
"580 263 LINE",
"564 183 LINE",
"438 183 LINE",
"370 0 LINE",
"286 0 LINE"
);
},
{
closed = 1;
nodes = (
"383 263 LINE",
"448 435 LINE",
"299 435 LINE",
"234 263 LINE"
);
}
);
width = 652;
}
);
unicode = 0023;
},
{
glyphname = asciicircum;
layers = (
{
layerId = "91171461-3A9C-47E5-8F32-6F9DD13F0C63";
name = "Bold Italic";
paths = (
{
closed = 1;
nodes = (
"474 285 LINE",
"368 572 LINE",
"359 572 LINE",
"147 285 LINE",
"56 339 LINE",
"322 698 LINE",
"439 698 LINE",
"575 325 LINE"
);
}
);
width = 600;
}
);
unicode = 005E;
},
{
glyphname = asciitilde;
layers = (
{
layerId = "91171461-3A9C-47E5-8F32-6F9DD13F0C63";
name = "Bold Italic";
paths = (
{
closed = 1;
nodes = (
"351 218 OFFCURVE",
"324 236 OFFCURVE",
"285 257 CURVE SMOOTH",
"250 276 OFFCURVE",
"224 291 OFFCURVE",
"184 291 CURVE SMOOTH",
"153 291 OFFCURVE",
"132 281 OFFCURVE",
"99 261 CURVE",
"66 335 LINE",
"95 367 OFFCURVE",
"138 392 OFFCURVE",
"203 392 CURVE SMOOTH",
"255 392 OFFCURVE",
"282 375 OFFCURVE",
"321 354 CURVE SMOOTH",
"356 335 OFFCURVE",
"383 320 OFFCURVE",
"423 320 CURVE SMOOTH",
"454 320 OFFCURVE",
"475 329 OFFCURVE",
"507 350 CURVE",
"540 275 LINE",
"511 244 OFFCURVE",
"468 218 OFFCURVE",
"403 218 CURVE SMOOTH"
);
}
);
width = 600;
}
);
unicode = 007E;
},
{
glyphname = plus;
layers = (
{
layerId = "91171461-3A9C-47E5-8F32-6F9DD13F0C63";
name = "Bold Italic";
paths = (
{
closed = 1;
nodes = (
"205 62 LINE",
"243 255 LINE",
"68 255 LINE",
"88 356 LINE",
"263 356 LINE",
"301 548 LINE",
"411 548 LINE",
"373 356 LINE",
"547 356 LINE",
"528 255 LINE",
"353 255 LINE",
"315 62 LINE"
);
}
);
width = 600;
}
);
unicode = 002B;
},
{
glyphname = minus;
layers = (
{
layerId = "91171461-3A9C-47E5-8F32-6F9DD13F0C63";
name = "Bold Italic";
paths = (
{
closed = 1;
nodes = (
"68 255 LINE",
"88 356 LINE",
"547 356 LINE",
"527 255 LINE"
);
}
);
width = 600;
}
);
unicode = 2212;
},
{
glyphname = plusminus;
layers = (
{
layerId = "91171461-3A9C-47E5-8F32-6F9DD13F0C63";
name = "Bold Italic";
paths = (
{
closed = 1;
nodes = (
"228 175 LINE",
"263 352 LINE",
"88 352 LINE",
"107 453 LINE",
"283 453 LINE",
"318 629 LINE",
"428 629 LINE",
"393 453 LINE",
"567 453 LINE",
"547 352 LINE",
"372 352 LINE",
"337 175 LINE"
);
},
{
closed = 1;
nodes = (
"19 0 LINE",
"38 101 LINE",
"497 101 LINE",
"477 0 LINE"
);
}
);
width = 600;
}
);
unicode = 00B1;
},
{
glyphname = multiply;
layers = (
{
layerId = "91171461-3A9C-47E5-8F32-6F9DD13F0C63";
name = "Bold Italic";
paths = (
{
closed = 1;
nodes = (
"302 230 LINE",
"129 81 LINE",
"65 158 LINE",
"240 310 LINE",
"125 459 LINE",
"209 529 LINE",
"322 380 LINE",
"495 529 LINE",
"559 452 LINE",
"384 300 LINE",
"498 151 LINE",
"415 81 LINE"
);
}
);
width = 600;
}
);
unicode = 00D7;
},
{
glyphname = divide;
layers = (
{
layerId = "91171461-3A9C-47E5-8F32-6F9DD13F0C63";
name = "Bold Italic";
paths = (
{
closed = 1;
nodes = (
"69 255 LINE",
"90 357 LINE",
"549 357 LINE",
"528 255 LINE"
);
},
{
closed = 1;
nodes = (
"208 36 OFFCURVE",
"191 58 OFFCURVE",
"191 83 CURVE SMOOTH",
"191 92 OFFCURVE",
"193 110 OFFCURVE",
"196 122 CURVE SMOOTH",
"204 159 OFFCURVE",
"227 184 OFFCURVE",
"282 184 CURVE SMOOTH",
"333 184 OFFCURVE",
"350 164 OFFCURVE",
"350 137 CURVE SMOOTH",
"350 128 OFFCURVE",
"348 110 OFFCURVE",
"345 98 CURVE SMOOTH",
"337 61 OFFCURVE",
"314 36 OFFCURVE",
"259 36 CURVE SMOOTH"
);
},
{
closed = 1;
nodes = (
"285 427 OFFCURVE",
"268 447 OFFCURVE",
"268 474 CURVE SMOOTH",
"268 483 OFFCURVE",
"270 501 OFFCURVE",
"273 513 CURVE SMOOTH",
"281 550 OFFCURVE",
"304 575 OFFCURVE",
"359 575 CURVE SMOOTH",
"410 575 OFFCURVE",
"427 553 OFFCURVE",
"427 528 CURVE SMOOTH",
"427 519 OFFCURVE",
"425 501 OFFCURVE",
"422 489 CURVE SMOOTH",
"414 452 OFFCURVE",
"391 427 OFFCURVE",
"336 427 CURVE SMOOTH"
);
}
);
width = 600;
}
);
unicode = 00F7;
},
{
glyphname = equal;
layers = (
{
layerId = "91171461-3A9C-47E5-8F32-6F9DD13F0C63";
name = "Bold Italic";
paths = (
{
closed = 1;
nodes = (
"92 367 LINE",
"112 468 LINE",
"571 468 LINE",
"551 367 LINE"
);
},
{
closed = 1;
nodes = (
"48 144 LINE",
"68 245 LINE",
"527 245 LINE",
"507 144 LINE"
);
}
);
width = 600;
}
);
unicode = 003D;
},
{
glyphname = approxequal;
layers = (
{
layerId = "91171461-3A9C-47E5-8F32-6F9DD13F0C63";
name = "Bold Italic";
paths = (
{
closed = 1;
nodes = (
"369 328 OFFCURVE",
"342 346 OFFCURVE",
"303 367 CURVE SMOOTH",
"268 386 OFFCURVE",
"242 401 OFFCURVE",
"202 401 CURVE SMOOTH",
"171 401 OFFCURVE",
"150 391 OFFCURVE",
"117 371 CURVE",
"84 445 LINE",
"113 477 OFFCURVE",
"156 502 OFFCURVE",
"221 502 CURVE SMOOTH",
"273 502 OFFCURVE",
"300 485 OFFCURVE",
"339 464 CURVE SMOOTH",
"374 445 OFFCURVE",
"401 430 OFFCURVE",
"441 430 CURVE SMOOTH",
"472 430 OFFCURVE",
"493 439 OFFCURVE",
"525 460 CURVE",
"558 385 LINE",
"529 354 OFFCURVE",
"486 328 OFFCURVE",
"421 328 CURVE SMOOTH"
);
},
{
closed = 1;
nodes = (
"334 109 OFFCURVE",
"307 127 OFFCURVE",
"268 148 CURVE SMOOTH",
"233 167 OFFCURVE",
"207 182 OFFCURVE",
"167 182 CURVE SMOOTH",
"136 182 OFFCURVE",
"115 172 OFFCURVE",
"82 152 CURVE",
"49 226 LINE",
"78 258 OFFCURVE",
"121 283 OFFCURVE",
"186 283 CURVE SMOOTH",
"238 283 OFFCURVE",
"265 266 OFFCURVE",
"304 245 CURVE SMOOTH",
"339 226 OFFCURVE",
"366 211 OFFCURVE",
"406 211 CURVE SMOOTH",
"437 211 OFFCURVE",
"458 220 OFFCURVE",
"490 241 CURVE",
"523 166 LINE",
"494 135 OFFCURVE",
"451 109 OFFCURVE",
"386 109 CURVE SMOOTH"
);
}
);
width = 600;
}
);
unicode = 2248;
},
{
glyphname = notequal;
layers = (
{
layerId = "91171461-3A9C-47E5-8F32-6F9DD13F0C63";
name = "Bold Italic";
paths = (
{
closed = 1;
nodes = (
"68 47 LINE",
"138 144 LINE",
"48 144 LINE",
"68 244 LINE",
"215 244 LINE",
"301 368 LINE",
"92 368 LINE",
"112 468 LINE",
"371 468 LINE",
"441 565 LINE",
"551 565 LINE",
"481 468 LINE",
"571 468 LINE",
"551 368 LINE",
"404 368 LINE",
"318 244 LINE",
"527 244 LINE",
"507 144 LINE",
"248 144 LINE",
"178 47 LINE"
);
}
);
width = 600;
}
);
unicode = 2260;
},
{
glyphname = less;
layers = (
{
layerId = "91171461-3A9C-47E5-8F32-6F9DD13F0C63";
name = "Bold Italic";
paths = (
{
closed = 1;
nodes = (
"97 253 LINE",
"114 337 LINE",
"563 592 LINE",
"536 455 LINE",
"237 291 LINE",
"235 283 LINE",
"468 117 LINE",
"443 -5 LINE"
);
}
);
width = 600;
}
);
unicode = 003C;
},
{
glyphname = greater;
layers = (
{
layerId = "91171461-3A9C-47E5-8F32-6F9DD13F0C63";
name = "Bold Italic";
paths = (
{
closed = 1;
nodes = (
"79 133 LINE",
"379 299 LINE",
"381 306 LINE",
"147 471 LINE",
"172 592 LINE",
"518 336 LINE",
"501 252 LINE",
"52 -5 LINE"
);
}
);
width = 600;
}
);
unicode = 003E;
},
{
glyphname = lessequal;
layers = (
{
layerId = "91171461-3A9C-47E5-8F32-6F9DD13F0C63";
name = "Bold Italic";
paths = (
{
closed = 1;
nodes = (
"41 0 LINE",
"61 101 LINE",
"475 101 LINE",
"455 0 LINE"
);
},
{
closed = 1;
nodes = (
"551 482 LINE",
"243 368 LINE",
"242 361 LINE",
"504 244 LINE",
"482 136 LINE",
"104 317 LINE",
"125 419 LINE",
"574 597 LINE"
);
}
);
width = 600;
}
);
unicode = 2264;
},
{
glyphname = greaterequal;
layers = (
{
layerId = "91171461-3A9C-47E5-8F32-6F9DD13F0C63";
name = "Bold Italic";
paths = (
{
closed = 1;
nodes = (
"92 252 LINE",
"399 366 LINE",
"400 373 LINE",
"139 489 LINE",
"161 598 LINE",
"539 416 LINE",
"518 314 LINE",
"69 137 LINE"
);
},
{
closed = 1;
nodes = (
"62 101 LINE",
"476 101 LINE",
"456 0 LINE",
"42 0 LINE"
);
}
);
width = 600;
}
);
unicode = 2265;
},
{
glyphname = periodcentered;
layers = (
{
layerId = "91171461-3A9C-47E5-8F32-6F9DD13F0C63";
name = "Bold Italic";
paths = (
{
closed = 1;
nodes = (
"118 221 OFFCURVE",
"98 247 OFFCURVE",
"98 276 CURVE SMOOTH",
"98 287 OFFCURVE",
"101 306 OFFCURVE",
"104 318 CURVE",
"111 357 OFFCURVE",
"139 386 OFFCURVE",
"191 386 CURVE SMOOTH",
"240 386 OFFCURVE",
"260 360 OFFCURVE",
"260 332 CURVE SMOOTH",
"260 321 OFFCURVE",
"257 303 OFFCURVE",
"254 290 CURVE",
"247 251 OFFCURVE",
"219 221 OFFCURVE",
"166 221 CURVE SMOOTH"
);
}
);
width = 341;
}
);
unicode = 00B7;
},
{
glyphname = bullet;
layers = (
{
layerId = "91171461-3A9C-47E5-8F32-6F9DD13F0C63";
name = "Bold Italic";
paths = (
{
closed = 1;
nodes = (
"100 159 OFFCURVE",
"66 196 OFFCURVE",
"66 252 CURVE SMOOTH",
"66 255 OFFCURVE",
"67 262 OFFCURVE",
"68 273 CURVE SMOOTH",
"69 283 OFFCURVE",
"72 297 OFFCURVE",
"75 315 CURVE SMOOTH",
"88 384 OFFCURVE",
"134 437 OFFCURVE",
"233 437 CURVE SMOOTH",
"326 437 OFFCURVE",
"361 400 OFFCURVE",
"361 344 CURVE SMOOTH",
"361 331 OFFCURVE",
"358 309 OFFCURVE",
"351 281 CURVE",
"344 245 OFFCURVE",
"330 216 OFFCURVE",
"304 194 CURVE SMOOTH",
"278 172 OFFCURVE",
"242 159 OFFCURVE",
"193 159 CURVE SMOOTH"
);
}
);
width = 411;
}
);
unicode = 2022;
},
{
glyphname = lozenge;
layers = (
{
layerId = "91171461-3A9C-47E5-8F32-6F9DD13F0C63";
name = "Bold Italic";
paths = (
{
closed = 1;
nodes = (
"213 0 LINE",
"75 351 LINE",
"335 698 LINE",
"416 698 LINE",
"555 347 LINE",
"295 0 LINE"
);
},
{
closed = 1;
nodes = (
"276 124 LINE",
"445 353 LINE",
"359 574 LINE",
"353 574 LINE",
"185 345 LINE",
"270 124 LINE"
);
}
);
width = 599;
}
);
unicode = 25CA;
},
{
glyphname = logicalnot;
layers = (
{
layerId = "91171461-3A9C-47E5-8F32-6F9DD13F0C63";
name = "Bold Italic";
paths = (
{
closed = 1;
nodes = (
"377 78 LINE",
"413 255 LINE",
"67 255 LINE",
"87 357 LINE",
"537 357 LINE",
"481 78 LINE"
);
}
);
width = 600;
}
);
unicode = 00AC;
},
{
glyphname = radical;
layers = (
{
layerId = "91171461-3A9C-47E5-8F32-6F9DD13F0C63";
name = "Bold Italic";
paths = (
{
closed = 1;
nodes = (
"169 0 LINE",
"132 418 LINE",
"51 418 LINE",
"72 522 LINE",
"233 522 LINE",
"248 330 LINE",
"260 93 LINE",
"267 93 LINE",
"371 330 LINE",
"546 698 LINE",
"658 698 LINE",
"324 0 LINE"
);
}
);
width = 594;
}
);
unicode = 221A;
},
{
glyphname = integral;
layers = (
{
layerId = "91171461-3A9C-47E5-8F32-6F9DD13F0C63";
name = "Bold Italic";
paths = (
{
closed = 1;
nodes = (
"-31 -101 LINE",
"78 -101 LINE",
"219 599 LINE SMOOTH",
"238 691 OFFCURVE",
"291 740 OFFCURVE",
"392 740 CURVE SMOOTH",
"478 740 LINE",
"457 641 LINE",
"348 641 LINE",
"207 -60 LINE SMOOTH",
"188 -151 OFFCURVE",
"135 -200 OFFCURVE",
"35 -200 CURVE SMOOTH",
"-51 -200 LINE"
);
}
);
width = 436;
}
);
unicode = 222B;
},
{
glyphname = infinity;
layers = (
{
layerId = "91171461-3A9C-47E5-8F32-6F9DD13F0C63";
name = "Bold Italic";
paths = (
{
closed = 1;
nodes = (
"76 94 OFFCURVE",
"19 149 OFFCURVE",
"19 249 CURVE SMOOTH",
"19 321 OFFCURVE",
"44 382 OFFCURVE",
"85 426 CURVE SMOOTH",
"125 470 OFFCURVE",
"182 496 OFFCURVE",
"247 496 CURVE SMOOTH",
"330 496 OFFCURVE",
"393 459 OFFCURVE",
"416 358 CURVE",
"420 358 LINE",
"451 455 OFFCURVE",
"521 496 OFFCURVE",
"596 496 CURVE SMOOTH",
"692 496 OFFCURVE",
"749 441 OFFCURVE",
"749 340 CURVE SMOOTH",
"749 268 OFFCURVE",
"724 207 OFFCURVE",
"684 164 CURVE SMOOTH",
"643 120 OFFCURVE",
"586 94 OFFCURVE",
"521 94 CURVE SMOOTH",
"481 94 OFFCURVE",
"444 103 OFFCURVE",
"415 125 CURVE SMOOTH",
"386 147 OFFCURVE",
"364 181 OFFCURVE",
"353 232 CURVE",
"349 232 LINE",
"333 183 OFFCURVE",
"308 149 OFFCURVE",
"277 127 CURVE SMOOTH",
"245 105 OFFCURVE",
"209 94 OFFCURVE",
"172 94 CURVE SMOOTH"
);
},
{
closed = 1;
nodes = (
"258 193 OFFCURVE",
"304 231 OFFCURVE",
"333 287 CURVE",
"325 348 OFFCURVE",
"302 396 OFFCURVE",
"243 396 CURVE SMOOTH",
"194 396 OFFCURVE",
"151 366 OFFCURVE",
"138 306 CURVE",
"137 298 OFFCURVE",
"135 290 OFFCURVE",
"134 282 CURVE",
"132 274 OFFCURVE",
"131 267 OFFCURVE",
"131 260 CURVE SMOOTH",
"131 217 OFFCURVE",
"157 193 OFFCURVE",
"201 193 CURVE SMOOTH"
);
},
{
closed = 1;
nodes = (
"574 193 OFFCURVE",
"617 223 OFFCURVE",
"630 284 CURVE",
"634 299 OFFCURVE",
"637 316 OFFCURVE",
"637 329 CURVE SMOOTH",
"637 374 OFFCURVE",
"614 396 OFFCURVE",
"567 396 CURVE SMOOTH",
"510 396 OFFCURVE",
"464 359 OFFCURVE",
"435 303 CURVE",
"444 240 OFFCURVE",
"466 193 OFFCURVE",
"525 193 CURVE SMOOTH"
);
}
);
width = 757;
}
);
unicode = 221E;
},
{
glyphname = uni212E;
layers = (
{
layerId = "91171461-3A9C-47E5-8F32-6F9DD13F0C63";
name = "Bold Italic";
paths = (
{
closed = 1;
nodes = (
"204 94 LINE",
"243 66 OFFCURVE",
"294 46 OFFCURVE",
"359 46 CURVE SMOOTH",
"479 46 OFFCURVE",
"555 106 OFFCURVE",
"603 195 CURVE",
"655 165 LINE",
"628 114 OFFCURVE",
"591 70 OFFCURVE",
"541 39 CURVE SMOOTH",
"491 7 OFFCURVE",
"430 -12 OFFCURVE",
"359 -12 CURVE SMOOTH",
"264 -12 OFFCURVE",
"184 23 OFFCURVE",
"125 86 CURVE SMOOTH",
"66 149 OFFCURVE",
"32 238 OFFCURVE",
"32 349 CURVE SMOOTH",
"32 458 OFFCURVE",
"66 549 OFFCURVE",
"125 612 CURVE SMOOTH",
"184 675 OFFCURVE",
"264 710 OFFCURVE",
"359 710 CURVE SMOOTH",
"452 710 OFFCURVE",
"534 675 OFFCURVE",
"593 612 CURVE SMOOTH",
"652 549 OFFCURVE",
"686 458 OFFCURVE",
"686 349 CURVE",
"204 349 LINE"
);
},
{
closed = 1;
nodes = (
"513 404 LINE",
"513 607 LINE",
"474 635 OFFCURVE",
"423 655 OFFCURVE",
"359 655 CURVE SMOOTH",
"294 655 OFFCURVE",
"243 635 OFFCURVE",
"204 607 CURVE",
"204 404 LINE"
);
}
);
width = 718;
}
);
unicode = 212E;
},
{
glyphname = uni2113;
layers = (
{
layerId = "91171461-3A9C-47E5-8F32-6F9DD13F0C63";
name = "Bold Italic";
paths = (
{
closed = 1;
nodes = (
"241 -12 OFFCURVE",
"199 5 OFFCURVE",
"170 34 CURVE SMOOTH",
"141 63 OFFCURVE",
"123 106 OFFCURVE",
"123 159 CURVE SMOOTH",
"123 175 LINE",
"118 171 OFFCURVE",
"108 165 OFFCURVE",
"97 158 CURVE SMOOTH",
"86 151 OFFCURVE",
"75 144 OFFCURVE",
"68 140 CURVE",
"21 219 LINE",
"38 229 OFFCURVE",
"57 240 OFFCURVE",
"77 251 CURVE SMOOTH",
"96 262 OFFCURVE",
"112 272 OFFCURVE",
"123 281 CURVE",
"123 545 LINE SMOOTH",
"123 621 OFFCURVE",
"140 672 OFFCURVE",
"169 705 CURVE SMOOTH",
"198 738 OFFCURVE",
"238 752 OFFCURVE",
"286 752 CURVE SMOOTH",
"389 752 OFFCURVE",
"444 688 OFFCURVE",
"444 577 CURVE SMOOTH",
"444 453 OFFCURVE",
"372 349 OFFCURVE",
"228 234 CURVE",
"228 174 LINE SMOOTH",
"228 111 OFFCURVE",
"254 88 OFFCURVE",
"295 88 CURVE SMOOTH",
"342 88 OFFCURVE",
"376 118 OFFCURVE",
"408 203 CURVE",
"496 165 LINE",
"479 116 OFFCURVE",
"454 71 OFFCURVE",
"420 39 CURVE SMOOTH",
"386 7 OFFCURVE",
"342 -12 OFFCURVE",
"289 -12 CURVE SMOOTH"
);
},
{
closed = 1;
nodes = (
"253 650 OFFCURVE",
"228 626 OFFCURVE",
"228 566 CURVE SMOOTH",
"228 350 LINE",
"296 414 OFFCURVE",
"337 485 OFFCURVE",
"337 556 CURVE SMOOTH",
"337 573 LINE SMOOTH",
"337 629 OFFCURVE",
"314 650 OFFCURVE",
"285 650 CURVE SMOOTH"
);
}
);
width = 519;
}
);
unicode = 2113;
},
{
glyphname = uni2116;
layers = (
{
layerId = "91171461-3A9C-47E5-8F32-6F9DD13F0C63";
name = "Bold Italic";
paths = (
{
closed = 1;
nodes = (
"807 360 OFFCURVE",
"772 373 OFFCURVE",
"748 397 CURVE SMOOTH",
"723 421 OFFCURVE",
"708 456 OFFCURVE",
"708 503 CURVE SMOOTH",
"708 555 OFFCURVE",
"726 607 OFFCURVE",
"759 646 CURVE SMOOTH",
"791 685 OFFCURVE",
"838 710 OFFCURVE",
"898 710 CURVE SMOOTH",
"977 710 OFFCURVE",
"1035 659 OFFCURVE",
"1035 567 CURVE SMOOTH",
"1035 515 OFFCURVE",
"1017 463 OFFCURVE",
"985 424 CURVE SMOOTH",
"952 385 OFFCURVE",
"905 360 OFFCURVE",
"846 360 CURVE SMOOTH"
);
},
{
closed = 1;
nodes = (
"27 0 LINE",
"167 698 LINE",
"312 698 LINE",
"417 337 LINE",
"455 191 LINE",
"460 191 LINE",
"561 698 LINE",
"678 698 LINE",
"538 0 LINE",
"393 0 LINE",
"289 359 LINE",
"251 507 LINE",
"245 507 LINE",
"144 0 LINE"
);
},
{
closed = 1;
nodes = (
"893 432 OFFCURVE",
"920 460 OFFCURVE",
"931 512 CURVE SMOOTH",
"940 557 LINE SMOOTH",
"942 567 OFFCURVE",
"943 576 OFFCURVE",
"943 583 CURVE SMOOTH",
"943 618 OFFCURVE",
"925 638 OFFCURVE",
"890 638 CURVE SMOOTH",
"851 638 OFFCURVE",
"824 609 OFFCURVE",
"813 558 CURVE SMOOTH",
"803 513 LINE SMOOTH",
"801 503 OFFCURVE",
"800 494 OFFCURVE",
"800 487 CURVE SMOOTH",
"800 452 OFFCURVE",
"819 432 OFFCURVE",
"854 432 CURVE SMOOTH"
);
},
{
closed = 1;
nodes = (
"660 226 LINE",
"675 300 LINE",
"976 300 LINE",
"961 226 LINE"
);
}
);
width = 1017;
}
);
unicode = 2116;
},
{
glyphname = partialdiff;
layers = (
{
layerId = "91171461-3A9C-47E5-8F32-6F9DD13F0C63";
name = "Bold Italic";
paths = (
{
closed = 1;
nodes = (
"107 -12 OFFCURVE",
"36 71 OFFCURVE",
"36 206 CURVE SMOOTH",
"36 289 OFFCURVE",
"62 363 OFFCURVE",
"104 417 CURVE SMOOTH",
"146 471 OFFCURVE",
"204 504 OFFCURVE",
"272 504 CURVE SMOOTH",
"345 504 OFFCURVE",
"391 463 OFFCURVE",
"410 402 CURVE",
"417 402 LINE",
"406 471 OFFCURVE",
"370 533 OFFCURVE",
"326 583 CURVE SMOOTH",
"281 633 OFFCURVE",
"229 671 OFFCURVE",
"189 698 CURVE",
"360 698 LINE",
"460 618 OFFCURVE",
"527 507 OFFCURVE",
"527 350 CURVE SMOOTH",
"527 246 OFFCURVE",
"503 155 OFFCURVE",
"455 91 CURVE SMOOTH",
"407 27 OFFCURVE",
"335 -12 OFFCURVE",
"242 -12 CURVE SMOOTH"
);
},
{
closed = 1;
nodes = (
"319 85 OFFCURVE",
"363 135 OFFCURVE",
"376 207 CURVE SMOOTH",
"388 270 LINE SMOOTH",
"391 286 OFFCURVE",
"393 302 OFFCURVE",
"393 315 CURVE SMOOTH",
"393 374 OFFCURVE",
"358 406 OFFCURVE",
"299 406 CURVE SMOOTH",
"231 406 OFFCURVE",
"188 356 OFFCURVE",
"175 284 CURVE SMOOTH",
"163 220 LINE SMOOTH",
"160 203 OFFCURVE",
"158 189 OFFCURVE",
"158 176 CURVE SMOOTH",
"158 117 OFFCURVE",
"194 85 OFFCURVE",
"251 85 CURVE SMOOTH"
);
}
);
width = 568;
}
);
unicode = 2202;
},
{
glyphname = cent;
layers = (
{
layerId = "91171461-3A9C-47E5-8F32-6F9DD13F0C63";
name = "Bold Italic";
paths = (
{
closed = 1;
nodes = (
"179 -4 LINE",
"91 19 OFFCURVE",
"37 98 OFFCURVE",
"37 215 CURVE SMOOTH",
"37 292 OFFCURVE",
"60 366 OFFCURVE",
"103 422 CURVE SMOOTH",
"146 478 OFFCURVE",
"208 517 OFFCURVE",
"285 526 CURVE",
"306 630 LINE",
"404 630 LINE",
"382 522 LINE",
"449 505 OFFCURVE",
"492 461 OFFCURVE",
"511 402 CURVE",
"414 355 LINE",
"406 388 OFFCURVE",
"387 413 OFFCURVE",
"355 425 CURVE",
"288 89 LINE",
"328 100 OFFCURVE",
"358 127 OFFCURVE",
"385 168 CURVE",
"468 118 LINE",
"424 46 OFFCURVE",
"364 2 OFFCURVE",
"276 -9 CURVE",
"255 -114 LINE",
"157 -114 LINE"
);
},
{
closed = 1;
nodes = (
"154 141 OFFCURVE",
"171 109 OFFCURVE",
"206 94 CURVE",
"272 424 LINE",
"221 408 OFFCURVE",
"187 366 OFFCURVE",
"175 306 CURVE SMOOTH",
"158 218 LINE",
"155 207 OFFCURVE",
"154 196 OFFCURVE",
"154 184 CURVE SMOOTH"
);
}
);
width = 523;
}
);
unicode = 00A2;
},
{
glyphname = Euro;
layers = (
{
layerId = "91171461-3A9C-47E5-8F32-6F9DD13F0C63";
name = "Bold Italic";
paths = (
{
closed = 1;
nodes = (
"229 -12 OFFCURVE",
"169 12 OFFCURVE",
"126 60 CURVE SMOOTH",
"82 108 OFFCURVE",
"56 180 OFFCURVE",
"56 276 CURVE SMOOTH",
"56 404 OFFCURVE",
"98 513 OFFCURVE",
"163 589 CURVE SMOOTH",
"227 665 OFFCURVE",
"315 710 OFFCURVE",
"406 710 CURVE SMOOTH",
"518 710 OFFCURVE",
"595 663 OFFCURVE",
"628 578 CURVE",
"528 517 LINE",
"509 573 OFFCURVE",
"472 605 OFFCURVE",
"399 605 CURVE SMOOTH",
"322 605 OFFCURVE",
"259 555 OFFCURVE",
"227 471 CURVE",
"461 471 LINE",
"444 389 LINE",
"207 389 LINE",
"190 309 LINE",
"428 309 LINE",
"411 227 LINE",
"183 227 LINE",
"188 142 OFFCURVE",
"236 93 OFFCURVE",
"308 93 CURVE SMOOTH",
"349 93 OFFCURVE",
"382 104 OFFCURVE",
"408 123 CURVE SMOOTH",
"434 142 OFFCURVE",
"453 166 OFFCURVE",
"469 193 CURVE",
"548 125 LINE",
"492 41 OFFCURVE",
"415 -12 OFFCURVE",
"296 -12 CURVE SMOOTH"
);
}
);
width = 613;
}
);
unicode = 20AC;
},
{
glyphname = florin;
layers = (
{
layerId = "91171461-3A9C-47E5-8F32-6F9DD13F0C63";
name = "Bold Italic";
paths = (
{
closed = 1;
nodes = (
"-40 -35 LINE",
"84 -35 LINE",
"166 269 LINE",
"60 269 LINE",
"81 371 LINE",
"195 371 LINE",
"247 564 LINE SMOOTH",
"270 647 OFFCURVE",
"326 698 OFFCURVE",
"423 698 CURVE SMOOTH",
"530 698 LINE",
"510 599 LINE",
"380 599 LINE",
"319 371 LINE",
"461 371 LINE",
"441 269 LINE",
"291 269 LINE",
"218 -1 LINE SMOOTH",
"195 -85 OFFCURVE",
"137 -134 OFFCURVE",
"41 -134 CURVE SMOOTH",
"-60 -134 LINE"
);
}
);
width = 475;
}
);
unicode = 0192;
},
{
glyphname = sterling;
layers = (
{
layerId = "91171461-3A9C-47E5-8F32-6F9DD13F0C63";
name = "Bold Italic";
paths = (
{
closed = 1;
nodes = (
"29 0 LINE",
"54 125 LINE",
"126 156 OFFCURVE",
"156 225 OFFCURVE",
"156 290 CURVE",
"58 290 LINE",
"79 393 LINE",
"145 393 LINE",
"142 412 OFFCURVE",
"140 432 OFFCURVE",
"140 453 CURVE SMOOTH",
"140 525 OFFCURVE",
"166 590 OFFCURVE",
"213 636 CURVE SMOOTH",
"260 682 OFFCURVE",
"325 710 OFFCURVE",
"405 710 CURVE SMOOTH",
"509 710 OFFCURVE",
"572 668 OFFCURVE",
"616 591 CURVE",
"515 525 LINE",
"488 576 OFFCURVE",
"455 598 OFFCURVE",
"396 598 CURVE SMOOTH",
"315 598 OFFCURVE",
"266 541 OFFCURVE",
"266 445 CURVE SMOOTH",
"266 426 OFFCURVE",
"267 408 OFFCURVE",
"270 393 CURVE",
"466 393 LINE",
"445 290 LINE",
"283 290 LINE",
"280 246 OFFCURVE",
"267 210 OFFCURVE",
"248 181 CURVE SMOOTH",
"228 152 OFFCURVE",
"203 131 OFFCURVE",
"180 118 CURVE",
"178 110 LINE",
"510 110 LINE",
"488 0 LINE"
);
}
);
width = 587;
}
);
unicode = 00A3;
},
{
glyphname = dollar;
layers = (
{
layerId = "91171461-3A9C-47E5-8F32-6F9DD13F0C63";
name = "Bold Italic";
paths = (
{
closed = 1;
nodes = (
"180 9 LINE",
"100 22 OFFCURVE",
"33 58 OFFCURVE",
"0 114 CURVE",
"83 188 LINE",
"110 143 OFFCURVE",
"156 117 OFFCURVE",
"209 106 CURVE",
"250 312 LINE",
"135 337 OFFCURVE",
"83 393 OFFCURVE",
"83 485 CURVE SMOOTH",
"83 542 OFFCURVE",
"104 592 OFFCURVE",
"144 629 CURVE SMOOTH",
"184 665 OFFCURVE",
"243 689 OFFCURVE",
"318 693 CURVE",
"336 780 LINE",
"431 780 LINE",
"412 687 LINE",
"483 675 OFFCURVE",
"536 644 OFFCURVE",
"567 593 CURVE",
"482 521 LINE",
"463 553 OFFCURVE",
"430 579 OFFCURVE",
"383 590 CURVE",
"345 402 LINE",
"457 377 OFFCURVE",
"514 323 OFFCURVE",
"514 231 CURVE SMOOTH",
"514 176 OFFCURVE",
"494 123 OFFCURVE",
"454 82 CURVE SMOOTH",
"414 41 OFFCURVE",
"354 13 OFFCURVE",
"275 6 CURVE",
"258 -82 LINE",
"163 -82 LINE"
);
},
{
closed = 1;
nodes = (
"395 251 OFFCURVE",
"377 280 OFFCURVE",
"324 295 CURVE",
"288 105 LINE",
"327 110 OFFCURVE",
"354 125 OFFCURVE",
"371 145 CURVE SMOOTH",
"387 164 OFFCURVE",
"395 188 OFFCURVE",
"395 212 CURVE SMOOTH"
);
},
{
closed = 1;
nodes = (
"202 460 OFFCURVE",
"225 433 OFFCURVE",
"272 420 CURVE",
"305 594 LINE",
"234 586 OFFCURVE",
"202 547 OFFCURVE",
"202 499 CURVE SMOOTH"
);
}
);
width = 566;
}
);
unicode = 0024;
},
{
glyphname = yen;
layers = (
{
layerId = "91171461-3A9C-47E5-8F32-6F9DD13F0C63";
name = "Bold Italic";
paths = (
{
closed = 1;
nodes = (
"347 138 LINE",
"319 0 LINE",
"193 0 LINE",
"220 138 LINE",
"57 138 LINE",
"73 220 LINE",
"237 220 LINE",
"252 297 LINE",
"89 297 LINE",
"105 379 LINE",
"218 379 LINE",
"114 698 LINE",
"248 698 LINE",
"334 414 LINE",
"338 414 LINE",
"536 698 LINE",
"683 698 LINE",
"448 379 LINE",
"562 379 LINE",
"545 297 LINE",
"379 297 LINE",
"364 220 LINE",
"530 220 LINE",
"513 138 LINE"
);
}
);
width = 620;
}
);
unicode = 00A5;
},
{
glyphname = uni0E3F;
layers = (
{
layerId = "91171461-3A9C-47E5-8F32-6F9DD13F0C63";
name = "Bold Italic";
paths = (
{
closed = 1;
nodes = (
"297 -87 LINE",
"199 -87 LINE",
"220 20 LINE",
"31 20 LINE",
"163 677 LINE",
"352 677 LINE",
"373 780 LINE",
"470 780 LINE",
"449 677 LINE",
"562 674 OFFCURVE",
"622 615 OFFCURVE",
"622 531 CURVE SMOOTH",
"622 447 OFFCURVE",
"565 390 OFFCURVE",
"484 369 CURVE",
"483 365 LINE",
"546 350 OFFCURVE",
"585 300 OFFCURVE",
"585 232 CURVE SMOOTH",
"585 177 OFFCURVE",
"561 125 OFFCURVE",
"520 86 CURVE SMOOTH",
"479 46 OFFCURVE",
"419 20 OFFCURVE",
"346 20 CURVE SMOOTH",
"318 20 LINE"
);
},
{
closed = 1;
nodes = (
"303 403 LINE",
"337 573 LINE",
"262 573 LINE",
"229 403 LINE"
);
},
{
closed = 1;
nodes = (
"387 403 LINE",
"395 403 LINE SMOOTH",
"443 403 OFFCURVE",
"477 426 OFFCURVE",
"486 473 CURVE",
"493 500 OFFCURVE",
"494 509 OFFCURVE",
"494 520 CURVE SMOOTH",
"494 556 OFFCURVE",
"469 573 OFFCURVE",
"428 573 CURVE SMOOTH",
"421 573 LINE"
);
},
{
closed = 1;
nodes = (
"248 125 LINE",
"284 303 LINE",
"208 303 LINE",
"173 125 LINE"
);
},
{
closed = 1;
nodes = (
"332 125 LINE",
"363 125 LINE SMOOTH",
"411 125 OFFCURVE",
"445 149 OFFCURVE",
"454 197 CURVE SMOOTH",
"457 213 OFFCURVE",
"460 224 OFFCURVE",
"461 231 CURVE SMOOTH",
"462 238 OFFCURVE",
"462 244 OFFCURVE",
"462 249 CURVE SMOOTH",
"462 284 OFFCURVE",
"437 303 OFFCURVE",
"394 303 CURVE SMOOTH",
"368 303 LINE"
);
}
);
width = 639;
}
);
unicode = 0E3F;
},
{
glyphname = uni20A1;
layers = (
{
layerId = "91171461-3A9C-47E5-8F32-6F9DD13F0C63";
name = "Bold Italic";
paths = (
{
closed = 1;
nodes = (
"121 -82 LINE",
"157 42 LINE",
"96 85 OFFCURVE",
"55 162 OFFCURVE",
"55 283 CURVE SMOOTH",
"55 384 OFFCURVE",
"83 479 OFFCURVE",
"135 551 CURVE SMOOTH",
"186 623 OFFCURVE",
"259 674 OFFCURVE",
"351 689 CURVE",
"378 780 LINE",
"446 780 LINE",
"421 694 LINE",
"435 694 OFFCURVE",
"449 692 OFFCURVE",
"464 689 CURVE",
"491 780 LINE",
"558 780 LINE",
"525 669 LINE",
"570 646 OFFCURVE",
"603 610 OFFCURVE",
"623 567 CURVE",
"527 509 LINE",
"520 530 OFFCURVE",
"508 547 OFFCURVE",
"491 561 CURVE",
"360 116 LINE",
"403 129 OFFCURVE",
"437 157 OFFCURVE",
"464 201 CURVE",
"541 137 LINE",
"488 60 OFFCURVE",
"427 18 OFFCURVE",
"328 7 CURVE",
"302 -82 LINE",
"234 -82 LINE",
"260 5 LINE",
"245 6 OFFCURVE",
"231 9 OFFCURVE",
"217 14 CURVE",
"189 -82 LINE"
);
},
{
closed = 1;
nodes = (
"247 116 LINE",
"260 111 OFFCURVE",
"275 107 OFFCURVE",
"291 106 CURVE",
"434 587 LINE",
"419 591 OFFCURVE",
"403 593 OFFCURVE",
"388 593 CURVE"
);
},
{
closed = 1;
nodes = (
"175 213 OFFCURVE",
"182 186 OFFCURVE",
"196 164 CURVE",
"319 579 LINE",
"262 555 OFFCURVE",
"221 499 OFFCURVE",
"204 414 CURVE SMOOTH",
"181 298 LINE SMOOTH",
"178 282 OFFCURVE",
"175 264 OFFCURVE",
"175 245 CURVE SMOOTH"
);
}
);
width = 608;
}
);
unicode = 20A1;
},
{
glyphname = uni20A4;
layers = (
{
layerId = "91171461-3A9C-47E5-8F32-6F9DD13F0C63";
name = "Bold Italic";
paths = (
{
closed = 1;
nodes = (
"488 0 LINE",
"29 0 LINE",
"54 125 LINE",
"101 144 OFFCURVE",
"132 179 OFFCURVE",
"146 230 CURVE",
"45 230 LINE",
"61 312 LINE",
"157 312 LINE",
"156 325 OFFCURVE",
"155 338 OFFCURVE",
"154 351 CURVE",
"152 364 OFFCURVE",
"150 376 OFFCURVE",
"149 387 CURVE",
"76 387 LINE",
"92 468 LINE",
"143 468 LINE",
"140 537 OFFCURVE",
"165 598 OFFCURVE",
"210 641 CURVE SMOOTH",
"254 684 OFFCURVE",
"320 710 OFFCURVE",
"403 710 CURVE SMOOTH",
"506 710 OFFCURVE",
"572 668 OFFCURVE",
"616 591 CURVE",
"516 526 LINE",
"491 575 OFFCURVE",
"449 600 OFFCURVE",
"392 600 CURVE SMOOTH",
"313 600 OFFCURVE",
"269 555 OFFCURVE",
"269 468 CURVE",
"466 468 LINE",
"450 387 LINE",
"275 387 LINE",
"279 360 OFFCURVE",
"283 335 OFFCURVE",
"284 312 CURVE",
"435 312 LINE",
"419 230 LINE",
"271 230 LINE",
"255 174 OFFCURVE",
"212 136 OFFCURVE",
"179 117 CURVE",
"177 108 LINE",
"510 108 LINE"
);
}
);
width = 587;
}
);
unicode = 20A4;
},
{
glyphname = uni20A6;
layers = (
{
layerId = "91171461-3A9C-47E5-8F32-6F9DD13F0C63";
name = "Bold Italic";
paths = (
{
closed = 1;
nodes = (
"371 234 LINE",
"216 234 LINE",
"169 0 LINE",
"58 0 LINE",
"104 231 LINE",
"24 231 LINE",
"40 313 LINE",
"120 313 LINE",
"136 390 LINE",
"56 390 LINE",
"72 472 LINE",
"152 472 LINE",
"197 698 LINE",
"342 698 LINE",
"411 470 LINE",
"571 470 LINE",
"617 698 LINE",
"727 698 LINE",
"682 472 LINE",
"760 472 LINE",
"744 390 LINE",
"666 390 LINE",
"650 313 LINE",
"728 313 LINE",
"712 231 LINE",
"634 231 LINE",
"588 0 LINE",
"442 0 LINE"
);
},
{
closed = 1;
nodes = (
"348 309 LINE",
"317 411 LINE",
"280 542 LINE",
"276 542 LINE",
"230 309 LINE"
);
},
{
closed = 1;
nodes = (
"464 299 LINE",
"505 154 LINE",
"509 154 LINE",
"556 394 LINE",
"434 394 LINE"
);
}
);
width = 743;
}
);
unicode = 20A6;
},
{
glyphname = uni20A8;
layers = (
{
layerId = "91171461-3A9C-47E5-8F32-6F9DD13F0C63";
name = "Bold Italic";
paths = (
{
closed = 1;
nodes = (
"167 698 LINE",
"355 698 LINE SMOOTH",
"472 698 OFFCURVE",
"537 642 OFFCURVE",
"537 541 CURVE SMOOTH",
"537 438 OFFCURVE",
"488 355 OFFCURVE",
"405 319 CURVE",
"456 178 LINE SMOOTH",
"480 111 OFFCURVE",
"508 85 OFFCURVE",
"560 85 CURVE SMOOTH",
"607 85 OFFCURVE",
"632 112 OFFCURVE",
"632 145 CURVE SMOOTH",
"632 166 OFFCURVE",
"621 185 OFFCURVE",
"602 209 CURVE SMOOTH",
"584 231 LINE SMOOTH",
"553 271 OFFCURVE",
"532 307 OFFCURVE",
"532 358 CURVE SMOOTH",
"532 402 OFFCURVE",
"550 442 OFFCURVE",
"581 471 CURVE SMOOTH",
"612 500 OFFCURVE",
"654 518 OFFCURVE",
"705 518 CURVE SMOOTH",
"745 518 OFFCURVE",
"792 510 OFFCURVE",
"823 487 CURVE",
"767 404 LINE",
"750 417 OFFCURVE",
"730 423 OFFCURVE",
"707 423 CURVE SMOOTH",
"672 423 OFFCURVE",
"648 402 OFFCURVE",
"648 367 CURVE SMOOTH",
"648 344 OFFCURVE",
"662 328 OFFCURVE",
"683 301 CURVE",
"700 281 LINE SMOOTH",
"735 240 OFFCURVE",
"754 205 OFFCURVE",
"754 160 CURVE SMOOTH",
"754 113 OFFCURVE",
"739 71 OFFCURVE",
"704 40 CURVE SMOOTH",
"669 8 OFFCURVE",
"615 -12 OFFCURVE",
"538 -12 CURVE SMOOTH",
"447 -12 OFFCURVE",
"382 29 OFFCURVE",
"347 129 CURVE SMOOTH",
"291 289 LINE",
"211 289 LINE",
"153 0 LINE",
"27 0 LINE"
);
},
{
closed = 1;
nodes = (
"301 395 LINE SMOOTH",
"352 395 OFFCURVE",
"385 424 OFFCURVE",
"396 473 CURVE SMOOTH",
"405 516 LINE",
"407 524 OFFCURVE",
"408 532 OFFCURVE",
"408 540 CURVE SMOOTH",
"408 573 OFFCURVE",
"384 592 OFFCURVE",
"341 592 CURVE SMOOTH",
"271 592 LINE",
"232 395 LINE"
);
}
);
width = 824;
}
);
unicode = 20A8;
},
{
glyphname = uni20A9;
layers = (
{
layerId = "91171461-3A9C-47E5-8F32-6F9DD13F0C63";
name = "Bold Italic";
paths = (
{
closed = 1;
nodes = (
"517 234 LINE",
"382 234 LINE",
"286 0 LINE",
"140 0 LINE",
"137 232 LINE",
"21 232 LINE",
"37 314 LINE",
"137 314 LINE",
"137 390 LINE",
"53 390 LINE",
"69 472 LINE",
"136 472 LINE",
"134 698 LINE",
"256 698 LINE",
"253 470 LINE",
"380 470 LINE",
"475 698 LINE",
"608 698 LINE",
"612 470 LINE",
"739 470 LINE",
"827 698 LINE",
"952 698 LINE",
"859 472 LINE",
"926 472 LINE",
"910 390 LINE",
"825 390 LINE",
"793 314 LINE",
"893 314 LINE",
"878 232 LINE",
"759 232 LINE",
"665 0 LINE",
"520 0 LINE"
);
},
{
closed = 1;
nodes = (
"251 152 LINE",
"349 394 LINE",
"252 394 LINE",
"247 152 LINE"
);
},
{
closed = 1;
nodes = (
"620 152 LINE",
"710 394 LINE",
"613 394 LINE",
"616 152 LINE"
);
},
{
closed = 1;
nodes = (
"515 309 LINE",
"513 544 LINE",
"509 544 LINE",
"414 309 LINE"
);
}
);
width = 912;
}
);
unicode = 20A9;
},
{
glyphname = uni20AA;
layers = (
{
layerId = "91171461-3A9C-47E5-8F32-6F9DD13F0C63";
name = "Bold Italic";
paths = (
{
closed = 1;
nodes = (
"320 517 LINE",
"435 517 LINE",
"352 105 LINE",
"495 105 LINE SMOOTH",
"539 105 OFFCURVE",
"571 111 OFFCURVE",
"595 130 CURVE SMOOTH",
"618 149 OFFCURVE",
"633 178 OFFCURVE",
"642 226 CURVE SMOOTH",
"737 698 LINE",
"851 698 LINE",
"759 235 LINE SMOOTH",
"742 154 OFFCURVE",
"717 96 OFFCURVE",
"674 57 CURVE SMOOTH",
"630 18 OFFCURVE",
"568 0 OFFCURVE",
"476 0 CURVE SMOOTH",
"216 0 LINE"
);
},
{
closed = 1;
nodes = (
"27 0 LINE",
"167 698 LINE",
"448 698 LINE SMOOTH",
"557 698 OFFCURVE",
"623 637 OFFCURVE",
"623 533 CURVE SMOOTH",
"623 514 OFFCURVE",
"621 493 OFFCURVE",
"616 470 CURVE SMOOTH",
"558 181 LINE",
"443 181 LINE",
"504 482 LINE SMOOTH",
"507 497 OFFCURVE",
"509 512 OFFCURVE",
"509 525 CURVE SMOOTH",
"509 572 OFFCURVE",
"482 593 OFFCURVE",
"435 593 CURVE SMOOTH",
"261 593 LINE",
"142 0 LINE"
);
}
);
width = 844;
}
);
unicode = 20AA;
},
{
glyphname = uni20AB;
layers = (
{
layerId = "91171461-3A9C-47E5-8F32-6F9DD13F0C63";
name = "Bold Italic";
paths = (
{
closed = 1;
nodes = (
"350 236 LINE",
"343 236 LINE",
"312 187 OFFCURVE",
"272 149 OFFCURVE",
"205 149 CURVE SMOOTH",
"126 149 OFFCURVE",
"70 197 OFFCURVE",
"70 302 CURVE SMOOTH",
"70 375 OFFCURVE",
"91 437 OFFCURVE",
"127 480 CURVE SMOOTH",
"162 523 OFFCURVE",
"210 547 OFFCURVE",
"262 547 CURVE SMOOTH",
"339 547 OFFCURVE",
"374 514 OFFCURVE",
"389 467 CURVE",
"396 467 LINE",
"423 602 LINE",
"294 602 LINE",
"310 682 LINE",
"439 682 LINE",
"450 740 LINE",
"569 740 LINE",
"558 682 LINE",
"615 682 LINE",
"599 602 LINE",
"542 602 LINE",
"452 158 LINE",
"334 158 LINE"
);
},
{
closed = 1;
nodes = (
"321 239 OFFCURVE",
"358 278 OFFCURVE",
"365 314 CURVE SMOOTH",
"380 387 LINE SMOOTH",
"387 424 OFFCURVE",
"357 457 OFFCURVE",
"297 457 CURVE SMOOTH",
"240 457 OFFCURVE",
"210 423 OFFCURVE",
"199 370 CURVE SMOOTH",
"192 339 OFFCURVE",
"189 318 OFFCURVE",
"189 307 CURVE SMOOTH",
"189 264 OFFCURVE",
"215 239 OFFCURVE",
"266 239 CURVE SMOOTH"
);
},
{
closed = 1;
nodes = (
"18 0 LINE",
"36 92 LINE",
"464 92 LINE",
"445 0 LINE"
);
}
);
width = 568;
}
);
unicode = 20AB;
},
{
glyphname = uni20AD;
layers = (
{
layerId = "91171461-3A9C-47E5-8F32-6F9DD13F0C63";
name = "Bold Italic";
paths = (
{
closed = 1;
nodes = (
"170 0 LINE",
"44 0 LINE",
"104 303 LINE",
"21 303 LINE",
"42 406 LINE",
"125 406 LINE",
"184 698 LINE",
"310 698 LINE",
"251 406 LINE",
"300 406 LINE",
"551 698 LINE",
"697 698 LINE",
"436 406 LINE",
"617 406 LINE",
"596 303 LINE",
"415 303 LINE",
"571 0 LINE",
"431 0 LINE",
"284 303 LINE",
"230 303 LINE"
);
}
);
width = 644;
}
);
unicode = 20AD;
},
{
glyphname = uni20AE;
layers = (
{
layerId = "91171461-3A9C-47E5-8F32-6F9DD13F0C63";
name = "Bold Italic";
paths = (
{
closed = 1;
nodes = (
"352 209 LINE",
"311 0 LINE",
"185 0 LINE",
"214 147 LINE",
"83 89 LINE",
"100 173 LINE",
"231 232 LINE",
"246 306 LINE",
"115 248 LINE",
"132 332 LINE",
"263 391 LINE",
"304 592 LINE",
"111 592 LINE",
"132 698 LINE",
"644 698 LINE",
"623 592 LINE",
"430 592 LINE",
"402 452 LINE",
"536 513 LINE",
"519 428 LINE",
"384 368 LINE",
"369 294 LINE",
"504 354 LINE",
"487 269 LINE"
);
}
);
width = 600;
}
);
unicode = 20AE;
},
{
glyphname = uni20B1;
layers = (
{
layerId = "91171461-3A9C-47E5-8F32-6F9DD13F0C63";
name = "Bold Italic";
paths = (
{
closed = 1;
nodes = (
"122 318 LINE",
"39 318 LINE",
"53 393 LINE",
"137 393 LINE",
"153 469 LINE",
"69 469 LINE",
"84 545 LINE",
"168 545 LINE",
"198 698 LINE",
"423 698 LINE SMOOTH",
"523 698 OFFCURVE",
"591 652 OFFCURVE",
"603 545 CURVE",
"701 545 LINE",
"685 469 LINE",
"604 469 LINE",
"601 442 OFFCURVE",
"598 418 OFFCURVE",
"591 393 CURVE",
"670 393 LINE",
"655 318 LINE",
"563 318 LINE",
"516 225 OFFCURVE",
"436 164 OFFCURVE",
"340 164 CURVE SMOOTH",
"217 164 LINE",
"184 0 LINE",
"58 0 LINE"
);
},
{
closed = 1;
nodes = (
"293 541 LINE",
"489 541 LINE",
"486 580 OFFCURVE",
"464 607 OFFCURVE",
"423 607 CURVE SMOOTH",
"305 607 LINE"
);
},
{
closed = 1;
nodes = (
"262 390 LINE",
"462 390 LINE",
"479 473 LINE",
"279 473 LINE"
);
},
{
closed = 1;
nodes = (
"353 256 LINE SMOOTH",
"398 256 OFFCURVE",
"429 278 OFFCURVE",
"446 322 CURVE",
"248 322 LINE",
"235 256 LINE"
);
}
);
width = 672;
}
);
unicode = 20B1;
},
{
glyphname = uni20B2;
layers = (
{
layerId = "91171461-3A9C-47E5-8F32-6F9DD13F0C63";
name = "Bold Italic";
paths = (
{
closed = 1;
nodes = (
"171 35 LINE",
"103 75 OFFCURVE",
"55 152 OFFCURVE",
"55 279 CURVE SMOOTH",
"55 395 OFFCURVE",
"90 499 OFFCURVE",
"150 574 CURVE SMOOTH",
"210 649 OFFCURVE",
"296 694 OFFCURVE",
"399 694 CURVE SMOOTH",
"402 694 OFFCURVE",
"405 694 OFFCURVE",
"408 694 CURVE SMOOTH",
"411 694 OFFCURVE",
"413 694 OFFCURVE",
"414 693 CURVE",
"446 780 LINE",
"544 780 LINE",
"505 674 LINE",
"566 649 OFFCURVE",
"609 603 OFFCURVE",
"628 540 CURVE",
"524 493 LINE",
"517 529 OFFCURVE",
"498 559 OFFCURVE",
"463 578 CURVE",
"389 378 LINE",
"610 378 LINE",
"585 249 LINE SMOOTH",
"566 156 OFFCURVE",
"520 95 OFFCURVE",
"464 57 CURVE SMOOTH",
"408 19 OFFCURVE",
"342 4 OFFCURVE",
"283 4 CURVE SMOOTH",
"281 4 OFFCURVE",
"277 4 OFFCURVE",
"271 4 CURVE SMOOTH",
"264 4 OFFCURVE",
"260 4 OFFCURVE",
"258 5 CURVE",
"225 -82 LINE",
"128 -82 LINE"
);
},
{
closed = 1;
nodes = (
"175 197 OFFCURVE",
"190 162 OFFCURVE",
"215 139 CURVE",
"383 591 LINE",
"380 592 OFFCURVE",
"377 592 OFFCURVE",
"374 592 CURVE",
"282 585 OFFCURVE",
"226 517 OFFCURVE",
"203 409 CURVE SMOOTH",
"181 302 LINE SMOOTH",
"177 284 OFFCURVE",
"175 266 OFFCURVE",
"175 248 CURVE SMOOTH"
);
},
{
closed = 1;
nodes = (
"289 105 LINE",
"300 105 LINE SMOOTH",
"379 105 OFFCURVE",
"445 147 OFFCURVE",
"464 238 CURVE SMOOTH",
"472 277 LINE",
"351 277 LINE"
);
}
);
width = 656;
}
);
unicode = 20B2;
},
{
glyphname = uni20B4;
layers = (
{
layerId = "91171461-3A9C-47E5-8F32-6F9DD13F0C63";
name = "Bold Italic";
paths = (
{
closed = 1;
nodes = (
"207 -12 OFFCURVE",
"160 6 OFFCURVE",
"129 36 CURVE SMOOTH",
"97 66 OFFCURVE",
"82 108 OFFCURVE",
"82 156 CURVE SMOOTH",
"82 183 OFFCURVE",
"87 210 OFFCURVE",
"98 235 CURVE",
"30 235 LINE",
"46 317 LINE",
"168 317 LINE",
"313 394 LINE",
"61 394 LINE",
"78 477 LINE",
"429 477 LINE",
"440 496 OFFCURVE",
"446 515 OFFCURVE",
"446 535 CURVE SMOOTH",
"446 582 OFFCURVE",
"415 607 OFFCURVE",
"359 607 CURVE SMOOTH",
"313 607 OFFCURVE",
"270 588 OFFCURVE",
"231 551 CURVE",
"167 627 LINE",
"223 683 OFFCURVE",
"300 710 OFFCURVE",
"376 710 CURVE SMOOTH",
"437 710 OFFCURVE",
"484 694 OFFCURVE",
"516 667 CURVE SMOOTH",
"548 639 OFFCURVE",
"565 602 OFFCURVE",
"565 558 CURVE SMOOTH",
"565 531 OFFCURVE",
"557 501 OFFCURVE",
"546 477 CURVE",
"617 477 LINE",
"600 394 LINE",
"478 394 LINE",
"338 317 LINE",
"585 317 LINE",
"569 235 LINE",
"214 235 LINE",
"201 216 OFFCURVE",
"197 195 OFFCURVE",
"197 175 CURVE SMOOTH",
"197 119 OFFCURVE",
"233 90 OFFCURVE",
"293 90 CURVE SMOOTH",
"337 90 OFFCURVE",
"382 105 OFFCURVE",
"439 160 CURVE",
"502 83 LINE",
"442 20 OFFCURVE",
"361 -12 OFFCURVE",
"270 -12 CURVE SMOOTH"
);
}
);
width = 607;
}
);
unicode = 20B4;
},
{
glyphname = uni20B5;
layers = (
{
layerId = "91171461-3A9C-47E5-8F32-6F9DD13F0C63";
name = "Bold Italic";
paths = (
{
closed = 1;
nodes = (
"171 35 LINE",
"102 76 OFFCURVE",
"55 156 OFFCURVE",
"55 283 CURVE SMOOTH",
"55 394 OFFCURVE",
"88 496 OFFCURVE",
"148 572 CURVE SMOOTH",
"207 647 OFFCURVE",
"293 694 OFFCURVE",
"398 694 CURVE SMOOTH",
"400 694 OFFCURVE",
"402 694 OFFCURVE",
"405 694 CURVE SMOOTH",
"408 694 OFFCURVE",
"410 694 OFFCURVE",
"413 693 CURVE",
"446 780 LINE",
"544 780 LINE",
"504 676 LINE",
"561 654 OFFCURVE",
"600 618 OFFCURVE",
"623 567 CURVE",
"528 509 LINE",
"512 544 OFFCURVE",
"490 564 OFFCURVE",
"462 579 CURVE",
"289 106 LINE",
"290 105 OFFCURVE",
"292 105 OFFCURVE",
"294 105 CURVE SMOOTH",
"296 105 OFFCURVE",
"298 105 OFFCURVE",
"299 105 CURVE SMOOTH",
"367 105 OFFCURVE",
"424 136 OFFCURVE",
"464 200 CURVE",
"541 137 LINE",
"481 50 OFFCURVE",
"407 4 OFFCURVE",
"286 4 CURVE SMOOTH",
"281 4 OFFCURVE",
"276 4 OFFCURVE",
"272 4 CURVE SMOOTH",
"268 4 OFFCURVE",
"263 5 OFFCURVE",
"258 6 CURVE",
"227 -82 LINE",
"129 -82 LINE"
);
},
{
closed = 1;
nodes = (
"176 198 OFFCURVE",
"191 163 OFFCURVE",
"216 140 CURVE",
"382 592 LINE",
"374 592 LINE",
"287 585 OFFCURVE",
"227 524 OFFCURVE",
"204 412 CURVE SMOOTH",
"182 299 LINE",
"178 282 OFFCURVE",
"176 264 OFFCURVE",
"176 245 CURVE SMOOTH"
);
}
);
width = 608;
}
);
unicode = 20B5;
},
{
glyphname = uni20B8;
layers = (
{
layerId = "91171461-3A9C-47E5-8F32-6F9DD13F0C63";
name = "Bold Italic";
paths = (
{
closed = 1;
nodes = (
"107 605 LINE",
"125 698 LINE",
"636 698 LINE",
"618 605 LINE"
);
},
{
closed = 1;
nodes = (
"392 427 LINE",
"306 0 LINE",
"179 0 LINE",
"265 427 LINE",
"71 427 LINE",
"90 520 LINE",
"600 520 LINE",
"582 427 LINE"
);
}
);
width = 588;
}
);
unicode = 20B8;
},
{
glyphname = uni20B9;
layers = (
{
layerId = "91171461-3A9C-47E5-8F32-6F9DD13F0C63";
name = "Bold Italic";
paths = (
{
closed = 1;
nodes = (
"330 0 LINE",
"185 244 LINE",
"55 244 LINE",
"74 336 LINE",
"244 336 LINE SMOOTH",
"316 336 OFFCURVE",
"354 372 OFFCURVE",
"371 423 CURVE",
"92 423 LINE",
"109 516 LINE",
"386 516 LINE",
"386 580 OFFCURVE",
"359 605 OFFCURVE",
"295 605 CURVE SMOOTH",
"128 605 LINE",
"146 698 LINE",
"660 698 LINE",
"642 605 LINE",
"448 605 LINE",
"447 600 LINE",
"477 589 OFFCURVE",
"495 561 OFFCURVE",
"501 516 CURVE",
"624 516 LINE",
"605 423 LINE",
"498 423 LINE",
"479 339 OFFCURVE",
"417 271 OFFCURVE",
"309 252 CURVE",
"463 0 LINE"
);
}
);
width = 601;
}
);
unicode = 20B9;
},
{
glyphname = uni20BA;
layers = (
{
layerId = "91171461-3A9C-47E5-8F32-6F9DD13F0C63";
name = "Bold Italic";
paths = (
{
closed = 1;
nodes = (
"116 222 LINE",
"20 179 LINE",
"37 264 LINE",
"133 307 LINE",
"148 382 LINE",
"52 339 LINE",
"69 423 LINE",
"164 466 LINE",
"211 698 LINE",
"338 698 LINE",
"304 528 LINE",
"486 611 LINE",
"469 526 LINE",
"287 444 LINE",
"272 369 LINE",
"454 452 LINE",
"437 368 LINE",
"255 285 LINE",
"220 106 LINE",
"278 106 LINE SMOOTH",
"377 106 OFFCURVE",
"436 162 OFFCURVE",
"467 305 CURVE",
"588 305 LINE",
"553 116 OFFCURVE",
"449 0 OFFCURVE",
"273 0 CURVE SMOOTH",
"71 0 LINE"
);
}
);
width = 614;
}
);
unicode = 20BA;
},
{
glyphname = uni20BD;
layers = (
{
layerId = "91171461-3A9C-47E5-8F32-6F9DD13F0C63";
name = "Bold Italic";
paths = (
{
closed = 1;
nodes = (
"207 113 LINE",
"184 0 LINE",
"58 0 LINE",
"81 113 LINE",
"-3 113 LINE",
"15 206 LINE",
"99 206 LINE",
"117 295 LINE",
"33 295 LINE",
"51 388 LINE",
"136 388 LINE",
"198 698 LINE",
"457 698 LINE SMOOTH",
"586 698 OFFCURVE",
"650 633 OFFCURVE",
"650 529 CURVE SMOOTH",
"650 469 OFFCURVE",
"628 411 OFFCURVE",
"586 367 CURVE SMOOTH",
"544 323 OFFCURVE",
"483 295 OFFCURVE",
"407 295 CURVE SMOOTH",
"243 295 LINE",
"225 206 LINE",
"450 206 LINE",
"431 113 LINE"
);
},
{
closed = 1;
nodes = (
"262 388 LINE",
"413 388 LINE SMOOTH",
"464 388 OFFCURVE",
"499 418 OFFCURVE",
"510 469 CURVE",
"513 488 OFFCURVE",
"516 502 OFFCURVE",
"518 509 CURVE",
"519 516 OFFCURVE",
"520 523 OFFCURVE",
"520 529 CURVE SMOOTH",
"520 570 OFFCURVE",
"494 591 OFFCURVE",
"443 591 CURVE SMOOTH",
"303 591 LINE"
);
}
);
width = 647;
}
);
unicode = 20BD;
},
{
glyphname = uni20BF;
layers = (
{
layerId = "91171461-3A9C-47E5-8F32-6F9DD13F0C63";
name = "Bold Italic";
paths = (
{
closed = 1;
nodes = (
"289 20 LINE",
"226 20 LINE",
"206 -82 LINE",
"111 -82 LINE",
"131 20 LINE",
"31 20 LINE",
"163 677 LINE",
"263 677 LINE",
"284 780 LINE",
"379 780 LINE",
"358 677 LINE",
"421 677 LINE",
"442 780 LINE",
"537 780 LINE",
"515 668 LINE",
"584 649 OFFCURVE",
"622 601 OFFCURVE",
"622 536 CURVE SMOOTH",
"622 453 OFFCURVE",
"570 389 OFFCURVE",
"486 368 CURVE",
"486 363 LINE",
"547 347 OFFCURVE",
"585 302 OFFCURVE",
"585 234 CURVE SMOOTH",
"585 178 OFFCURVE",
"566 128 OFFCURVE",
"531 92 CURVE SMOOTH",
"496 55 OFFCURVE",
"446 31 OFFCURVE",
"385 23 CURVE",
"365 -82 LINE",
"269 -82 LINE"
);
},
{
closed = 1;
nodes = (
"229 402 LINE",
"393 402 LINE SMOOTH",
"440 402 OFFCURVE",
"476 423 OFFCURVE",
"485 470 CURVE",
"488 483 OFFCURVE",
"491 494 OFFCURVE",
"492 501 CURVE SMOOTH",
"493 508 OFFCURVE",
"494 514 OFFCURVE",
"494 519 CURVE SMOOTH",
"494 556 OFFCURVE",
"469 573 OFFCURVE",
"428 573 CURVE SMOOTH",
"263 573 LINE"
);
},
{
closed = 1;
nodes = (
"173 125 LINE",
"363 125 LINE SMOOTH",
"411 125 OFFCURVE",
"443 147 OFFCURVE",
"454 199 CURVE SMOOTH",
"457 215 OFFCURVE",
"459 226 OFFCURVE",
"460 232 CURVE SMOOTH",
"461 238 OFFCURVE",
"461 244 OFFCURVE",
"461 249 CURVE SMOOTH",
"461 284 OFFCURVE",
"439 302 OFFCURVE",
"394 302 CURVE SMOOTH",
"209 302 LINE"
);
}
);
width = 648;
}
);
unicode = 20BF;
},
{
glyphname = fi;
layers = (
{
layerId = "91171461-3A9C-47E5-8F32-6F9DD13F0C63";
name = "Bold Italic";
paths = (
{
closed = 1;
nodes = (
"82 522 LINE",
"156 522 LINE",
"172 601 LINE SMOOTH",
"191 692 OFFCURVE",
"240 740 OFFCURVE",
"333 740 CURVE SMOOTH",
"415 740 LINE",
"395 641 LINE",
"301 641 LINE",
"277 522 LINE",
"579 522 LINE",
"495 99 LINE",
"558 99 LINE",
"538 0 LINE",
"451 0 LINE SMOOTH",
"400 0 OFFCURVE",
"370 30 OFFCURVE",
"370 74 CURVE SMOOTH",
"370 83 OFFCURVE",
"372 94 OFFCURVE",
"373 99 CURVE SMOOTH",
"438 423 LINE",
"258 423 LINE",
"161 -60 LINE SMOOTH",
"143 -153 OFFCURVE",
"88 -200 OFFCURVE",
"-3 -200 CURVE SMOOTH",
"-82 -200 LINE",
"-62 -101 LINE",
"32 -101 LINE",
"137 423 LINE",
"63 423 LINE"
);
},
{
closed = 1;
nodes = (
"491 599 OFFCURVE",
"473 620 OFFCURVE",
"473 648 CURVE SMOOTH",
"473 651 OFFCURVE",
"473 656 OFFCURVE",
"474 661 CURVE SMOOTH",
"475 666 OFFCURVE",
"476 673 OFFCURVE",
"478 683 CURVE SMOOTH",
"486 719 OFFCURVE",
"509 746 OFFCURVE",
"561 746 CURVE SMOOTH",
"605 746 OFFCURVE",
"623 725 OFFCURVE",
"623 698 CURVE SMOOTH",
"623 695 OFFCURVE",
"623 690 OFFCURVE",
"622 685 CURVE SMOOTH",
"621 680 OFFCURVE",
"620 672 OFFCURVE",
"618 662 CURVE",
"609 626 OFFCURVE",
"587 599 OFFCURVE",
"535 599 CURVE SMOOTH"
);
}
);
width = 609;
}
);
leftKerningGroup = f;
rightKerningGroup = i;
unicode = FB01;
},
{
glyphname = fl;
layers = (
{
layerId = "91171461-3A9C-47E5-8F32-6F9DD13F0C63";
name = "Bold Italic";
paths = (
{
closed = 1;
nodes = (
"82 522 LINE",
"156 522 LINE",
"172 601 LINE SMOOTH",
"191 692 OFFCURVE",
"243 740 OFFCURVE",
"344 740 CURVE SMOOTH",
"421 740 LINE",
"401 641 LINE",
"302 641 LINE",
"278 522 LINE",
"380 522 LINE",
"360 423 LINE",
"258 423 LINE",
"161 -61 LINE SMOOTH",
"142 -152 OFFCURVE",
"97 -200 OFFCURVE",
"-3 -200 CURVE SMOOTH",
"-83 -200 LINE",
"-63 -101 LINE",
"31 -101 LINE",
"137 423 LINE",
"62 423 LINE"
);
},
{
closed = 1;
nodes = (
"455 0 LINE SMOOTH",
"403 0 OFFCURVE",
"371 30 OFFCURVE",
"371 75 CURVE SMOOTH",
"371 82 OFFCURVE",
"372 90 OFFCURVE",
"374 100 CURVE SMOOTH",
"502 740 LINE",
"623 740 LINE",
"495 99 LINE",
"561 99 LINE",
"542 0 LINE"
);
}
);
width = 609;
}
);
leftKerningGroup = f;
rightKerningGroup = d;
unicode = FB02;
},
{
glyphname = aacute;
layers = (
{
layerId = "91171461-3A9C-47E5-8F32-6F9DD13F0C63";
name = "Bold Italic";
paths = (
{
closed = 1;
nodes = (
"432 0 LINE SMOOTH",
"384 0 OFFCURVE",
"350 27 OFFCURVE",
"350 72 CURVE SMOOTH",
"350 83 OFFCURVE",
"352 95 OFFCURVE",
"353 102 CURVE",
"357 119 LINE",
"352 119 LINE",
"309 34 OFFCURVE",
"262 -12 OFFCURVE",
"182 -12 CURVE SMOOTH",
"134 -12 OFFCURVE",
"97 7 OFFCURVE",
"73 40 CURVE SMOOTH",
"49 73 OFFCURVE",
"37 119 OFFCURVE",
"37 175 CURVE SMOOTH",
"37 276 OFFCURVE",
"62 366 OFFCURVE",
"106 431 CURVE SMOOTH",
"149 495 OFFCURVE",
"211 534 OFFCURVE",
"283 534 CURVE SMOOTH",
"354 534 OFFCURVE",
"406 493 OFFCURVE",
"415 433 CURVE",
"420 433 LINE",
"438 522 LINE",
"559 522 LINE",
"474 99 LINE",
"537 99 LINE",
"518 0 LINE"
);
},
{
closed = 1;
nodes = (
"275 90 OFFCURVE",
"306 111 OFFCURVE",
"330 139 CURVE SMOOTH",
"356 168 OFFCURVE",
"374 205 OFFCURVE",
"383 249 CURVE SMOOTH",
"401 342 LINE SMOOTH",
"406 366 OFFCURVE",
"399 388 OFFCURVE",
"383 405 CURVE SMOOTH",
"367 422 OFFCURVE",
"342 433 OFFCURVE",
"310 433 CURVE SMOOTH",
"241 433 OFFCURVE",
"198 390 OFFCURVE",
"181 304 CURVE SMOOTH",
"167 232 LINE SMOOTH",
"164 217 OFFCURVE",
"161 193 OFFCURVE",
"161 177 CURVE SMOOTH",
"161 124 OFFCURVE",
"188 90 OFFCURVE",
"236 90 CURVE SMOOTH"
);
},
{
closed = 1;
nodes = (
"359 581 LINE",
"286 620 LINE",
"401 805 LINE",
"500 752 LINE"
);
}
);
width = 588;
}
);
leftKerningGroup = a;
rightKerningGroup = a;
unicode = 00E1;
},
{
glyphname = abreve;
layers = (
{
layerId = "91171461-3A9C-47E5-8F32-6F9DD13F0C63";
name = "Bold Italic";
paths = (
{
closed = 1;
nodes = (
"432 0 LINE SMOOTH",
"384 0 OFFCURVE",
"350 27 OFFCURVE",
"350 72 CURVE SMOOTH",
"350 83 OFFCURVE",
"352 95 OFFCURVE",
"353 102 CURVE",
"357 119 LINE",
"352 119 LINE",
"309 34 OFFCURVE",
"262 -12 OFFCURVE",
"182 -12 CURVE SMOOTH",
"134 -12 OFFCURVE",
"97 7 OFFCURVE",
"73 40 CURVE SMOOTH",
"49 73 OFFCURVE",
"37 119 OFFCURVE",
"37 175 CURVE SMOOTH",
"37 276 OFFCURVE",
"62 366 OFFCURVE",
"106 431 CURVE SMOOTH",
"149 495 OFFCURVE",
"211 534 OFFCURVE",
"283 534 CURVE SMOOTH",
"354 534 OFFCURVE",
"406 493 OFFCURVE",
"415 433 CURVE",
"420 433 LINE",
"438 522 LINE",
"559 522 LINE",
"474 99 LINE",
"537 99 LINE",
"518 0 LINE"
);
},
{
closed = 1;
nodes = (
"275 90 OFFCURVE",
"306 111 OFFCURVE",
"330 139 CURVE SMOOTH",
"356 168 OFFCURVE",
"374 205 OFFCURVE",
"383 249 CURVE SMOOTH",
"401 342 LINE SMOOTH",
"406 366 OFFCURVE",
"399 388 OFFCURVE",
"383 405 CURVE SMOOTH",
"367 422 OFFCURVE",
"342 433 OFFCURVE",
"310 433 CURVE SMOOTH",
"241 433 OFFCURVE",
"198 390 OFFCURVE",
"181 304 CURVE SMOOTH",
"167 232 LINE SMOOTH",
"164 217 OFFCURVE",
"161 193 OFFCURVE",
"161 177 CURVE SMOOTH",
"161 124 OFFCURVE",
"188 90 OFFCURVE",
"236 90 CURVE SMOOTH"
);
},
{
closed = 1;
nodes = (
"290 584 OFFCURVE",
"255 605 OFFCURVE",
"231 636 CURVE SMOOTH",
"207 667 OFFCURVE",
"194 707 OFFCURVE",
"187 744 CURVE",
"257 779 LINE",
"272 745 LINE SMOOTH",
"293 700 OFFCURVE",
"310 674 OFFCURVE",
"351 674 CURVE SMOOTH",
"387 674 OFFCURVE",
"411 696 OFFCURVE",
"450 747 CURVE SMOOTH",
"475 779 LINE",
"548 741 LINE",
"527 702 OFFCURVE",
"502 663 OFFCURVE",
"470 634 CURVE SMOOTH",
"438 605 OFFCURVE",
"397 584 OFFCURVE",
"345 584 CURVE SMOOTH"
);
}
);
width = 588;
}
);
leftKerningGroup = a;
rightKerningGroup = a;
unicode = 0103;
},
{
glyphname = acircumflex;
layers = (
{
layerId = "91171461-3A9C-47E5-8F32-6F9DD13F0C63";
name = "Bold Italic";
paths = (
{
closed = 1;
nodes = (
"432 0 LINE SMOOTH",
"384 0 OFFCURVE",
"350 27 OFFCURVE",
"350 72 CURVE SMOOTH",
"350 83 OFFCURVE",
"352 95 OFFCURVE",
"353 102 CURVE",
"357 119 LINE",
"352 119 LINE",
"309 34 OFFCURVE",
"262 -12 OFFCURVE",
"182 -12 CURVE SMOOTH",
"134 -12 OFFCURVE",
"97 7 OFFCURVE",
"73 40 CURVE SMOOTH",
"49 73 OFFCURVE",
"37 119 OFFCURVE",
"37 175 CURVE SMOOTH",
"37 276 OFFCURVE",
"62 366 OFFCURVE",
"106 431 CURVE SMOOTH",
"149 495 OFFCURVE",
"211 534 OFFCURVE",
"283 534 CURVE SMOOTH",
"354 534 OFFCURVE",
"406 493 OFFCURVE",
"415 433 CURVE",
"420 433 LINE",
"438 522 LINE",
"559 522 LINE",
"474 99 LINE",
"537 99 LINE",
"518 0 LINE"
);
},
{
closed = 1;
nodes = (
"275 90 OFFCURVE",
"306 111 OFFCURVE",
"330 139 CURVE SMOOTH",
"356 168 OFFCURVE",
"374 205 OFFCURVE",
"383 249 CURVE SMOOTH",
"401 342 LINE SMOOTH",
"406 366 OFFCURVE",
"399 388 OFFCURVE",
"383 405 CURVE SMOOTH",
"367 422 OFFCURVE",
"342 433 OFFCURVE",
"310 433 CURVE SMOOTH",
"241 433 OFFCURVE",
"198 390 OFFCURVE",
"181 304 CURVE SMOOTH",
"167 232 LINE SMOOTH",
"164 217 OFFCURVE",
"161 193 OFFCURVE",
"161 177 CURVE SMOOTH",
"161 124 OFFCURVE",
"188 90 OFFCURVE",
"236 90 CURVE SMOOTH"
);
},
{
closed = 1;
nodes = (
"430 786 LINE",
"525 632 LINE",
"459 582 LINE",
"363 698 LINE",
"227 583 LINE",
"166 632 LINE",
"317 786 LINE"
);
}
);
width = 588;
}
);
leftKerningGroup = a;
rightKerningGroup = a;
unicode = 00E2;
},
{
glyphname = adieresis;
layers = (
{
layerId = "91171461-3A9C-47E5-8F32-6F9DD13F0C63";
name = "Bold Italic";
paths = (
{
closed = 1;
nodes = (
"432 0 LINE SMOOTH",
"384 0 OFFCURVE",
"350 27 OFFCURVE",
"350 72 CURVE SMOOTH",
"350 83 OFFCURVE",
"352 95 OFFCURVE",
"353 102 CURVE",
"357 119 LINE",
"352 119 LINE",
"309 34 OFFCURVE",
"262 -12 OFFCURVE",
"182 -12 CURVE SMOOTH",
"134 -12 OFFCURVE",
"97 7 OFFCURVE",
"73 40 CURVE SMOOTH",
"49 73 OFFCURVE",
"37 119 OFFCURVE",
"37 175 CURVE SMOOTH",
"37 276 OFFCURVE",
"62 366 OFFCURVE",
"106 431 CURVE SMOOTH",
"149 495 OFFCURVE",
"211 534 OFFCURVE",
"283 534 CURVE SMOOTH",
"354 534 OFFCURVE",
"406 493 OFFCURVE",
"415 433 CURVE",
"420 433 LINE",
"438 522 LINE",
"559 522 LINE",
"474 99 LINE",
"537 99 LINE",
"518 0 LINE"
);
},
{
closed = 1;
nodes = (
"275 90 OFFCURVE",
"306 111 OFFCURVE",
"330 139 CURVE SMOOTH",
"356 168 OFFCURVE",
"374 205 OFFCURVE",
"383 249 CURVE SMOOTH",
"401 342 LINE SMOOTH",
"406 366 OFFCURVE",
"399 388 OFFCURVE",
"383 405 CURVE SMOOTH",
"367 422 OFFCURVE",
"342 433 OFFCURVE",
"310 433 CURVE SMOOTH",
"241 433 OFFCURVE",
"198 390 OFFCURVE",
"181 304 CURVE SMOOTH",
"167 232 LINE SMOOTH",
"164 217 OFFCURVE",
"161 193 OFFCURVE",
"161 177 CURVE SMOOTH",
"161 124 OFFCURVE",
"188 90 OFFCURVE",
"236 90 CURVE SMOOTH"
);
},
{
closed = 1;
nodes = (
"209 605 OFFCURVE",
"192 624 OFFCURVE",
"192 649 CURVE SMOOTH",
"192 656 OFFCURVE",
"193 665 OFFCURVE",
"197 684 CURVE SMOOTH",
"204 717 OFFCURVE",
"225 742 OFFCURVE",
"274 742 CURVE SMOOTH",
"314 742 OFFCURVE",
"331 725 OFFCURVE",
"331 698 CURVE SMOOTH",
"331 695 OFFCURVE",
"331 691 OFFCURVE",
"330 686 CURVE SMOOTH",
"329 681 OFFCURVE",
"328 673 OFFCURVE",
"326 664 CURVE SMOOTH",
"319 631 OFFCURVE",
"298 605 OFFCURVE",
"250 605 CURVE SMOOTH"
);
},
{
closed = 1;
nodes = (
"403 605 OFFCURVE",
"386 624 OFFCURVE",
"386 649 CURVE SMOOTH",
"386 652 OFFCURVE",
"387 657 OFFCURVE",
"388 662 CURVE SMOOTH",
"389 667 OFFCURVE",
"390 675 OFFCURVE",
"391 684 CURVE",
"396 717 OFFCURVE",
"419 742 OFFCURVE",
"468 742 CURVE SMOOTH",
"508 742 OFFCURVE",
"526 725 OFFCURVE",
"526 698 CURVE SMOOTH",
"526 695 OFFCURVE",
"526 691 OFFCURVE",
"525 686 CURVE SMOOTH",
"524 681 OFFCURVE",
"522 673 OFFCURVE",
"521 664 CURVE",
"516 631 OFFCURVE",
"493 605 OFFCURVE",
"444 605 CURVE SMOOTH"
);
}
);
width = 588;
}
);
leftKerningGroup = a;
rightKerningGroup = a;
unicode = 00E4;
},
{
glyphname = uni1EA1;
layers = (
{
layerId = "91171461-3A9C-47E5-8F32-6F9DD13F0C63";
name = "Bold Italic";
paths = (
{
closed = 1;
nodes = (
"432 0 LINE SMOOTH",
"384 0 OFFCURVE",
"350 27 OFFCURVE",
"350 72 CURVE SMOOTH",
"350 83 OFFCURVE",
"352 95 OFFCURVE",
"353 102 CURVE",
"357 119 LINE",
"352 119 LINE",
"309 34 OFFCURVE",
"262 -12 OFFCURVE",
"182 -12 CURVE SMOOTH",
"134 -12 OFFCURVE",
"97 7 OFFCURVE",
"73 40 CURVE SMOOTH",
"49 73 OFFCURVE",
"37 119 OFFCURVE",
"37 175 CURVE SMOOTH",
"37 276 OFFCURVE",
"62 366 OFFCURVE",
"106 431 CURVE SMOOTH",
"149 495 OFFCURVE",
"211 534 OFFCURVE",
"283 534 CURVE SMOOTH",
"354 534 OFFCURVE",
"406 493 OFFCURVE",
"415 433 CURVE",
"420 433 LINE",
"438 522 LINE",
"559 522 LINE",
"474 99 LINE",
"537 99 LINE",
"518 0 LINE"
);
},
{
closed = 1;
nodes = (
"275 90 OFFCURVE",
"306 111 OFFCURVE",
"330 139 CURVE SMOOTH",
"356 168 OFFCURVE",
"374 205 OFFCURVE",
"383 249 CURVE SMOOTH",
"401 342 LINE SMOOTH",
"406 366 OFFCURVE",
"399 388 OFFCURVE",
"383 405 CURVE SMOOTH",
"367 422 OFFCURVE",
"342 433 OFFCURVE",
"310 433 CURVE SMOOTH",
"241 433 OFFCURVE",
"198 390 OFFCURVE",
"181 304 CURVE SMOOTH",
"167 232 LINE SMOOTH",
"164 217 OFFCURVE",
"161 193 OFFCURVE",
"161 177 CURVE SMOOTH",
"161 124 OFFCURVE",
"188 90 OFFCURVE",
"236 90 CURVE SMOOTH"
);
},
{
closed = 1;
nodes = (
"179 -193 OFFCURVE",
"160 -174 OFFCURVE",
"160 -145 CURVE SMOOTH",
"160 -142 OFFCURVE",
"160 -138 OFFCURVE",
"161 -133 CURVE",
"162 -129 OFFCURVE",
"163 -122 OFFCURVE",
"166 -112 CURVE",
"174 -79 OFFCURVE",
"193 -57 OFFCURVE",
"241 -57 CURVE SMOOTH",
"284 -57 OFFCURVE",
"302 -76 OFFCURVE",
"302 -104 CURVE SMOOTH",
"302 -107 OFFCURVE",
"302 -111 OFFCURVE",
"301 -115 CURVE",
"300 -120 OFFCURVE",
"299 -127 OFFCURVE",
"297 -138 CURVE SMOOTH",
"290 -171 OFFCURVE",
"269 -193 OFFCURVE",
"222 -193 CURVE SMOOTH"
);
}
);
width = 588;
}
);
leftKerningGroup = a;
rightKerningGroup = a;
unicode = 1EA1;
},
{
glyphname = agrave;
layers = (
{
layerId = "91171461-3A9C-47E5-8F32-6F9DD13F0C63";
name = "Bold Italic";
paths = (
{
closed = 1;
nodes = (
"432 0 LINE SMOOTH",
"384 0 OFFCURVE",
"350 27 OFFCURVE",
"350 72 CURVE SMOOTH",
"350 83 OFFCURVE",
"352 95 OFFCURVE",
"353 102 CURVE",
"357 119 LINE",
"352 119 LINE",
"309 34 OFFCURVE",
"262 -12 OFFCURVE",
"182 -12 CURVE SMOOTH",
"134 -12 OFFCURVE",
"97 7 OFFCURVE",
"73 40 CURVE SMOOTH",
"49 73 OFFCURVE",
"37 119 OFFCURVE",
"37 175 CURVE SMOOTH",
"37 276 OFFCURVE",
"62 366 OFFCURVE",
"106 431 CURVE SMOOTH",
"149 495 OFFCURVE",
"211 534 OFFCURVE",
"283 534 CURVE SMOOTH",
"354 534 OFFCURVE",
"406 493 OFFCURVE",
"415 433 CURVE",
"420 433 LINE",
"438 522 LINE",
"559 522 LINE",
"474 99 LINE",
"537 99 LINE",
"518 0 LINE"
);
},
{
closed = 1;
nodes = (
"275 90 OFFCURVE",
"306 111 OFFCURVE",
"330 139 CURVE SMOOTH",
"356 168 OFFCURVE",
"374 205 OFFCURVE",
"383 249 CURVE SMOOTH",
"401 342 LINE SMOOTH",
"406 366 OFFCURVE",
"399 388 OFFCURVE",
"383 405 CURVE SMOOTH",
"367 422 OFFCURVE",
"342 433 OFFCURVE",
"310 433 CURVE SMOOTH",
"241 433 OFFCURVE",
"198 390 OFFCURVE",
"181 304 CURVE SMOOTH",
"167 232 LINE SMOOTH",
"164 217 OFFCURVE",
"161 193 OFFCURVE",
"161 177 CURVE SMOOTH",
"161 124 OFFCURVE",
"188 90 OFFCURVE",
"236 90 CURVE SMOOTH"
);
},
{
closed = 1;
nodes = (
"223 753 LINE",
"332 804 LINE",
"398 615 LINE",
"322 581 LINE"
);
}
);
width = 588;
}
);
leftKerningGroup = a;
rightKerningGroup = a;
unicode = 00E0;
},
{
glyphname = uni1EA3;
layers = (
{
layerId = "91171461-3A9C-47E5-8F32-6F9DD13F0C63";
name = "Bold Italic";
paths = (
{
closed = 1;
nodes = (
"432 0 LINE SMOOTH",
"384 0 OFFCURVE",
"350 27 OFFCURVE",
"350 72 CURVE SMOOTH",
"350 83 OFFCURVE",
"352 95 OFFCURVE",
"353 102 CURVE",
"357 119 LINE",
"352 119 LINE",
"309 34 OFFCURVE",
"262 -12 OFFCURVE",
"182 -12 CURVE SMOOTH",
"134 -12 OFFCURVE",
"97 7 OFFCURVE",
"73 40 CURVE SMOOTH",
"49 73 OFFCURVE",
"37 119 OFFCURVE",
"37 175 CURVE SMOOTH",
"37 276 OFFCURVE",
"62 366 OFFCURVE",
"106 431 CURVE SMOOTH",
"149 495 OFFCURVE",
"211 534 OFFCURVE",
"283 534 CURVE SMOOTH",
"354 534 OFFCURVE",
"406 493 OFFCURVE",
"415 433 CURVE",
"420 433 LINE",
"438 522 LINE",
"559 522 LINE",
"474 99 LINE",
"537 99 LINE",
"518 0 LINE"
);
},
{
closed = 1;
nodes = (
"275 90 OFFCURVE",
"306 111 OFFCURVE",
"330 139 CURVE SMOOTH",
"356 168 OFFCURVE",
"374 205 OFFCURVE",
"383 249 CURVE SMOOTH",
"401 342 LINE SMOOTH",
"406 366 OFFCURVE",
"399 388 OFFCURVE",
"383 405 CURVE SMOOTH",
"367 422 OFFCURVE",
"342 433 OFFCURVE",
"310 433 CURVE SMOOTH",
"241 433 OFFCURVE",
"198 390 OFFCURVE",
"181 304 CURVE SMOOTH",
"167 232 LINE SMOOTH",
"164 217 OFFCURVE",
"161 193 OFFCURVE",
"161 177 CURVE SMOOTH",
"161 124 OFFCURVE",
"188 90 OFFCURVE",
"236 90 CURVE SMOOTH"
);
},
{
closed = 1;
nodes = (
"273 791 LINE",
"407 791 LINE SMOOTH",
"458 791 OFFCURVE",
"480 766 OFFCURVE",
"480 737 CURVE SMOOTH",
"480 697 OFFCURVE",
"457 667 OFFCURVE",
"426 628 CURVE",
"378 573 LINE",
"318 603 LINE",
"373 701 LINE",
"256 701 LINE"
);
}
);
width = 588;
}
);
leftKerningGroup = a;
rightKerningGroup = a;
unicode = 1EA3;
},
{
glyphname = amacron;
layers = (
{
layerId = "91171461-3A9C-47E5-8F32-6F9DD13F0C63";
name = "Bold Italic";
paths = (
{
closed = 1;
nodes = (
"432 0 LINE SMOOTH",
"384 0 OFFCURVE",
"350 27 OFFCURVE",
"350 72 CURVE SMOOTH",
"350 83 OFFCURVE",
"352 95 OFFCURVE",
"353 102 CURVE",
"357 119 LINE",
"352 119 LINE",
"309 34 OFFCURVE",
"262 -12 OFFCURVE",
"182 -12 CURVE SMOOTH",
"134 -12 OFFCURVE",
"97 7 OFFCURVE",
"73 40 CURVE SMOOTH",
"49 73 OFFCURVE",
"37 119 OFFCURVE",
"37 175 CURVE SMOOTH",
"37 276 OFFCURVE",
"62 366 OFFCURVE",
"106 431 CURVE SMOOTH",
"149 495 OFFCURVE",
"211 534 OFFCURVE",
"283 534 CURVE SMOOTH",
"354 534 OFFCURVE",
"406 493 OFFCURVE",
"415 433 CURVE",
"420 433 LINE",
"438 522 LINE",
"559 522 LINE",
"474 99 LINE",
"537 99 LINE",
"518 0 LINE"
);
},
{
closed = 1;
nodes = (
"275 90 OFFCURVE",
"306 111 OFFCURVE",
"330 139 CURVE SMOOTH",
"356 168 OFFCURVE",
"374 205 OFFCURVE",
"383 249 CURVE SMOOTH",
"401 342 LINE SMOOTH",
"406 366 OFFCURVE",
"399 388 OFFCURVE",
"383 405 CURVE SMOOTH",
"367 422 OFFCURVE",
"342 433 OFFCURVE",
"310 433 CURVE SMOOTH",
"241 433 OFFCURVE",
"198 390 OFFCURVE",
"181 304 CURVE SMOOTH",
"167 232 LINE SMOOTH",
"164 217 OFFCURVE",
"161 193 OFFCURVE",
"161 177 CURVE SMOOTH",
"161 124 OFFCURVE",
"188 90 OFFCURVE",
"236 90 CURVE SMOOTH"
);
},
{
closed = 1;
nodes = (
"230 720 LINE",
"507 720 LINE",
"488 629 LINE",
"212 629 LINE"
);
}
);
width = 588;
}
);
leftKerningGroup = a;
rightKerningGroup = a;
unicode = 0101;
},
{
glyphname = aogonek;
layers = (
{
layerId = "91171461-3A9C-47E5-8F32-6F9DD13F0C63";
name = "Bold Italic";
paths = (
{
closed = 1;
nodes = (
"518 0 LINE",
"463 -33 OFFCURVE",
"434 -56 OFFCURVE",
"418 -74 CURVE SMOOTH",
"402 -92 OFFCURVE",
"399 -105 OFFCURVE",
"399 -114 CURVE SMOOTH",
"399 -133 OFFCURVE",
"410 -144 OFFCURVE",
"434 -144 CURVE SMOOTH",
"453 -144 OFFCURVE",
"473 -137 OFFCURVE",
"488 -117 CURVE",
"535 -165 LINE",
"512 -192 OFFCURVE",
"478 -210 OFFCURVE",
"419 -210 CURVE SMOOTH",
"358 -210 OFFCURVE",
"307 -185 OFFCURVE",
"307 -130 CURVE SMOOTH",
"307 -78 OFFCURVE",
"349 -33 OFFCURVE",
"441 -5 CURVE",
"440 0 LINE",
"432 0 LINE SMOOTH",
"384 0 OFFCURVE",
"350 27 OFFCURVE",
"350 72 CURVE SMOOTH",
"350 83 OFFCURVE",
"352 95 OFFCURVE",
"353 102 CURVE",
"357 119 LINE",
"352 119 LINE",
"309 34 OFFCURVE",
"262 -12 OFFCURVE",
"182 -12 CURVE SMOOTH",
"134 -12 OFFCURVE",
"97 7 OFFCURVE",
"73 40 CURVE SMOOTH",
"49 73 OFFCURVE",
"37 119 OFFCURVE",
"37 175 CURVE SMOOTH",
"37 276 OFFCURVE",
"62 366 OFFCURVE",
"106 431 CURVE SMOOTH",
"149 495 OFFCURVE",
"211 534 OFFCURVE",
"283 534 CURVE SMOOTH",
"354 534 OFFCURVE",
"406 493 OFFCURVE",
"415 433 CURVE",
"420 433 LINE",
"438 522 LINE",
"559 522 LINE",
"474 99 LINE",
"537 99 LINE"
);
},
{
closed = 1;
nodes = (
"275 90 OFFCURVE",
"307 112 OFFCURVE",
"330 139 CURVE SMOOTH",
"356 169 OFFCURVE",
"374 206 OFFCURVE",
"383 249 CURVE SMOOTH",
"401 342 LINE SMOOTH",
"406 366 OFFCURVE",
"399 388 OFFCURVE",
"383 405 CURVE SMOOTH",
"367 422 OFFCURVE",
"342 433 OFFCURVE",
"310 433 CURVE SMOOTH",
"241 433 OFFCURVE",
"198 390 OFFCURVE",
"181 304 CURVE SMOOTH",
"167 232 LINE SMOOTH",
"164 217 OFFCURVE",
"161 193 OFFCURVE",
"161 177 CURVE SMOOTH",
"161 124 OFFCURVE",
"188 90 OFFCURVE",
"236 90 CURVE SMOOTH"
);
}
);
width = 588;
}
);
leftKerningGroup = a;
rightKerningGroup = a;
unicode = 0105;
},
{
glyphname = aring;
layers = (
{
layerId = "91171461-3A9C-47E5-8F32-6F9DD13F0C63";
name = "Bold Italic";
paths = (
{
closed = 1;
nodes = (
"432 0 LINE SMOOTH",
"384 0 OFFCURVE",
"350 27 OFFCURVE",
"350 72 CURVE SMOOTH",
"350 83 OFFCURVE",
"352 95 OFFCURVE",
"353 102 CURVE",
"357 119 LINE",
"352 119 LINE",
"309 34 OFFCURVE",
"262 -12 OFFCURVE",
"182 -12 CURVE SMOOTH",
"134 -12 OFFCURVE",
"97 7 OFFCURVE",
"73 40 CURVE SMOOTH",
"49 73 OFFCURVE",
"37 119 OFFCURVE",
"37 175 CURVE SMOOTH",
"37 276 OFFCURVE",
"62 366 OFFCURVE",
"106 431 CURVE SMOOTH",
"149 495 OFFCURVE",
"211 534 OFFCURVE",
"283 534 CURVE SMOOTH",
"354 534 OFFCURVE",
"406 493 OFFCURVE",
"415 433 CURVE",
"420 433 LINE",
"438 522 LINE",
"559 522 LINE",
"474 99 LINE",
"537 99 LINE",
"518 0 LINE"
);
},
{
closed = 1;
nodes = (
"275 90 OFFCURVE",
"306 111 OFFCURVE",
"330 139 CURVE SMOOTH",
"356 168 OFFCURVE",
"374 205 OFFCURVE",
"383 249 CURVE SMOOTH",
"401 342 LINE SMOOTH",
"406 366 OFFCURVE",
"399 388 OFFCURVE",
"383 405 CURVE SMOOTH",
"367 422 OFFCURVE",
"342 433 OFFCURVE",
"310 433 CURVE SMOOTH",
"241 433 OFFCURVE",
"198 390 OFFCURVE",
"181 304 CURVE SMOOTH",
"167 232 LINE SMOOTH",
"164 217 OFFCURVE",
"161 193 OFFCURVE",
"161 177 CURVE SMOOTH",
"161 124 OFFCURVE",
"188 90 OFFCURVE",
"236 90 CURVE SMOOTH"
);
},
{
closed = 1;
nodes = (
"270 563 OFFCURVE",
"221 613 OFFCURVE",
"221 678 CURVE SMOOTH",
"221 725 OFFCURVE",
"238 763 OFFCURVE",
"266 791 CURVE SMOOTH",
"294 818 OFFCURVE",
"333 833 OFFCURVE",
"376 833 CURVE SMOOTH",
"445 833 OFFCURVE",
"495 785 OFFCURVE",
"495 717 CURVE SMOOTH",
"495 670 OFFCURVE",
"478 632 OFFCURVE",
"450 605 CURVE SMOOTH",
"422 578 OFFCURVE",
"384 563 OFFCURVE",
"341 563 CURVE SMOOTH"
);
},
{
closed = 1;
nodes = (
"379 629 OFFCURVE",
"399 650 OFFCURVE",
"406 682 CURVE SMOOTH",
"411 705 OFFCURVE",
"413 715 OFFCURVE",
"413 726 CURVE SMOOTH",
"413 753 OFFCURVE",
"399 766 OFFCURVE",
"370 766 CURVE SMOOTH",
"337 766 OFFCURVE",
"317 745 OFFCURVE",
"310 714 CURVE SMOOTH",
"305 693 OFFCURVE",
"303 679 OFFCURVE",
"303 670 CURVE SMOOTH",
"303 643 OFFCURVE",
"318 629 OFFCURVE",
"347 629 CURVE SMOOTH"
);
}
);
width = 588;
}
);
leftKerningGroup = a;
rightKerningGroup = a;
unicode = 00E5;
},
{
glyphname = aringacute;
layers = (
{
layerId = "91171461-3A9C-47E5-8F32-6F9DD13F0C63";
name = "Bold Italic";
paths = (
{
closed = 1;
nodes = (
"432 0 LINE SMOOTH",
"384 0 OFFCURVE",
"350 27 OFFCURVE",
"350 72 CURVE SMOOTH",
"350 83 OFFCURVE",
"352 95 OFFCURVE",
"353 102 CURVE",
"357 119 LINE",
"352 119 LINE",
"309 34 OFFCURVE",
"262 -12 OFFCURVE",
"182 -12 CURVE SMOOTH",
"134 -12 OFFCURVE",
"97 7 OFFCURVE",
"73 40 CURVE SMOOTH",
"49 73 OFFCURVE",
"37 119 OFFCURVE",
"37 175 CURVE SMOOTH",
"37 276 OFFCURVE",
"62 366 OFFCURVE",
"106 431 CURVE SMOOTH",
"149 495 OFFCURVE",
"211 534 OFFCURVE",
"283 534 CURVE SMOOTH",
"354 534 OFFCURVE",
"406 493 OFFCURVE",
"415 433 CURVE",
"420 433 LINE",
"438 522 LINE",
"559 522 LINE",
"474 99 LINE",
"537 99 LINE",
"518 0 LINE"
);
},
{
closed = 1;
nodes = (
"275 90 OFFCURVE",
"306 111 OFFCURVE",
"330 139 CURVE SMOOTH",
"356 168 OFFCURVE",
"374 205 OFFCURVE",
"383 249 CURVE SMOOTH",
"401 342 LINE SMOOTH",
"406 366 OFFCURVE",
"399 388 OFFCURVE",
"383 405 CURVE SMOOTH",
"367 422 OFFCURVE",
"342 433 OFFCURVE",
"310 433 CURVE SMOOTH",
"241 433 OFFCURVE",
"198 390 OFFCURVE",
"181 304 CURVE SMOOTH",
"167 232 LINE SMOOTH",
"164 217 OFFCURVE",
"161 193 OFFCURVE",
"161 177 CURVE SMOOTH",
"161 124 OFFCURVE",
"188 90 OFFCURVE",
"236 90 CURVE SMOOTH"
);
},
{
closed = 1;
nodes = (
"387 814 LINE",
"344 862 LINE",
"472 979 LINE",
"531 912 LINE"
);
},
{
closed = 1;
nodes = (
"273 565 OFFCURVE",
"223 603 OFFCURVE",
"223 666 CURVE SMOOTH",
"223 707 OFFCURVE",
"240 742 OFFCURVE",
"269 765 CURVE SMOOTH",
"297 788 OFFCURVE",
"336 801 OFFCURVE",
"380 801 CURVE SMOOTH",
"449 801 OFFCURVE",
"499 763 OFFCURVE",
"499 700 CURVE SMOOTH",
"499 657 OFFCURVE",
"482 624 OFFCURVE",
"454 601 CURVE SMOOTH",
"425 578 OFFCURVE",
"386 565 OFFCURVE",
"342 565 CURVE SMOOTH"
);
},
{
closed = 1;
nodes = (
"386 627 OFFCURVE",
"406 643 OFFCURVE",
"412 675 CURVE",
"415 686 OFFCURVE",
"416 697 OFFCURVE",
"416 702 CURVE SMOOTH",
"416 727 OFFCURVE",
"401 739 OFFCURVE",
"370 739 CURVE SMOOTH",
"335 739 OFFCURVE",
"315 723 OFFCURVE",
"310 692 CURVE",
"307 680 OFFCURVE",
"306 669 OFFCURVE",
"306 664 CURVE SMOOTH",
"306 639 OFFCURVE",
"321 627 OFFCURVE",
"351 627 CURVE SMOOTH"
);
}
);
width = 588;
}
);
leftKerningGroup = a;
rightKerningGroup = a;
unicode = 01FB;
},
{
glyphname = atilde;
layers = (
{
layerId = "91171461-3A9C-47E5-8F32-6F9DD13F0C63";
name = "Bold Italic";
paths = (
{
closed = 1;
nodes = (
"432 0 LINE SMOOTH",
"384 0 OFFCURVE",
"350 27 OFFCURVE",
"350 72 CURVE SMOOTH",
"350 83 OFFCURVE",
"352 95 OFFCURVE",
"353 102 CURVE",
"357 119 LINE",
"352 119 LINE",
"309 34 OFFCURVE",
"262 -12 OFFCURVE",
"182 -12 CURVE SMOOTH",
"134 -12 OFFCURVE",
"97 7 OFFCURVE",
"73 40 CURVE SMOOTH",
"49 73 OFFCURVE",
"37 119 OFFCURVE",
"37 175 CURVE SMOOTH",
"37 276 OFFCURVE",
"62 366 OFFCURVE",
"106 431 CURVE SMOOTH",
"149 495 OFFCURVE",
"211 534 OFFCURVE",
"283 534 CURVE SMOOTH",
"354 534 OFFCURVE",
"406 493 OFFCURVE",
"415 433 CURVE",
"420 433 LINE",
"438 522 LINE",
"559 522 LINE",
"474 99 LINE",
"537 99 LINE",
"518 0 LINE"
);
},
{
closed = 1;
nodes = (
"275 90 OFFCURVE",
"306 111 OFFCURVE",
"330 139 CURVE SMOOTH",
"356 168 OFFCURVE",
"374 205 OFFCURVE",
"383 249 CURVE SMOOTH",
"401 342 LINE SMOOTH",
"406 366 OFFCURVE",
"399 388 OFFCURVE",
"383 405 CURVE SMOOTH",
"367 422 OFFCURVE",
"342 433 OFFCURVE",
"310 433 CURVE SMOOTH",
"241 433 OFFCURVE",
"198 390 OFFCURVE",
"181 304 CURVE SMOOTH",
"167 232 LINE SMOOTH",
"164 217 OFFCURVE",
"161 193 OFFCURVE",
"161 177 CURVE SMOOTH",
"161 124 OFFCURVE",
"188 90 OFFCURVE",
"236 90 CURVE SMOOTH"
);
},
{
closed = 1;
nodes = (
"394 605 OFFCURVE",
"374 615 OFFCURVE",
"350 627 CURVE",
"323 642 OFFCURVE",
"303 649 OFFCURVE",
"280 649 CURVE SMOOTH",
"257 649 OFFCURVE",
"245 641 OFFCURVE",
"222 624 CURVE",
"183 683 LINE",
"211 718 OFFCURVE",
"246 743 OFFCURVE",
"293 743 CURVE SMOOTH",
"324 743 OFFCURVE",
"344 733 OFFCURVE",
"368 721 CURVE",
"395 706 OFFCURVE",
"415 699 OFFCURVE",
"438 699 CURVE SMOOTH",
"461 699 OFFCURVE",
"473 707 OFFCURVE",
"496 724 CURVE",
"535 665 LINE",
"507 630 OFFCURVE",
"472 605 OFFCURVE",
"425 605 CURVE SMOOTH"
);
}
);
width = 588;
}
);
leftKerningGroup = a;
rightKerningGroup = a;
unicode = 00E3;
},
{
glyphname = uni1EAF;
layers = (
{
layerId = "91171461-3A9C-47E5-8F32-6F9DD13F0C63";
name = "Bold Italic";
paths = (
{
closed = 1;
nodes = (
"432 0 LINE SMOOTH",
"384 0 OFFCURVE",
"350 27 OFFCURVE",
"350 72 CURVE SMOOTH",
"350 83 OFFCURVE",
"352 95 OFFCURVE",
"353 102 CURVE",
"357 119 LINE",
"352 119 LINE",
"309 34 OFFCURVE",
"262 -12 OFFCURVE",
"182 -12 CURVE SMOOTH",
"134 -12 OFFCURVE",
"97 7 OFFCURVE",
"73 40 CURVE SMOOTH",
"49 73 OFFCURVE",
"37 119 OFFCURVE",
"37 175 CURVE SMOOTH",
"37 276 OFFCURVE",
"62 366 OFFCURVE",
"106 431 CURVE SMOOTH",
"149 495 OFFCURVE",
"211 534 OFFCURVE",
"283 534 CURVE SMOOTH",
"354 534 OFFCURVE",
"406 493 OFFCURVE",
"415 433 CURVE",
"420 433 LINE",
"438 522 LINE",
"559 522 LINE",
"474 99 LINE",
"537 99 LINE",
"518 0 LINE"
);
},
{
closed = 1;
nodes = (
"275 90 OFFCURVE",
"306 111 OFFCURVE",
"330 139 CURVE SMOOTH",
"356 168 OFFCURVE",
"374 205 OFFCURVE",
"383 249 CURVE SMOOTH",
"401 342 LINE SMOOTH",
"406 366 OFFCURVE",
"399 388 OFFCURVE",
"383 405 CURVE SMOOTH",
"367 422 OFFCURVE",
"342 433 OFFCURVE",
"310 433 CURVE SMOOTH",
"241 433 OFFCURVE",
"198 390 OFFCURVE",
"181 304 CURVE SMOOTH",
"167 232 LINE SMOOTH",
"164 217 OFFCURVE",
"161 193 OFFCURVE",
"161 177 CURVE SMOOTH",
"161 124 OFFCURVE",
"188 90 OFFCURVE",
"236 90 CURVE SMOOTH"
);
},
{
closed = 1;
nodes = (
"290 576 OFFCURVE",
"251 595 OFFCURVE",
"225 623 CURVE SMOOTH",
"199 650 OFFCURVE",
"186 686 OFFCURVE",
"179 721 CURVE",
"245 759 LINE",
"260 732 LINE SMOOTH",
"273 708 OFFCURVE",
"285 691 OFFCURVE",
"298 680 CURVE",
"311 668 OFFCURVE",
"327 664 OFFCURVE",
"350 664 CURVE SMOOTH",
"389 664 OFFCURVE",
"414 681 OFFCURVE",
"461 732 CURVE SMOOTH",
"485 759 LINE",
"551 718 LINE",
"528 681 OFFCURVE",
"504 645 OFFCURVE",
"472 619 CURVE SMOOTH",
"439 593 OFFCURVE",
"399 576 OFFCURVE",
"346 576 CURVE SMOOTH"
);
},
{
closed = 1;
nodes = (
"378 723 LINE",
"311 759 LINE",
"417 945 LINE",
"512 894 LINE"
);
}
);
width = 588;
}
);
leftKerningGroup = a;
rightKerningGroup = a;
unicode = 1EAF;
},
{
glyphname = uni1EB7;
layers = (
{
layerId = "91171461-3A9C-47E5-8F32-6F9DD13F0C63";
name = "Bold Italic";
paths = (
{
closed = 1;
nodes = (
"432 0 LINE SMOOTH",
"384 0 OFFCURVE",
"350 27 OFFCURVE",
"350 72 CURVE SMOOTH",
"350 83 OFFCURVE",
"352 95 OFFCURVE",
"353 102 CURVE",
"357 119 LINE",
"352 119 LINE",
"309 34 OFFCURVE",
"262 -12 OFFCURVE",
"182 -12 CURVE SMOOTH",
"134 -12 OFFCURVE",
"97 7 OFFCURVE",
"73 40 CURVE SMOOTH",
"49 73 OFFCURVE",
"37 119 OFFCURVE",
"37 175 CURVE SMOOTH",
"37 276 OFFCURVE",
"62 366 OFFCURVE",
"106 431 CURVE SMOOTH",
"149 495 OFFCURVE",
"211 534 OFFCURVE",
"283 534 CURVE SMOOTH",
"354 534 OFFCURVE",
"406 493 OFFCURVE",
"415 433 CURVE",
"420 433 LINE",
"438 522 LINE",
"559 522 LINE",
"474 99 LINE",
"537 99 LINE",
"518 0 LINE"
);
},
{
closed = 1;
nodes = (
"275 90 OFFCURVE",
"306 111 OFFCURVE",
"330 139 CURVE SMOOTH",
"356 168 OFFCURVE",
"374 205 OFFCURVE",
"383 249 CURVE SMOOTH",
"401 342 LINE SMOOTH",
"406 366 OFFCURVE",
"399 388 OFFCURVE",
"383 405 CURVE SMOOTH",
"367 422 OFFCURVE",
"342 433 OFFCURVE",
"310 433 CURVE SMOOTH",
"241 433 OFFCURVE",
"198 390 OFFCURVE",
"181 304 CURVE SMOOTH",
"167 232 LINE SMOOTH",
"164 217 OFFCURVE",
"161 193 OFFCURVE",
"161 177 CURVE SMOOTH",
"161 124 OFFCURVE",
"188 90 OFFCURVE",
"236 90 CURVE SMOOTH"
);
},
{
closed = 1;
nodes = (
"290 584 OFFCURVE",
"255 605 OFFCURVE",
"231 636 CURVE SMOOTH",
"207 667 OFFCURVE",
"194 707 OFFCURVE",
"187 744 CURVE",
"257 779 LINE",
"272 745 LINE SMOOTH",
"293 700 OFFCURVE",
"310 674 OFFCURVE",
"351 674 CURVE SMOOTH",
"387 674 OFFCURVE",
"411 696 OFFCURVE",
"450 747 CURVE SMOOTH",
"475 779 LINE",
"548 741 LINE",
"527 702 OFFCURVE",
"502 663 OFFCURVE",
"470 634 CURVE SMOOTH",
"438 605 OFFCURVE",
"397 584 OFFCURVE",
"345 584 CURVE SMOOTH"
);
},
{
closed = 1;
nodes = (
"179 -193 OFFCURVE",
"160 -174 OFFCURVE",
"160 -145 CURVE SMOOTH",
"160 -142 OFFCURVE",
"160 -138 OFFCURVE",
"161 -133 CURVE",
"162 -129 OFFCURVE",
"163 -122 OFFCURVE",
"166 -112 CURVE",
"174 -79 OFFCURVE",
"193 -57 OFFCURVE",
"241 -57 CURVE SMOOTH",
"284 -57 OFFCURVE",
"302 -76 OFFCURVE",
"302 -104 CURVE SMOOTH",
"302 -107 OFFCURVE",
"302 -111 OFFCURVE",
"301 -115 CURVE",
"300 -120 OFFCURVE",
"299 -127 OFFCURVE",
"297 -138 CURVE SMOOTH",
"290 -171 OFFCURVE",
"269 -193 OFFCURVE",
"222 -193 CURVE SMOOTH"
);
}
);
width = 588;
}
);
leftKerningGroup = a;
rightKerningGroup = a;
unicode = 1EB7;
},
{
glyphname = uni1EB1;
layers = (
{
layerId = "91171461-3A9C-47E5-8F32-6F9DD13F0C63";
name = "Bold Italic";
paths = (
{
closed = 1;
nodes = (
"432 0 LINE SMOOTH",
"384 0 OFFCURVE",
"350 27 OFFCURVE",
"350 72 CURVE SMOOTH",
"350 83 OFFCURVE",
"352 95 OFFCURVE",
"353 102 CURVE",
"357 119 LINE",
"352 119 LINE",
"309 34 OFFCURVE",
"262 -12 OFFCURVE",
"182 -12 CURVE SMOOTH",
"134 -12 OFFCURVE",
"97 7 OFFCURVE",
"73 40 CURVE SMOOTH",
"49 73 OFFCURVE",
"37 119 OFFCURVE",
"37 175 CURVE SMOOTH",
"37 276 OFFCURVE",
"62 366 OFFCURVE",
"106 431 CURVE SMOOTH",
"149 495 OFFCURVE",
"211 534 OFFCURVE",
"283 534 CURVE SMOOTH",
"354 534 OFFCURVE",
"406 493 OFFCURVE",
"415 433 CURVE",
"420 433 LINE",
"438 522 LINE",
"559 522 LINE",
"474 99 LINE",
"537 99 LINE",
"518 0 LINE"
);
},
{
closed = 1;
nodes = (
"275 90 OFFCURVE",
"306 111 OFFCURVE",
"330 139 CURVE SMOOTH",
"356 168 OFFCURVE",
"374 205 OFFCURVE",
"383 249 CURVE SMOOTH",
"401 342 LINE SMOOTH",
"406 366 OFFCURVE",
"399 388 OFFCURVE",
"383 405 CURVE SMOOTH",
"367 422 OFFCURVE",
"342 433 OFFCURVE",
"310 433 CURVE SMOOTH",
"241 433 OFFCURVE",
"198 390 OFFCURVE",
"181 304 CURVE SMOOTH",
"167 232 LINE SMOOTH",
"164 217 OFFCURVE",
"161 193 OFFCURVE",
"161 177 CURVE SMOOTH",
"161 124 OFFCURVE",
"188 90 OFFCURVE",
"236 90 CURVE SMOOTH"
);
},
{
closed = 1;
nodes = (
"290 576 OFFCURVE",
"251 595 OFFCURVE",
"225 623 CURVE SMOOTH",
"199 650 OFFCURVE",
"186 686 OFFCURVE",
"179 721 CURVE",
"245 759 LINE",
"260 732 LINE SMOOTH",
"273 708 OFFCURVE",
"285 691 OFFCURVE",
"298 680 CURVE",
"311 668 OFFCURVE",
"327 664 OFFCURVE",
"350 664 CURVE SMOOTH",
"389 664 OFFCURVE",
"414 681 OFFCURVE",
"461 732 CURVE SMOOTH",
"485 759 LINE",
"551 718 LINE",
"528 681 OFFCURVE",
"504 645 OFFCURVE",
"472 619 CURVE SMOOTH",
"439 593 OFFCURVE",
"399 576 OFFCURVE",
"346 576 CURVE SMOOTH"
);
},
{
closed = 1;
nodes = (
"251 896 LINE",
"356 944 LINE",
"416 757 LINE",
"343 724 LINE"
);
}
);
width = 588;
}
);
leftKerningGroup = a;
rightKerningGroup = a;
unicode = 1EB1;
},
{
glyphname = uni1EB3;
layers = (
{
layerId = "91171461-3A9C-47E5-8F32-6F9DD13F0C63";
name = "Bold Italic";
paths = (
{
closed = 1;
nodes = (
"432 0 LINE SMOOTH",
"384 0 OFFCURVE",
"350 27 OFFCURVE",
"350 72 CURVE SMOOTH",
"350 83 OFFCURVE",
"352 95 OFFCURVE",
"353 102 CURVE",
"357 119 LINE",
"352 119 LINE",
"309 34 OFFCURVE",
"262 -12 OFFCURVE",
"182 -12 CURVE SMOOTH",
"134 -12 OFFCURVE",
"97 7 OFFCURVE",
"73 40 CURVE SMOOTH",
"49 73 OFFCURVE",
"37 119 OFFCURVE",
"37 175 CURVE SMOOTH",
"37 276 OFFCURVE",
"62 366 OFFCURVE",
"106 431 CURVE SMOOTH",
"149 495 OFFCURVE",
"211 534 OFFCURVE",
"283 534 CURVE SMOOTH",
"354 534 OFFCURVE",
"406 493 OFFCURVE",
"415 433 CURVE",
"420 433 LINE",
"438 522 LINE",
"559 522 LINE",
"474 99 LINE",
"537 99 LINE",
"518 0 LINE"
);
},
{
closed = 1;
nodes = (
"275 90 OFFCURVE",
"306 111 OFFCURVE",
"330 139 CURVE SMOOTH",
"356 168 OFFCURVE",
"374 205 OFFCURVE",
"383 249 CURVE SMOOTH",
"401 342 LINE SMOOTH",
"406 366 OFFCURVE",
"399 388 OFFCURVE",
"383 405 CURVE SMOOTH",
"367 422 OFFCURVE",
"342 433 OFFCURVE",
"310 433 CURVE SMOOTH",
"241 433 OFFCURVE",
"198 390 OFFCURVE",
"181 304 CURVE SMOOTH",
"167 232 LINE SMOOTH",
"164 217 OFFCURVE",
"161 193 OFFCURVE",
"161 177 CURVE SMOOTH",
"161 124 OFFCURVE",
"188 90 OFFCURVE",
"236 90 CURVE SMOOTH"
);
},
{
closed = 1;
nodes = (
"290 576 OFFCURVE",
"251 595 OFFCURVE",
"225 623 CURVE SMOOTH",
"199 650 OFFCURVE",
"186 686 OFFCURVE",
"179 721 CURVE",
"245 759 LINE",
"260 732 LINE SMOOTH",
"273 708 OFFCURVE",
"285 691 OFFCURVE",
"298 680 CURVE",
"311 668 OFFCURVE",
"327 664 OFFCURVE",
"350 664 CURVE SMOOTH",
"389 664 OFFCURVE",
"414 681 OFFCURVE",
"461 732 CURVE SMOOTH",
"485 759 LINE",
"551 718 LINE",
"528 681 OFFCURVE",
"504 645 OFFCURVE",
"472 619 CURVE SMOOTH",
"439 593 OFFCURVE",
"399 576 OFFCURVE",
"346 576 CURVE SMOOTH"
);
},
{
closed = 1;
nodes = (
"281 931 LINE",
"407 931 LINE SMOOTH",
"458 931 OFFCURVE",
"479 907 OFFCURVE",
"479 876 CURVE SMOOTH",
"479 837 OFFCURVE",
"457 805 OFFCURVE",
"426 768 CURVE SMOOTH",
"378 712 LINE",
"318 743 LINE",
"374 843 LINE",
"264 843 LINE"
);
}
);
width = 588;
}
);
leftKerningGroup = a;
rightKerningGroup = a;
unicode = 1EB3;
},
{
glyphname = uni1EB5;
layers = (
{
layerId = "91171461-3A9C-47E5-8F32-6F9DD13F0C63";
name = "Bold Italic";
paths = (
{
closed = 1;
nodes = (
"432 0 LINE SMOOTH",
"384 0 OFFCURVE",
"350 27 OFFCURVE",
"350 72 CURVE SMOOTH",
"350 83 OFFCURVE",
"352 95 OFFCURVE",
"353 102 CURVE",
"357 119 LINE",
"352 119 LINE",
"309 34 OFFCURVE",
"262 -12 OFFCURVE",
"182 -12 CURVE SMOOTH",
"134 -12 OFFCURVE",
"97 7 OFFCURVE",
"73 40 CURVE SMOOTH",
"49 73 OFFCURVE",
"37 119 OFFCURVE",
"37 175 CURVE SMOOTH",
"37 276 OFFCURVE",
"62 366 OFFCURVE",
"106 431 CURVE SMOOTH",
"149 495 OFFCURVE",
"211 534 OFFCURVE",
"283 534 CURVE SMOOTH",
"354 534 OFFCURVE",
"406 493 OFFCURVE",
"415 433 CURVE",
"420 433 LINE",
"438 522 LINE",
"559 522 LINE",
"474 99 LINE",
"537 99 LINE",
"518 0 LINE"
);
},
{
closed = 1;
nodes = (
"275 90 OFFCURVE",
"306 111 OFFCURVE",
"330 139 CURVE SMOOTH",
"356 168 OFFCURVE",
"374 205 OFFCURVE",
"383 249 CURVE SMOOTH",
"401 342 LINE SMOOTH",
"406 366 OFFCURVE",
"399 388 OFFCURVE",
"383 405 CURVE SMOOTH",
"367 422 OFFCURVE",
"342 433 OFFCURVE",
"310 433 CURVE SMOOTH",
"241 433 OFFCURVE",
"198 390 OFFCURVE",
"181 304 CURVE SMOOTH",
"167 232 LINE SMOOTH",
"164 217 OFFCURVE",
"161 193 OFFCURVE",
"161 177 CURVE SMOOTH",
"161 124 OFFCURVE",
"188 90 OFFCURVE",
"236 90 CURVE SMOOTH"
);
},
{
closed = 1;
nodes = (
"290 576 OFFCURVE",
"251 595 OFFCURVE",
"225 623 CURVE SMOOTH",
"199 650 OFFCURVE",
"186 686 OFFCURVE",
"179 721 CURVE",
"245 759 LINE",
"260 732 LINE SMOOTH",
"273 708 OFFCURVE",
"285 691 OFFCURVE",
"298 680 CURVE",
"311 668 OFFCURVE",
"327 664 OFFCURVE",
"350 664 CURVE SMOOTH",
"389 664 OFFCURVE",
"414 681 OFFCURVE",
"461 732 CURVE SMOOTH",
"485 759 LINE",
"551 718 LINE",
"528 681 OFFCURVE",
"504 645 OFFCURVE",
"472 619 CURVE SMOOTH",
"439 593 OFFCURVE",
"399 576 OFFCURVE",
"346 576 CURVE SMOOTH"
);
},
{
closed = 1;
nodes = (
"407 782 OFFCURVE",
"387 793 OFFCURVE",
"366 804 CURVE SMOOTH",
"339 819 OFFCURVE",
"321 827 OFFCURVE",
"298 827 CURVE SMOOTH",
"277 827 OFFCURVE",
"260 818 OFFCURVE",
"237 801 CURVE",
"205 858 LINE",
"232 891 OFFCURVE",
"270 917 OFFCURVE",
"319 917 CURVE SMOOTH",
"348 917 OFFCURVE",
"368 906 OFFCURVE",
"389 895 CURVE SMOOTH",
"416 880 OFFCURVE",
"434 872 OFFCURVE",
"457 872 CURVE SMOOTH",
"478 872 OFFCURVE",
"495 881 OFFCURVE",
"518 898 CURVE",
"550 841 LINE",
"523 808 OFFCURVE",
"485 782 OFFCURVE",
"436 782 CURVE SMOOTH"
);
}
);
width = 588;
}
);
leftKerningGroup = a;
rightKerningGroup = a;
unicode = 1EB5;
},
{
glyphname = uni1EA5;
layers = (
{
layerId = "91171461-3A9C-47E5-8F32-6F9DD13F0C63";
name = "Bold Italic";
paths = (
{
closed = 1;
nodes = (
"432 0 LINE SMOOTH",
"384 0 OFFCURVE",
"350 27 OFFCURVE",
"350 72 CURVE SMOOTH",
"350 83 OFFCURVE",
"352 95 OFFCURVE",
"353 102 CURVE",
"357 119 LINE",
"352 119 LINE",
"309 34 OFFCURVE",
"262 -12 OFFCURVE",
"182 -12 CURVE SMOOTH",
"134 -12 OFFCURVE",
"97 7 OFFCURVE",
"73 40 CURVE SMOOTH",
"49 73 OFFCURVE",
"37 119 OFFCURVE",
"37 175 CURVE SMOOTH",
"37 276 OFFCURVE",
"62 366 OFFCURVE",
"106 431 CURVE SMOOTH",
"149 495 OFFCURVE",
"211 534 OFFCURVE",
"283 534 CURVE SMOOTH",
"354 534 OFFCURVE",
"406 493 OFFCURVE",
"415 433 CURVE",
"420 433 LINE",
"438 522 LINE",
"559 522 LINE",
"474 99 LINE",
"537 99 LINE",
"518 0 LINE"
);
},
{
closed = 1;
nodes = (
"275 90 OFFCURVE",
"306 111 OFFCURVE",
"330 139 CURVE SMOOTH",
"356 168 OFFCURVE",
"374 205 OFFCURVE",
"383 249 CURVE SMOOTH",
"401 342 LINE SMOOTH",
"406 366 OFFCURVE",
"399 388 OFFCURVE",
"383 405 CURVE SMOOTH",
"367 422 OFFCURVE",
"342 433 OFFCURVE",
"310 433 CURVE SMOOTH",
"241 433 OFFCURVE",
"198 390 OFFCURVE",
"181 304 CURVE SMOOTH",
"167 232 LINE SMOOTH",
"164 217 OFFCURVE",
"161 193 OFFCURVE",
"161 177 CURVE SMOOTH",
"161 124 OFFCURVE",
"188 90 OFFCURVE",
"236 90 CURVE SMOOTH"
);
},
{
closed = 1;
nodes = (
"534 724 LINE",
"466 760 LINE",
"570 944 LINE",
"666 895 LINE"
);
},
{
closed = 1;
nodes = (
"423 770 LINE",
"527 626 LINE",
"465 573 LINE",
"368 680 LINE",
"230 573 LINE",
"173 626 LINE",
"332 770 LINE"
);
}
);
width = 588;
}
);
leftKerningGroup = a;
rightKerningGroup = a;
unicode = 1EA5;
},
{
glyphname = uni1EAD;
layers = (
{
layerId = "91171461-3A9C-47E5-8F32-6F9DD13F0C63";
name = "Bold Italic";
paths = (
{
closed = 1;
nodes = (
"432 0 LINE SMOOTH",
"384 0 OFFCURVE",
"350 27 OFFCURVE",
"350 72 CURVE SMOOTH",
"350 83 OFFCURVE",
"352 95 OFFCURVE",
"353 102 CURVE",
"357 119 LINE",
"352 119 LINE",
"309 34 OFFCURVE",
"262 -12 OFFCURVE",
"182 -12 CURVE SMOOTH",
"134 -12 OFFCURVE",
"97 7 OFFCURVE",
"73 40 CURVE SMOOTH",
"49 73 OFFCURVE",
"37 119 OFFCURVE",
"37 175 CURVE SMOOTH",
"37 276 OFFCURVE",
"62 366 OFFCURVE",
"106 431 CURVE SMOOTH",
"149 495 OFFCURVE",
"211 534 OFFCURVE",
"283 534 CURVE SMOOTH",
"354 534 OFFCURVE",
"406 493 OFFCURVE",
"415 433 CURVE",
"420 433 LINE",
"438 522 LINE",
"559 522 LINE",
"474 99 LINE",
"537 99 LINE",
"518 0 LINE"
);
},
{
closed = 1;
nodes = (
"275 90 OFFCURVE",
"306 111 OFFCURVE",
"330 139 CURVE SMOOTH",
"356 168 OFFCURVE",
"374 205 OFFCURVE",
"383 249 CURVE SMOOTH",
"401 342 LINE SMOOTH",
"406 366 OFFCURVE",
"399 388 OFFCURVE",
"383 405 CURVE SMOOTH",
"367 422 OFFCURVE",
"342 433 OFFCURVE",
"310 433 CURVE SMOOTH",
"241 433 OFFCURVE",
"198 390 OFFCURVE",
"181 304 CURVE SMOOTH",
"167 232 LINE SMOOTH",
"164 217 OFFCURVE",
"161 193 OFFCURVE",
"161 177 CURVE SMOOTH",
"161 124 OFFCURVE",
"188 90 OFFCURVE",
"236 90 CURVE SMOOTH"
);
},
{
closed = 1;
nodes = (
"430 786 LINE",
"525 632 LINE",
"459 582 LINE",
"363 698 LINE",
"227 583 LINE",
"166 632 LINE",
"317 786 LINE"
);
},
{
closed = 1;
nodes = (
"179 -193 OFFCURVE",
"160 -174 OFFCURVE",
"160 -145 CURVE SMOOTH",
"160 -142 OFFCURVE",
"160 -138 OFFCURVE",
"161 -133 CURVE",
"162 -129 OFFCURVE",
"163 -122 OFFCURVE",
"166 -112 CURVE",
"174 -79 OFFCURVE",
"193 -57 OFFCURVE",
"241 -57 CURVE SMOOTH",
"284 -57 OFFCURVE",
"302 -76 OFFCURVE",
"302 -104 CURVE SMOOTH",
"302 -107 OFFCURVE",
"302 -111 OFFCURVE",
"301 -115 CURVE",
"300 -120 OFFCURVE",
"299 -127 OFFCURVE",
"297 -138 CURVE SMOOTH",
"290 -171 OFFCURVE",
"269 -193 OFFCURVE",
"222 -193 CURVE SMOOTH"
);
}
);
width = 588;
}
);
leftKerningGroup = a;
rightKerningGroup = a;
unicode = 1EAD;
},
{
glyphname = uni1EA7;
layers = (
{
layerId = "91171461-3A9C-47E5-8F32-6F9DD13F0C63";
name = "Bold Italic";
paths = (
{
closed = 1;
nodes = (
"432 0 LINE SMOOTH",
"384 0 OFFCURVE",
"350 27 OFFCURVE",
"350 72 CURVE SMOOTH",
"350 83 OFFCURVE",
"352 95 OFFCURVE",
"353 102 CURVE",
"357 119 LINE",
"352 119 LINE",
"309 34 OFFCURVE",
"262 -12 OFFCURVE",
"182 -12 CURVE SMOOTH",
"134 -12 OFFCURVE",
"97 7 OFFCURVE",
"73 40 CURVE SMOOTH",
"49 73 OFFCURVE",
"37 119 OFFCURVE",
"37 175 CURVE SMOOTH",
"37 276 OFFCURVE",
"62 366 OFFCURVE",
"106 431 CURVE SMOOTH",
"149 495 OFFCURVE",
"211 534 OFFCURVE",
"283 534 CURVE SMOOTH",
"354 534 OFFCURVE",
"406 493 OFFCURVE",
"415 433 CURVE",
"420 433 LINE",
"438 522 LINE",
"559 522 LINE",
"474 99 LINE",
"537 99 LINE",
"518 0 LINE"
);
},
{
closed = 1;
nodes = (
"275 90 OFFCURVE",
"306 111 OFFCURVE",
"330 139 CURVE SMOOTH",
"356 168 OFFCURVE",
"374 205 OFFCURVE",
"383 249 CURVE SMOOTH",
"401 342 LINE SMOOTH",
"406 366 OFFCURVE",
"399 388 OFFCURVE",
"383 405 CURVE SMOOTH",
"367 422 OFFCURVE",
"342 433 OFFCURVE",
"310 433 CURVE SMOOTH",
"241 433 OFFCURVE",
"198 390 OFFCURVE",
"181 304 CURVE SMOOTH",
"167 232 LINE SMOOTH",
"164 217 OFFCURVE",
"161 193 OFFCURVE",
"161 177 CURVE SMOOTH",
"161 124 OFFCURVE",
"188 90 OFFCURVE",
"236 90 CURVE SMOOTH"
);
},
{
closed = 1;
nodes = (
"106 896 LINE",
"206 944 LINE",
"275 758 LINE",
"210 725 LINE"
);
},
{
closed = 1;
nodes = (
"422 770 LINE",
"527 626 LINE",
"465 573 LINE",
"368 680 LINE",
"230 573 LINE",
"173 626 LINE",
"331 770 LINE"
);
}
);
width = 588;
}
);
leftKerningGroup = a;
rightKerningGroup = a;
unicode = 1EA7;
},
{
glyphname = uni1EA9;
layers = (
{
layerId = "91171461-3A9C-47E5-8F32-6F9DD13F0C63";
name = "Bold Italic";
paths = (
{
closed = 1;
nodes = (
"432 0 LINE SMOOTH",
"384 0 OFFCURVE",
"350 27 OFFCURVE",
"350 72 CURVE SMOOTH",
"350 83 OFFCURVE",
"352 95 OFFCURVE",
"353 102 CURVE",
"357 119 LINE",
"352 119 LINE",
"309 34 OFFCURVE",
"262 -12 OFFCURVE",
"182 -12 CURVE SMOOTH",
"134 -12 OFFCURVE",
"97 7 OFFCURVE",
"73 40 CURVE SMOOTH",
"49 73 OFFCURVE",
"37 119 OFFCURVE",
"37 175 CURVE SMOOTH",
"37 276 OFFCURVE",
"62 366 OFFCURVE",
"106 431 CURVE SMOOTH",
"149 495 OFFCURVE",
"211 534 OFFCURVE",
"283 534 CURVE SMOOTH",
"354 534 OFFCURVE",
"406 493 OFFCURVE",
"415 433 CURVE",
"420 433 LINE",
"438 522 LINE",
"559 522 LINE",
"474 99 LINE",
"537 99 LINE",
"518 0 LINE"
);
},
{
closed = 1;
nodes = (
"275 90 OFFCURVE",
"306 111 OFFCURVE",
"330 139 CURVE SMOOTH",
"356 168 OFFCURVE",
"374 205 OFFCURVE",
"383 249 CURVE SMOOTH",
"401 342 LINE SMOOTH",
"406 366 OFFCURVE",
"399 388 OFFCURVE",
"383 405 CURVE SMOOTH",
"367 422 OFFCURVE",
"342 433 OFFCURVE",
"310 433 CURVE SMOOTH",
"241 433 OFFCURVE",
"198 390 OFFCURVE",
"181 304 CURVE SMOOTH",
"167 232 LINE SMOOTH",
"164 217 OFFCURVE",
"161 193 OFFCURVE",
"161 177 CURVE SMOOTH",
"161 124 OFFCURVE",
"188 90 OFFCURVE",
"236 90 CURVE SMOOTH"
);
},
{
closed = 1;
nodes = (
"437 931 LINE",
"564 931 LINE SMOOTH",
"615 931 OFFCURVE",
"636 906 OFFCURVE",
"636 877 CURVE SMOOTH",
"636 837 OFFCURVE",
"613 806 OFFCURVE",
"582 769 CURVE SMOOTH",
"534 712 LINE",
"474 743 LINE",
"532 843 LINE",
"420 843 LINE"
);
},
{
closed = 1;
nodes = (
"422 770 LINE",
"527 626 LINE",
"465 573 LINE",
"368 680 LINE",
"230 573 LINE",
"173 626 LINE",
"331 770 LINE"
);
}
);
width = 588;
}
);
leftKerningGroup = a;
rightKerningGroup = a;
unicode = 1EA9;
},
{
glyphname = uni1EAB;
layers = (
{
layerId = "91171461-3A9C-47E5-8F32-6F9DD13F0C63";
name = "Bold Italic";
paths = (
{
closed = 1;
nodes = (
"432 0 LINE SMOOTH",
"384 0 OFFCURVE",
"350 27 OFFCURVE",
"350 72 CURVE SMOOTH",
"350 83 OFFCURVE",
"352 95 OFFCURVE",
"353 102 CURVE",
"357 119 LINE",
"352 119 LINE",
"309 34 OFFCURVE",
"262 -12 OFFCURVE",
"182 -12 CURVE SMOOTH",
"134 -12 OFFCURVE",
"97 7 OFFCURVE",
"73 40 CURVE SMOOTH",
"49 73 OFFCURVE",
"37 119 OFFCURVE",
"37 175 CURVE SMOOTH",
"37 276 OFFCURVE",
"62 366 OFFCURVE",
"106 431 CURVE SMOOTH",
"149 495 OFFCURVE",
"211 534 OFFCURVE",
"283 534 CURVE SMOOTH",
"354 534 OFFCURVE",
"406 493 OFFCURVE",
"415 433 CURVE",
"420 433 LINE",
"438 522 LINE",
"559 522 LINE",
"474 99 LINE",
"537 99 LINE",
"518 0 LINE"
);
},
{
closed = 1;
nodes = (
"275 90 OFFCURVE",
"306 111 OFFCURVE",
"330 139 CURVE SMOOTH",
"356 168 OFFCURVE",
"374 205 OFFCURVE",
"383 249 CURVE SMOOTH",
"401 342 LINE SMOOTH",
"406 366 OFFCURVE",
"399 388 OFFCURVE",
"383 405 CURVE SMOOTH",
"367 422 OFFCURVE",
"342 433 OFFCURVE",
"310 433 CURVE SMOOTH",
"241 433 OFFCURVE",
"198 390 OFFCURVE",
"181 304 CURVE SMOOTH",
"167 232 LINE SMOOTH",
"164 217 OFFCURVE",
"161 193 OFFCURVE",
"161 177 CURVE SMOOTH",
"161 124 OFFCURVE",
"188 90 OFFCURVE",
"236 90 CURVE SMOOTH"
);
},
{
closed = 1;
nodes = (
"360 924 OFFCURVE",
"376 914 OFFCURVE",
"399 902 CURVE SMOOTH",
"426 887 OFFCURVE",
"444 880 OFFCURVE",
"465 880 CURVE SMOOTH",
"485 880 OFFCURVE",
"501 888 OFFCURVE",
"524 905 CURVE",
"556 849 LINE",
"528 817 OFFCURVE",
"489 790 OFFCURVE",
"442 790 CURVE SMOOTH",
"415 790 OFFCURVE",
"397 800 OFFCURVE",
"376 812 CURVE SMOOTH",
"349 827 OFFCURVE",
"332 834 OFFCURVE",
"309 834 CURVE SMOOTH",
"290 834 OFFCURVE",
"274 825 OFFCURVE",
"251 808 CURVE",
"219 864 LINE",
"247 897 OFFCURVE",
"285 924 OFFCURVE",
"332 924 CURVE SMOOTH"
);
},
{
closed = 1;
nodes = (
"418 761 LINE",
"524 628 LINE",
"461 574 LINE",
"360 680 LINE",
"227 574 LINE",
"169 628 LINE",
"326 761 LINE"
);
}
);
width = 588;
}
);
leftKerningGroup = a;
rightKerningGroup = a;
unicode = 1EAB;
},
{
glyphname = ae;
layers = (
{
layerId = "91171461-3A9C-47E5-8F32-6F9DD13F0C63";
name = "Bold Italic";
paths = (
{
closed = 1;
nodes = (
"245 79 OFFCURVE",
"271 86 OFFCURVE",
"292 99 CURVE SMOOTH",
"312 112 OFFCURVE",
"328 132 OFFCURVE",
"333 157 CURVE SMOOTH",
"346 221 LINE",
"259 217 LINE SMOOTH",
"208 214 OFFCURVE",
"166 206 OFFCURVE",
"155 163 CURVE SMOOTH",
"153 154 OFFCURVE",
"152 146 OFFCURVE",
"152 140 CURVE",
"151 134 OFFCURVE",
"151 130 OFFCURVE",
"151 129 CURVE SMOOTH",
"151 97 OFFCURVE",
"177 79 OFFCURVE",
"218 79 CURVE SMOOTH"
);
},
{
closed = 1;
nodes = (
"550 440 OFFCURVE",
"501 393 OFFCURVE",
"486 317 CURVE",
"481 296 LINE",
"566 300 OFFCURVE",
"618 310 OFFCURVE",
"648 324 CURVE SMOOTH",
"678 338 OFFCURVE",
"687 356 OFFCURVE",
"687 379 CURVE SMOOTH",
"687 404 OFFCURVE",
"677 420 OFFCURVE",
"664 429 CURVE",
"651 437 OFFCURVE",
"634 440 OFFCURVE",
"618 440 CURVE SMOOTH"
);
},
{
closed = 1;
nodes = (
"79 -12 OFFCURVE",
"25 39 OFFCURVE",
"25 124 CURVE SMOOTH",
"25 231 OFFCURVE",
"109 283 OFFCURVE",
"265 290 CURVE SMOOTH",
"361 294 LINE",
"367 331 LINE SMOOTH",
"369 342 OFFCURVE",
"370 351 OFFCURVE",
"370 360 CURVE SMOOTH",
"370 410 OFFCURVE",
"341 435 OFFCURVE",
"282 435 CURVE SMOOTH",
"219 435 OFFCURVE",
"187 405 OFFCURVE",
"156 365 CURVE",
"85 434 LINE",
"129 495 OFFCURVE",
"202 534 OFFCURVE",
"293 534 CURVE SMOOTH",
"372 534 OFFCURVE",
"422 504 OFFCURVE",
"447 453 CURVE",
"454 453 LINE",
"497 504 OFFCURVE",
"553 534 OFFCURVE",
"626 534 CURVE SMOOTH",
"666 534 OFFCURVE",
"710 525 OFFCURVE",
"746 503 CURVE SMOOTH",
"781 481 OFFCURVE",
"806 444 OFFCURVE",
"806 391 CURVE SMOOTH",
"806 336 OFFCURVE",
"779 295 OFFCURVE",
"725 267 CURVE SMOOTH",
"670 238 OFFCURVE",
"585 223 OFFCURVE",
"468 220 CURVE",
"466 204 OFFCURVE",
"465 191 OFFCURVE",
"465 182 CURVE SMOOTH",
"465 126 OFFCURVE",
"495 88 OFFCURVE",
"567 88 CURVE SMOOTH",
"618 88 OFFCURVE",
"659 108 OFFCURVE",
"703 164 CURVE",
"779 102 LINE",
"714 18 OFFCURVE",
"645 -12 OFFCURVE",
"558 -12 CURVE SMOOTH",
"462 -12 OFFCURVE",
"398 26 OFFCURVE",
"367 93 CURVE",
"360 93 LINE",
"324 20 OFFCURVE",
"258 -12 OFFCURVE",
"179 -12 CURVE SMOOTH"
);
}
);
width = 821;
}
);
leftKerningGroup = ae;
rightKerningGroup = e;
unicode = 00E6;
},
{
glyphname = aeacute;
layers = (
{
layerId = "91171461-3A9C-47E5-8F32-6F9DD13F0C63";
name = "Bold Italic";
paths = (
{
closed = 1;
nodes = (
"245 79 OFFCURVE",
"271 86 OFFCURVE",
"292 99 CURVE SMOOTH",
"312 112 OFFCURVE",
"328 132 OFFCURVE",
"333 157 CURVE SMOOTH",
"346 221 LINE",
"259 217 LINE SMOOTH",
"208 214 OFFCURVE",
"166 206 OFFCURVE",
"155 163 CURVE SMOOTH",
"153 154 OFFCURVE",
"152 146 OFFCURVE",
"152 140 CURVE",
"151 134 OFFCURVE",
"151 130 OFFCURVE",
"151 129 CURVE SMOOTH",
"151 97 OFFCURVE",
"177 79 OFFCURVE",
"218 79 CURVE SMOOTH"
);
},
{
closed = 1;
nodes = (
"550 440 OFFCURVE",
"501 393 OFFCURVE",
"486 317 CURVE",
"481 296 LINE",
"566 300 OFFCURVE",
"618 310 OFFCURVE",
"648 324 CURVE SMOOTH",
"678 338 OFFCURVE",
"687 356 OFFCURVE",
"687 379 CURVE SMOOTH",
"687 404 OFFCURVE",
"677 420 OFFCURVE",
"664 429 CURVE",
"651 437 OFFCURVE",
"634 440 OFFCURVE",
"618 440 CURVE SMOOTH"
);
},
{
closed = 1;
nodes = (
"79 -12 OFFCURVE",
"25 39 OFFCURVE",
"25 124 CURVE SMOOTH",
"25 231 OFFCURVE",
"109 283 OFFCURVE",
"265 290 CURVE SMOOTH",
"361 294 LINE",
"367 331 LINE SMOOTH",
"369 342 OFFCURVE",
"370 351 OFFCURVE",
"370 360 CURVE SMOOTH",
"370 410 OFFCURVE",
"341 435 OFFCURVE",
"282 435 CURVE SMOOTH",
"219 435 OFFCURVE",
"187 405 OFFCURVE",
"156 365 CURVE",
"85 434 LINE",
"129 495 OFFCURVE",
"202 534 OFFCURVE",
"293 534 CURVE SMOOTH",
"372 534 OFFCURVE",
"422 504 OFFCURVE",
"447 453 CURVE",
"454 453 LINE",
"497 504 OFFCURVE",
"553 534 OFFCURVE",
"626 534 CURVE SMOOTH",
"666 534 OFFCURVE",
"710 525 OFFCURVE",
"746 503 CURVE SMOOTH",
"781 481 OFFCURVE",
"806 444 OFFCURVE",
"806 391 CURVE SMOOTH",
"806 336 OFFCURVE",
"779 295 OFFCURVE",
"725 267 CURVE SMOOTH",
"670 238 OFFCURVE",
"585 223 OFFCURVE",
"468 220 CURVE",
"466 204 OFFCURVE",
"465 191 OFFCURVE",
"465 182 CURVE SMOOTH",
"465 126 OFFCURVE",
"495 88 OFFCURVE",
"567 88 CURVE SMOOTH",
"618 88 OFFCURVE",
"659 108 OFFCURVE",
"703 164 CURVE",
"779 102 LINE",
"714 18 OFFCURVE",
"645 -12 OFFCURVE",
"558 -12 CURVE SMOOTH",
"462 -12 OFFCURVE",
"398 26 OFFCURVE",
"367 93 CURVE",
"360 93 LINE",
"324 20 OFFCURVE",
"258 -12 OFFCURVE",
"179 -12 CURVE SMOOTH"
);
},
{
closed = 1;
nodes = (
"500 581 LINE",
"427 620 LINE",
"542 805 LINE",
"641 752 LINE"
);
}
);
width = 821;
}
);
leftKerningGroup = ae;
rightKerningGroup = e;
unicode = 01FD;
},
{
glyphname = cacute;
layers = (
{
layerId = "91171461-3A9C-47E5-8F32-6F9DD13F0C63";
name = "Bold Italic";
paths = (
{
closed = 1;
nodes = (
"180 -12 OFFCURVE",
"130 6 OFFCURVE",
"94 42 CURVE SMOOTH",
"58 78 OFFCURVE",
"37 134 OFFCURVE",
"37 210 CURVE SMOOTH",
"37 302 OFFCURVE",
"65 384 OFFCURVE",
"113 442 CURVE SMOOTH",
"161 500 OFFCURVE",
"229 534 OFFCURVE",
"308 534 CURVE SMOOTH",
"405 534 OFFCURVE",
"476 482 OFFCURVE",
"491 403 CURVE",
"389 363 LINE",
"374 407 OFFCURVE",
"356 434 OFFCURVE",
"301 434 CURVE SMOOTH",
"236 434 OFFCURVE",
"195 394 OFFCURVE",
"180 313 CURVE SMOOTH",
"162 226 LINE SMOOTH",
"159 211 OFFCURVE",
"157 196 OFFCURVE",
"157 183 CURVE SMOOTH",
"157 127 OFFCURVE",
"185 88 OFFCURVE",
"248 88 CURVE SMOOTH",
"300 88 OFFCURVE",
"328 119 OFFCURVE",
"360 176 CURVE",
"453 132 LINE",
"408 37 OFFCURVE",
"334 -12 OFFCURVE",
"237 -12 CURVE SMOOTH"
);
},
{
closed = 1;
nodes = (
"338 581 LINE",
"265 620 LINE",
"380 805 LINE",
"479 752 LINE"
);
}
);
width = 492;
}
);
leftKerningGroup = c;
rightKerningGroup = c;
unicode = 0107;
},
{
glyphname = ccaron;
layers = (
{
layerId = "91171461-3A9C-47E5-8F32-6F9DD13F0C63";
name = "Bold Italic";
paths = (
{
closed = 1;
nodes = (
"180 -12 OFFCURVE",
"130 6 OFFCURVE",
"94 42 CURVE SMOOTH",
"58 78 OFFCURVE",
"37 134 OFFCURVE",
"37 210 CURVE SMOOTH",
"37 302 OFFCURVE",
"65 384 OFFCURVE",
"113 442 CURVE SMOOTH",
"161 500 OFFCURVE",
"229 534 OFFCURVE",
"308 534 CURVE SMOOTH",
"405 534 OFFCURVE",
"476 482 OFFCURVE",
"491 403 CURVE",
"389 363 LINE",
"374 407 OFFCURVE",
"356 434 OFFCURVE",
"301 434 CURVE SMOOTH",
"236 434 OFFCURVE",
"195 394 OFFCURVE",
"180 313 CURVE SMOOTH",
"162 226 LINE SMOOTH",
"159 211 OFFCURVE",
"157 196 OFFCURVE",
"157 183 CURVE SMOOTH",
"157 127 OFFCURVE",
"185 88 OFFCURVE",
"248 88 CURVE SMOOTH",
"300 88 OFFCURVE",
"328 119 OFFCURVE",
"360 176 CURVE",
"453 132 LINE",
"408 37 OFFCURVE",
"334 -12 OFFCURVE",
"237 -12 CURVE SMOOTH"
);
},
{
closed = 1;
nodes = (
"265 591 LINE",
"170 745 LINE",
"235 794 LINE",
"329 679 LINE",
"467 794 LINE",
"530 745 LINE",
"380 591 LINE"
);
}
);
width = 492;
}
);
leftKerningGroup = c;
rightKerningGroup = c;
unicode = 010D;
},
{
glyphname = ccedilla;
layers = (
{
layerId = "91171461-3A9C-47E5-8F32-6F9DD13F0C63";
name = "Bold Italic";
paths = (
{
closed = 1;
nodes = (
"407 534 OFFCURVE",
"476 482 OFFCURVE",
"491 403 CURVE",
"389 363 LINE",
"376 407 OFFCURVE",
"355 434 OFFCURVE",
"302 434 CURVE SMOOTH",
"237 434 OFFCURVE",
"197 394 OFFCURVE",
"180 313 CURVE SMOOTH",
"163 226 LINE SMOOTH",
"160 211 OFFCURVE",
"158 196 OFFCURVE",
"158 183 CURVE SMOOTH",
"158 127 OFFCURVE",
"185 88 OFFCURVE",
"248 88 CURVE SMOOTH",
"301 88 OFFCURVE",
"328 119 OFFCURVE",
"361 176 CURVE",
"454 132 LINE",
"412 45 OFFCURVE",
"348 -3 OFFCURVE",
"262 -11 CURVE",
"245 -57 LINE",
"247 -61 LINE",
"260 -57 OFFCURVE",
"273 -55 OFFCURVE",
"286 -55 CURVE SMOOTH",
"321 -55 OFFCURVE",
"348 -74 OFFCURVE",
"348 -111 CURVE SMOOTH",
"348 -143 OFFCURVE",
"333 -168 OFFCURVE",
"309 -184 CURVE SMOOTH",
"285 -201 OFFCURVE",
"251 -210 OFFCURVE",
"214 -210 CURVE SMOOTH",
"161 -210 OFFCURVE",
"123 -190 OFFCURVE",
"106 -167 CURVE",
"155 -119 LINE",
"163 -131 OFFCURVE",
"184 -146 OFFCURVE",
"213 -146 CURVE SMOOTH",
"241 -146 OFFCURVE",
"262 -134 OFFCURVE",
"262 -113 CURVE SMOOTH",
"262 -104 OFFCURVE",
"258 -97 OFFCURVE",
"249 -90 CURVE SMOOTH",
"240 -83 OFFCURVE",
"223 -79 OFFCURVE",
"199 -76 CURVE",
"176 -74 LINE",
"201 -10 LINE",
"105 3 OFFCURVE",
"37 74 OFFCURVE",
"37 210 CURVE SMOOTH",
"37 302 OFFCURVE",
"65 384 OFFCURVE",
"113 442 CURVE SMOOTH",
"161 500 OFFCURVE",
"229 534 OFFCURVE",
"308 534 CURVE SMOOTH"
);
}
);
width = 492;
}
);
leftKerningGroup = c;
rightKerningGroup = c;
unicode = 00E7;
},
{
glyphname = ccircumflex;
layers = (
{
layerId = "91171461-3A9C-47E5-8F32-6F9DD13F0C63";
name = "Bold Italic";
paths = (
{
closed = 1;
nodes = (
"180 -12 OFFCURVE",
"130 6 OFFCURVE",
"94 42 CURVE SMOOTH",
"58 78 OFFCURVE",
"37 134 OFFCURVE",
"37 210 CURVE SMOOTH",
"37 302 OFFCURVE",
"65 384 OFFCURVE",
"113 442 CURVE SMOOTH",
"161 500 OFFCURVE",
"229 534 OFFCURVE",
"308 534 CURVE SMOOTH",
"405 534 OFFCURVE",
"476 482 OFFCURVE",
"491 403 CURVE",
"389 363 LINE",
"374 407 OFFCURVE",
"356 434 OFFCURVE",
"301 434 CURVE SMOOTH",
"236 434 OFFCURVE",
"195 394 OFFCURVE",
"180 313 CURVE SMOOTH",
"162 226 LINE SMOOTH",
"159 211 OFFCURVE",
"157 196 OFFCURVE",
"157 183 CURVE SMOOTH",
"157 127 OFFCURVE",
"185 88 OFFCURVE",
"248 88 CURVE SMOOTH",
"300 88 OFFCURVE",
"328 119 OFFCURVE",
"360 176 CURVE",
"453 132 LINE",
"408 37 OFFCURVE",
"334 -12 OFFCURVE",
"237 -12 CURVE SMOOTH"
);
},
{
closed = 1;
nodes = (
"409 786 LINE",
"504 632 LINE",
"438 582 LINE",
"342 698 LINE",
"206 583 LINE",
"145 632 LINE",
"296 786 LINE"
);
}
);
width = 492;
}
);
leftKerningGroup = c;
rightKerningGroup = c;
unicode = 0109;
},
{
glyphname = cdotaccent;
layers = (
{
layerId = "91171461-3A9C-47E5-8F32-6F9DD13F0C63";
name = "Bold Italic";
paths = (
{
closed = 1;
nodes = (
"180 -12 OFFCURVE",
"130 6 OFFCURVE",
"94 42 CURVE SMOOTH",
"58 78 OFFCURVE",
"37 134 OFFCURVE",
"37 210 CURVE SMOOTH",
"37 302 OFFCURVE",
"65 384 OFFCURVE",
"113 442 CURVE SMOOTH",
"161 500 OFFCURVE",
"229 534 OFFCURVE",
"308 534 CURVE SMOOTH",
"405 534 OFFCURVE",
"476 482 OFFCURVE",
"491 403 CURVE",
"389 363 LINE",
"374 407 OFFCURVE",
"356 434 OFFCURVE",
"301 434 CURVE SMOOTH",
"236 434 OFFCURVE",
"195 394 OFFCURVE",
"180 313 CURVE SMOOTH",
"162 226 LINE SMOOTH",
"159 211 OFFCURVE",
"157 196 OFFCURVE",
"157 183 CURVE SMOOTH",
"157 127 OFFCURVE",
"185 88 OFFCURVE",
"248 88 CURVE SMOOTH",
"300 88 OFFCURVE",
"328 119 OFFCURVE",
"360 176 CURVE",
"453 132 LINE",
"408 37 OFFCURVE",
"334 -12 OFFCURVE",
"237 -12 CURVE SMOOTH"
);
},
{
closed = 1;
nodes = (
"279 598 OFFCURVE",
"261 619 OFFCURVE",
"261 650 CURVE SMOOTH",
"261 653 OFFCURVE",
"261 657 OFFCURVE",
"262 662 CURVE SMOOTH",
"263 667 OFFCURVE",
"264 675 OFFCURVE",
"267 686 CURVE",
"275 723 OFFCURVE",
"294 748 OFFCURVE",
"349 748 CURVE SMOOTH",
"397 748 OFFCURVE",
"415 727 OFFCURVE",
"415 696 CURVE SMOOTH",
"415 693 OFFCURVE",
"415 689 OFFCURVE",
"414 684 CURVE SMOOTH",
"413 679 OFFCURVE",
"412 671 OFFCURVE",
"409 660 CURVE",
"401 623 OFFCURVE",
"382 598 OFFCURVE",
"327 598 CURVE SMOOTH"
);
}
);
width = 492;
}
);
leftKerningGroup = c;
rightKerningGroup = c;
unicode = 010B;
},
{
glyphname = dcaron;
layers = (
{
layerId = "91171461-3A9C-47E5-8F32-6F9DD13F0C63";
name = "Bold Italic";
paths = (
{
closed = 1;
nodes = (
"432 0 LINE SMOOTH",
"384 0 OFFCURVE",
"350 27 OFFCURVE",
"350 72 CURVE SMOOTH",
"350 83 OFFCURVE",
"352 95 OFFCURVE",
"353 102 CURVE",
"357 119 LINE",
"352 119 LINE",
"309 34 OFFCURVE",
"262 -12 OFFCURVE",
"182 -12 CURVE SMOOTH",
"134 -12 OFFCURVE",
"97 7 OFFCURVE",
"73 40 CURVE SMOOTH",
"49 73 OFFCURVE",
"37 119 OFFCURVE",
"37 175 CURVE SMOOTH",
"37 276 OFFCURVE",
"62 366 OFFCURVE",
"106 431 CURVE SMOOTH",
"149 495 OFFCURVE",
"211 534 OFFCURVE",
"283 534 CURVE SMOOTH",
"354 534 OFFCURVE",
"406 493 OFFCURVE",
"415 433 CURVE",
"420 433 LINE",
"481 740 LINE",
"603 740 LINE",
"474 99 LINE",
"537 99 LINE",
"518 0 LINE"
);
},
{
closed = 1;
nodes = (
"276 90 OFFCURVE",
"307 112 OFFCURVE",
"330 139 CURVE SMOOTH",
"356 168 OFFCURVE",
"374 205 OFFCURVE",
"383 248 CURVE SMOOTH",
"400 336 LINE SMOOTH",
"412 392 OFFCURVE",
"377 433 OFFCURVE",
"309 433 CURVE SMOOTH",
"241 433 OFFCURVE",
"198 390 OFFCURVE",
"181 304 CURVE SMOOTH",
"167 232 LINE SMOOTH",
"164 217 OFFCURVE",
"161 193 OFFCURVE",
"161 177 CURVE SMOOTH",
"161 124 OFFCURVE",
"188 90 OFFCURVE",
"237 90 CURVE SMOOTH"
);
},
{
closed = 1;
nodes = (
"706 534 LINE",
"622 534 LINE",
"667 740 LINE",
"805 740 LINE"
);
}
);
width = 588;
}
);
leftKerningGroup = a;
rightKerningGroup = dcaron;
unicode = 010F;
},
{
glyphname = dcroat;
layers = (
{
layerId = "91171461-3A9C-47E5-8F32-6F9DD13F0C63";
name = "Bold Italic";
paths = (
{
closed = 1;
nodes = (
"432 0 LINE SMOOTH",
"384 0 OFFCURVE",
"350 27 OFFCURVE",
"350 72 CURVE SMOOTH",
"350 83 OFFCURVE",
"352 95 OFFCURVE",
"353 102 CURVE",
"357 119 LINE",
"352 119 LINE",
"309 34 OFFCURVE",
"262 -12 OFFCURVE",
"182 -12 CURVE SMOOTH",
"134 -12 OFFCURVE",
"97 7 OFFCURVE",
"73 40 CURVE SMOOTH",
"49 73 OFFCURVE",
"37 119 OFFCURVE",
"37 175 CURVE SMOOTH",
"37 276 OFFCURVE",
"62 366 OFFCURVE",
"106 431 CURVE SMOOTH",
"149 495 OFFCURVE",
"211 534 OFFCURVE",
"283 534 CURVE SMOOTH",
"354 534 OFFCURVE",
"406 493 OFFCURVE",
"415 433 CURVE",
"420 433 LINE",
"453 596 LINE",
"303 596 LINE",
"320 681 LINE",
"470 681 LINE",
"481 740 LINE",
"603 740 LINE",
"591 681 LINE",
"650 681 LINE",
"632 596 LINE",
"574 596 LINE",
"474 99 LINE",
"537 99 LINE",
"518 0 LINE"
);
},
{
closed = 1;
nodes = (
"276 90 OFFCURVE",
"306 112 OFFCURVE",
"330 139 CURVE SMOOTH",
"356 168 OFFCURVE",
"374 205 OFFCURVE",
"383 248 CURVE SMOOTH",
"400 336 LINE SMOOTH",
"412 392 OFFCURVE",
"377 433 OFFCURVE",
"309 433 CURVE SMOOTH",
"241 433 OFFCURVE",
"198 390 OFFCURVE",
"181 304 CURVE SMOOTH",
"167 232 LINE SMOOTH",
"164 217 OFFCURVE",
"161 193 OFFCURVE",
"161 177 CURVE SMOOTH",
"161 124 OFFCURVE",
"188 90 OFFCURVE",
"237 90 CURVE SMOOTH"
);
}
);
width = 588;
}
);
leftKerningGroup = a;
rightKerningGroup = d;
unicode = 0111;
},
